<?xml version="1.0" encoding="UTF-8"?>
<svg id="Layer_1" xmlns="http://www.w3.org/2000/svg" version="1.1" viewBox="0 0 12 12">
  <!-- Generator: Adobe Illustrator 30.3.0, SVG Export Plug-In . SVG Version: 2.1.3 Build 182)  -->
  <defs>
    <style>
      .st0 {
        fill: none;
      }

      .st1 {
        fill: #1a1a1a;
      }
    </style>
  </defs>
  <path class="st0" d="M0,0h12v12H0V0Z"/>
  <path class="st1" d="M4.5764999,2.704c.6335001-1.136.9500003-1.704,1.4235001-1.704s.79.5680001,1.4235001,1.704l.164.2939999c.1799998.323.27.4844999.4099998.5910001s.3150001.1459999.6650004.2249999l.3179998.072c1.2300005.2784998,1.8444996.4174998,1.9910002.8880002.1459999.4699998-.2729998.9604998-1.1114998,1.941l-.217.2535c-.2379999.2785001-.3575001.4180002-.4110003.5900002-.0535002.1725001-.0354996.3585.0004997.7299995l.033.3385c.1265001,1.3085003.1899996,1.9624996-.1929998,2.2530003s-.9589996.0255003-2.1099997-.5045004l-.2985001-.1370001c-.3270001-.151-.4905-.2259998-.664-.2259998s-.3369999.0749998-.664.2259998l-.2979999.1370001c-1.1515.5299997-1.7275.7950001-2.1099999.5050001-.3835001-.2910004-.3199999-.9449997-.1935-2.2535l.033-.3380003c.036-.3720002.0539999-.5580001,0-.73-.053-.1725001-.1724999-.3119998-.4105-.5900002l-.217-.2540002c-.8385-.98-1.2575001-1.4705-1.1115-1.941s.7614994-.6099992,1.9914994-.8879993l.3180001-.072c.3494999-.079.5239999-.1185.6645-.2249999s.23-.2679999.4099998-.5910001l.164-.2939999Z"/>
</svg>
