<?xml version="1.0" encoding="UTF-8"?>
<svg id="Layer_1" xmlns="http://www.w3.org/2000/svg" version="1.1" viewBox="0 0 24 24">
  <!-- Generator: Adobe Illustrator 30.3.0, SVG Export Plug-In . SVG Version: 2.1.3 Build 182)  -->
  <defs>
    <style>
      .st0 {
        fill: #fdfaf5;
      }

      .st1 {
        fill: #ea4335;
      }
    </style>
  </defs>
  <g>
    <rect class="st1" x="1" y="1" width="22" height="22" rx="1.75" ry="1.75"/>
    <path class="st0" d="M21.25,2c.4142094,0,.75.3357906.75.75v18.5c0,.4142094-.3357906.75-.75.75H2.75c-.4142101,0-.75-.3357906-.75-.75V2.75c0-.4142094.3357899-.75.75-.75h18.5M21.25,0H2.75C1.23364,0,0,1.2336407,0,2.75v18.5c0,1.5163593,1.23364,2.75,2.75,2.75h18.5c1.5163593,0,2.75-1.2336407,2.75-2.75V2.75c0-1.5163593-1.2336407-2.75-2.75-2.75h0Z"/>
  </g>
  <path class="st0" d="M6.3450212,17.6339626h11.3099566c.4948997,0,.7988491-.5801601.540844-1.0323315l-5.6549778-9.910778c-.2471142-.4330873-.8345737-.4330873-1.0816879,0l-5.6549778,9.910778c-.2580042.4521732.0459442,1.0323315.540843,1.0323315Z"/>
</svg>