<?xml version="1.0" encoding="UTF-8"?>
<svg id="Layer_1" xmlns="http://www.w3.org/2000/svg" version="1.1" viewBox="0 0 12 12">
  <!-- Generator: Adobe Illustrator 30.3.0, SVG Export Plug-In . SVG Version: 2.1.3 Build 182)  -->
  <defs>
    <style>
      .st0 {
        fill: none;
      }
    </style>
  </defs>
  <path class="st0" d="M0,0h12.0000009v12.0000009H0V0Z"/>
  <path d="M4.3086937,2.4001254c-.0885585,0-.1830936.0086927-.2749118.0309684-.0934483.0222755-.3162035.0896452-.4552892.3053371l-.0076064.0108662-.329786.5704701c-.1667947.1113773-.2901247.2499202-.3765102.3895496l-.0076064.0108664-1.3973795,2.526367c-.0558849.085844-.1056308.1755318-.1488654.2683928l-.0032598.0054332c-.1304884.2850334-.1977673.5949225-.1972202.9084045,0,1.2002353.9729832,2.1732193,2.1732192,2.1732193s2.1732188-.972984,2.1732188-2.1732188v-.5433046h1.0866092v.5433046c.0001913,1.2002357.9733296,2.1730632,2.1735654,2.1728728,1.2002362-.0001904,2.1730646-.9733301,2.1728732-2.1735645-.0000494-.3129625-.0676941-.6222221-.198306-.906627l-.0021735-.0065195c-.0432339-.0928606-.092981-.1825484-.1488657-.2683928l-1.3973804-2.5263668-.0076062-.0108664c-.0955692-.1556236-.2240891-.2884085-.3765106-.389006l-.3297858-.5710135-.0076062-.0108662c-.139086-.2156918-.3623849-.2825185-.4552899-.3053371-.1181479-.0274887-.2397931-.0368319-.3607544-.0277087-.1271635.0063885-.252215.0350768-.3694473.0847556-.0999683.0440076-.3466283.1776606-.4096518.4829979l-.0038031.0201025-.0760629.597635c-.1195271.1537553-.2031958.3477152-.2031958.5780766v.5433046h-1.0866096v-.5433051c0-.2303609-.0836691-.4243213-.2026529-.5780763l-.0760629-.5976352-.0043465-.0201025c-.0630235-.3053371-.3096835-.4389903-.4096518-.4829979-.1172324-.0496788-.2422838-.0783671-.3694473-.0847556-.0285599-.0022176-.0571962-.0033053-.0858421-.0032597M3.2834777,6.3401711c.6001179.0003204,1.0863494.487072,1.0860285,1.0871901-.0003204.6001172-.487072,1.0863492-1.0871896,1.0860287-.6001179-.0003214-1.0863492-.4870724-1.0860287-1.0871901.0000787-.1475899.0302236-.2936165.0885956-.4291736l.103228-.1858104c.1955898-.2841486.5237457-.4710448.8953663-.4710448M8.7165253,6.3401711c.3716208,0,.699776.1868971.8953665.4710448l.1032285.1858104c.2373468.5511877-.0170709,1.1904213-.5682605,1.4277681-.5511877.2373468-1.1904208-.0170709-1.4277676-.5682596s.0170709-1.1904213.5682596-1.4277681c.1355557-.0583717.2815833-.0885168.4291727-.0885956"/>
</svg>