<?xml version="1.0" encoding="UTF-8"?>
<svg id="Layer_1" xmlns="http://www.w3.org/2000/svg" version="1.1" viewBox="0 0 18 18">
  <!-- Generator: Adobe Illustrator 30.3.0, SVG Export Plug-In . SVG Version: 2.1.3 Build 182)  -->
  <defs>
    <style>
      .st0 {
        fill: #1a1a1a;
      }
    </style>
  </defs>
  <path class="st0" d="M5.887002,2.3741169c-.1630001,0-.3369999.0159998-.5059996.0570002-.1719999.0409999-.5819998.165-.8379998.5619998l-.0139999.02-.6069999,1.0500002c-.3070002.2049999-.5339999.46-.6929998.717l-.0139999.0200005L.643004,9.4501171c-.1028611.1580038-.1944227.323082-.2739999.4940004l-.006.0100002C.1228289,10.4787464-.0010038,11.0491238.0000031,11.6261148.0000031,13.8352537,1.7908639,15.6261148,4.0000024,15.6261148s3.9999995-1.7908611,3.9999995-3.999999v-1h2v1c.0003519,2.2091389,1.7914982,3.9997129,4.0006371,3.999362s3.9997139-1.7914982,3.9993629-4.0006361c-.0000916-.5760345-.1245975-1.1452541-.3649998-1.668726l-.0039997-.0120001c-.0795765-.1709185-.1711388-.3359966-.2740002-.4940004l-2.5720005-4.6499987-.0139999-.0200005c-.1759033-.2864389-.4124546-.5308409-.6930008-.7159996l-.6070004-1.0509999-.0139999-.02c-.2560005-.3969998-.6669998-.52-.8380003-.5619996-.2174625-.0505953-.4413605-.0677924-.6639996-.0510001-.2340555.0117588-.4642239.0645618-.6800003.1560001-.184.0809999-.6379995.3270001-.7539997.8889999l-.007.0370002-.1400003,1.0999994c-.2200003.283-.3739996.6400003-.3739996,1.0640001v1h-2v-1c0-.4239998-.1540003-.7810001-.3730001-1.0640001l-.1400003-1.0999997-.0080004-.0370002c-.1160002-.5619996-.5699997-.8079998-.7539997-.8889997-.2157764-.0914383-.4459448-.1442413-.6800003-.1560001-.0525665-.0040817-.1052752-.0060835-.158-.006M4.0000024,9.6261158c1.104569.0005903,1.9995208.8964987,1.9989305,2.0010681-.0005894,1.1045685-.8964987,1.9995213-2.0010674,1.9989319-1.1045692-.0005913-1.9995209-.8964996-1.9989311-2.0010681.000145-.2716522.0556291-.5404272.1630677-.7899313l.1900001-.342c.3600001-.5229998.9640002-.8669996,1.6479998-.8669996M14.000001,9.6261158c.684,0,1.2880001.3439999,1.6480007.8669996l.1900005.342c.4368563,1.0145092-.0314217,2.1910744-1.0459328,2.6279316-1.0145092.4368572-2.1910734-.0314217-2.6279306-1.0459309-.4368582-1.0145102.0314217-2.1910744,1.0459318-2.6279316.2495022-.1074381.5182781-.1629229.7899303-.1630678"/>
</svg>