<?xml version="1.0" encoding="UTF-8"?>
<svg id="Layer_1" xmlns="http://www.w3.org/2000/svg" version="1.1" viewBox="0 0 25 25">
  <!-- Generator: Adobe Illustrator 30.3.0, SVG Export Plug-In . SVG Version: 2.1.3 Build 182)  -->
  <defs>
    <style>
      .st0 {
        fill: none;
      }
    </style>
  </defs>
  <path class="st0" d="M0,0h25.0000019v25.0000019H0V0Z"/>
  <path d="M8.976445,5.0002611c-.1844972,0-.3814451.0181099-.5727332.0645176-.1946843.0464072-.6587571.1867611-.9485193.636119l-.0158465.0226377-.6870542,1.1884794c-.347489.2320362-.6044265.520667-.7843962.8115615l-.0158465.0226381-2.9112073,5.2632653c-.116427.1788419-.2200641.3656914-.3101364.559152l-.0067913.0113188c-.2718507.5938193-.4120151,1.2394215-.4108753,1.892509,0,2.5004905,2.0270483,4.5275399,4.5275396,4.5275399s4.5275399-2.0270495,4.5275399-4.5275391v-1.1318848h2.2637696v1.1318848c.0003983,2.5004913,2.02777,4.5272153,4.5282613,4.5268186s4.5272169-2.02777,4.5268186-4.5282597c-.0001036-.6520052-.1410301-1.2962958-.4131372-1.888806l-.0045272-.0135824c-.0900714-.1934598-.1937099-.3803093-.3101367-.559152l-2.9112095-5.2632641-.0158469-.0226381c-.1991018-.3242158-.4668517-.600851-.7843978-.8104292l-.6870546-1.1896112-.0158469-.0226377c-.2897626-.4493582-.7549677-.5885803-.9485206-.636119-.2461421-.057268-.4995688-.0767331-.7515714-.0577264-.2649237.0133096-.525448.0730766-.7696819.1765742-.2082671.0916825-.7221421.3701265-.853441,1.0062457l-.0079234.0418799-.1584646,1.2450728c-.2490153.3203237-.4233243.724407-.4233243,1.2043258v1.1318848h-2.2637704v-1.1318852c0-.4799189-.1743106-.8840025-.4221933-1.2043258l-.1584646-1.2450732-.0090552-.0418799c-.1312989-.636119-.6451739-.914563-.853441-1.0062455-.2442339-.1034976-.5047582-.1632646-.7696819-.1765742-.0594994-.0046201-.1191591-.0068859-.1788378-.0067912M6.8405785,13.20869c1.2502452.0006679,2.263228,1.0147335,2.2625592,2.2649791-.0006671,1.2502448-1.0147335,2.263228-2.2649783,2.2625609-1.2502454-.0006687-2.2632277-1.0147351-2.2625602-2.2649791.0001639-.3074788.0629659-.6117015.184574-.8941114l.2150582-.387105c.4074788-.5919759,1.0911372-.9813436,1.8653464-.9813436M18.1594272,13.20869c.7742099,0,1.4578675.3893686,1.8653474.9813436l.2150588.387105c.4944716,1.1483081-.0355652,2.4800435-1.1838757,2.9745168-1.1483073.4944716-2.4800427-.0355652-2.974516-1.183874s.0355652-2.4800443,1.183874-2.9745168c.2824083-.1216073.5866318-.1844102.8941098-.1845738"/>
</svg>