<?xml version="1.0" encoding="UTF-8"?>
<svg id="Layer_1" xmlns="http://www.w3.org/2000/svg" version="1.1" viewBox="0 0 18 18">
  <!-- Generator: Adobe Illustrator 30.3.0, SVG Export Plug-In . SVG Version: 2.1.3 Build 182)  -->
  <defs>
    <style>
      .st0 {
        fill: none;
      }
    </style>
  </defs>
  <path class="st0" d="M0,3h12v12H0V3Z"/>
  <path d="M5.8870021,2.374117c-.1630001,0-.3369998.0159998-.5059995.0570002-.1719999.0409999-.5819997.1649999-.8379997.5619997l-.0139999.02-.6069998,1.05c-.3070001.2049999-.5339998.46-.6929997.7169999l-.0139999.0200005L.643004,9.4501169c-.1028611.1580038-.1944227.3230819-.2739999.4940003l-.006.0100002C.1228289,10.478746-.0010038,11.0491242.0000031,11.6261152.0000031,13.8352537,1.7908639,15.6261145,4.0000024,15.6261145s3.9999993-1.7908608,3.9999993-3.9999993v-.9999998h1.9999997v.9999998c.0003519,2.2091385,1.7914979,3.9997132,4.0006364,3.9993623,2.2091385-.000351,3.9997132-1.7914979,3.9993623-4.0006364-.0000916-.5760344-.1245975-1.1452539-.3649997-1.6687257l-.0039997-.0120001c-.0795765-.1709184-.1711387-.3359966-.2740001-.4940003l-2.5720001-4.6499988-.0139999-.0200005c-.1759033-.2864389-.4124545-.5308408-.6930007-.7159995l-.6070002-1.0509999-.0139999-.02c-.2560005-.3969998-.6669997-.5199999-.8380002-.5619997-.2174625-.0505953-.4413604-.0677924-.6639994-.0510001-.2340555.0117588-.4642238.0645618-.6800002.1560001-.184.0809998-.6379994.3270001-.7539996.8889998l-.007.0370002-.1400003,1.0999997c-.2200002.2829999-.3739995.6400002-.3739995,1.0639999v.9999998h-1.9999997v-.9999998c0-.4239997-.1540003-.781-.3730001-1.0639999l-.1400003-1.0999997-.0080004-.0370002c-.1160002-.5619997-.5699996-.8079999-.7539996-.8889998-.2157764-.0914383-.4459447-.1442413-.6800002-.1560001-.0525665-.0040817-.1052751-.0060835-.158-.006M4.0000024,9.6261156c1.1045692.0005903,1.9995209.8964985,1.9989306,2.0010678-.0005894,1.1045683-.8964985,1.9995209-2.0010673,1.9989315-1.1045692-.0005913-1.9995209-.8964995-1.9989311-2.0010687.000145-.2716522.0556292-.5404271.1630678-.7899312l.19-.3419999c.3600001-.5229997.9640001-.8669995,1.648-.8669995M14.0000006,9.6261156c.6839999,0,1.2879999.3439998,1.6480004.8669995l.1900005.3419999c.4368571,1.014509-.0314217,2.191074-1.0459326,2.6279311-1.014509.4368571-2.191073-.0314217-2.6279302-1.0459307-.4368581-1.01451.0314217-2.1910749,1.0459316-2.6279321.2495021-.1074381.518278-.1629228.7899302-.1630678"/>
</svg>