<?xml version="1.0" encoding="UTF-8"?>
<svg id="Layer_1" xmlns="http://www.w3.org/2000/svg" version="1.1" viewBox="0 0 24 24">
  <!-- Generator: Adobe Illustrator 30.3.0, SVG Export Plug-In . SVG Version: 2.1.3 Build 182)  -->
  <defs>
    <style>
      .st0 {
        fill: none;
      }

      .st1 {
        fill: #fdfaf5;
      }

      .st2 {
        fill: #1a1a1a;
      }
    </style>
  </defs>
  <g>
    <rect class="st2" x="1" y="1" width="22" height="22" rx="1.75" ry="1.75"/>
    <path class="st1" d="M21.25,2c.4142094,0,.75.3357906.75.75v18.5c0,.4142094-.3357906.75-.75.75H2.75c-.4142101,0-.75-.3357906-.75-.75V2.75c0-.4142094.3357899-.75.75-.75h18.5M21.25,0H2.75C1.23364,0,0,1.2336407,0,2.75v18.5c0,1.5163593,1.23364,2.75,2.75,2.75h18.5c1.5163593,0,2.75-1.2336407,2.75-2.75V2.75c0-1.5163593-1.2336407-2.75-2.75-2.75h0Z"/>
  </g>
  <path class="st0" d="M0,0h24.0000019v24.0000019H0V0Z"/>
  <path class="st1" d="M9.3898703,6.4444473c-.1366693,0-.2825614.0134152-.4242612.0477924-.1442154.0343769-.4879852.138346-.7026307.4712155l-.0117388.0167693-.5089465.8803852c-.2574081.1718843-.4477385.3856924-.581054.6011772l-.0117388.0167697-2.1565236,3.8988477c-.0862452.1324799-.163016.2708918-.2297383.4142009l-.0050307.0083847c-.2013779.4398811-.3052068.9181217-.3043626,1.4019065,0,1.8522784,1.5015685,3.3538487,3.3538479,3.3538487s3.3538468-1.5015703,3.3538468-3.3538472v-.8384614h1.6769236v.8384614c.0002951,1.8522784,1.5021031,3.3536073,3.3543822,3.353313,1.8522798-.0002944,3.3536103-1.5021046,3.3533144-3.3543807-.0000765-.4829834-.1044692-.9602519-.3060384-1.3991638l-.0033542-.010061c-.0667212-.1433084-.1434946-.2817203-.2297389-.4142002l-2.1565256-3.8988473-.0117388-.0167697c-.147489-.2401682-.3458277-.4450901-.5810548-.6003383l-.5089454-.8812237-.0117388-.0167693c-.2146459-.3328691-.5592549-.4360001-.7026318-.4712155-.1823332-.0424223-.370064-.0568412-.5567389-.0427619-.1962465.009859-.3892338.0541328-.5701541.1308002-.1542775.0679152-.5349383.2741771-.6322002.7453926l-.0058694.0310234-.1173847.9223078c-.1844621.2372846-.3135841.5366158-.3135841.8921244v.8384614h-1.6769236v-.8384622c0-.3555075-.1291235-.654839-.3127467-.8921236l-.1173847-.9223082-.0067076-.0310234c-.0972619-.4712155-.4779227-.6774774-.6322002-.7453926-.1809203-.0766674-.3739076-.1209409-.5701541-.1308002-.0440751-.0034222-.0882687-.0051008-.132477-.0050305M7.8076926,12.5249727c.9261396.0004945,1.6765225.75168,1.6760273,1.6778199-.0004945.9261392-.75168,1.6765225-1.6778192,1.676028-.9261396-.000496-1.6765222-.75168-1.6760273-1.6778199.0001214-.2277696.046643-.4531271.1367263-.6623274l.1593081-.2867545c.3018464-.4385161.8082773-.7269462,1.3817855-.7269462M16.1923114,12.5249727c.573509,0,1.0799377.2884316,1.3817859.7269462l.1593088.2867545c.3662882.8506271-.0263447,1.8371331-.8769747,2.2034213-.8506271.3662882-1.8371316-.0263447-2.2034206-.876974s.0263447-1.8371331.8769732-2.2034213c.2091974-.0900826.4345577-.1366045.6623259-.136726"/>
</svg>