<?xml version="1.0" encoding="UTF-8"?>
<svg id="Layer_1" xmlns="http://www.w3.org/2000/svg" version="1.1" viewBox="0 0 24 24">
  <!-- Generator: Adobe Illustrator 30.3.0, SVG Export Plug-In . SVG Version: 2.1.3 Build 182)  -->
  <defs>
    <style>
      .st0 {
        fill: #fdfaf5;
      }

      .st1 {
        fill: #1a1a1a;
      }
    </style>
  </defs>
  <!-- Icon scaled to fit 24x24 with 6px padding on each side -->
  <g transform="translate(6, 6) scale(0.5)">
    <rect class="st1" width="18" height="18" rx="1" ry="1"/>
    <path class="st0" d="M15.2451644,5.8774991v5.6205014c0,.4433952-.2373089.8493202-.6244999,1.0741394v.9554855c0,.2560451-.2123295.4683746-.4683746.4683746h-.3122505c-.2560451,0-.4683746-.2123295-.4683746-.4683746v-.7806251h-4.3715014v.7806251c0,.2560451-.2123306.4683746-.4683746.4683746h-.3122499c-.2560451,0-.4683758-.2123295-.4683758-.4683746v-.9554855c-.380945-.2248203-.6245004-.6307453-.6245004-1.0741405v-5.6205003c0-1.8735003,1.8735002-1.8735003,4.0592509-1.8735003s4.0592509,0,4.0592509,1.8735003M9.6246621,10.8735007c0-.3434753-.2810251-.6245004-.6245004-.6245004s-.6245004.2810251-.6245004.6245004c0,.3434759.2810251.6244999.6245004.6244999s.6245004-.2810251.6245004-.6245004M13.9961624,10.8735007c0-.3434753-.2810269-.6245004-.6244999-.6245004s-.6244999.2810251-.6244999.6245004c0,.3434759.2810269.6244999.6244999.6244999s.6244999-.2810251.6244999-.6245004M13.9961624,5.8774991h-5.6205023v2.4980009h5.6205023s0-2.4980012,0-2.4980009ZM5.8776609,7.4387497c-.0187351-.8618105-.7306652-1.5612503-1.5924754-1.5300254-.8620857.017069-1.5471071.7297651-1.5300378,1.5918513l.0000124.0006237c.0167948.7293898.5345965,1.3507512,1.2490002,1.4988006v4.9960013h.6245002v-4.9960013c.7369097-.1498798,1.2490006-.8056051,1.2490006-1.5612508"/>
  </g>
</svg>
