<?xml version="1.0" encoding="UTF-8"?>
<svg id="Layer_1" xmlns="http://www.w3.org/2000/svg" version="1.1" viewBox="0 0 18 18">
  <!-- Generator: Adobe Illustrator 30.3.0, SVG Export Plug-In . SVG Version: 2.1.3 Build 182)  -->
  <defs>
    <style>
      .st0 {
        fill: #1a1a1a;
      }
    </style>
  </defs>
  <path class="st0" d="M18,4.500117v8.0997894c0,.6389826-.3419904,1.2239687-.8999766,1.5479591v1.3769648c0,.3689903-.3059922.6749825-.6749825.6749825h-.4499883c-.3689903,0-.6749825-.3059922-.6749825-.6749825v-1.1249708h-6.2998362v1.1249708c0,.3689903-.3059922.6749825-.6749825.6749825h-.4499883c-.3689903,0-.6749825-.3059922-.6749825-.6749825v-1.3769648c-.5489854-.3239921-.8999766-.9089766-.8999766-1.54796V4.500117c0-2.6999298,2.6999298-2.6999298,5.8498479-2.6999298s5.8498479,0,5.8498479,2.6999298M9.9002106,11.6999298c0-.4949873-.4049893-.8999766-.8999766-.8999766s-.8999766.4049893-.8999766.8999766.4049893.8999766.8999766.8999766.8999766-.4049893.8999766-.8999766M16.2000468,11.6999298c0-.4949873-.4049902-.8999766-.8999766-.8999766s-.8999766.4049893-.8999766.8999766.4049902.8999766.8999766.8999766.8999766-.4049893.8999766-.8999766M16.2000468,4.500117h-8.0997894v3.5999064h8.0997894v-3.5999064ZM4.5003509,6.7500585c-.0269995-1.2419678-1.0529727-2.2499415-2.2949405-2.2049425C.9630457,4.5697148-.0241489,5.5967918.0004499,6.839157l.000018.0008995c.0242032,1.0511342.7704151,1.9465886,1.7999532,2.1599435v7.1998128h.8999766v-7.1998128c1.0619722-.2159942,1.7999532-1.1609698,1.7999532-2.2499415"/>
</svg>