<?xml version="1.0" encoding="UTF-8"?>
<svg id="Layer_1" xmlns="http://www.w3.org/2000/svg" version="1.1" viewBox="0 0 24 24">
  <!-- Generator: Adobe Illustrator 30.3.0, SVG Export Plug-In . SVG Version: 2.1.3 Build 182)  -->
  <defs>
    <style>
      .st0 {
        fill: #fdfaf5;
      }

      .st1 {
        fill: #1a1a1a;
      }
    </style>
  </defs>
  <rect class="st1" x="2" y="2" width="20" height="20" rx=".75" ry=".75"/>
  <path class="st0" d="M18.9390721,8.5305546v6.2450022c0,.4926618-.2636761.9436893-.6938892,1.1934884v1.0616504c0,.2844948-.2359221.5204158-.5204158.5204158h-.3469446c-.2844948,0-.5204158-.2359221-.5204158-.5204158v-.8673615h-4.8572244v.8673615c0,.2844948-.2359231.5204158-.5204158.5204158h-.3469446c-.2844948,0-.5204174-.2359221-.5204174-.5204158v-1.0616504c-.4232725-.2498002-.6938892-.7008277-.6938892-1.1934895v-6.2450001c0-2.0816671,2.0816671-2.0816671,4.5102792-2.0816671s4.5102787,0,4.5102787,2.0816671M12.6940693,14.0816676c0-.3816393-.3122499-.6938892-.6938892-.6938892s-.6938892.3122499-.6938892.6938892c0,.3816403.3122499.6938892.6938892.6938892s.6938892-.3122499.6938892-.6938892M17.5512916,14.0816676c0-.3816393-.312252-.6938892-.6938892-.6938892s-.6938892.3122499-.6938892.6938892c0,.3816403.312252.6938892.6938892.6938892s.6938892-.3122499.6938892-.6938892M17.5512916,8.5305546h-6.2450027v2.7755562h6.2450027s0-2.7755568,0-2.7755562ZM8.5307342,10.2652775c-.0208166-.9575674-.8118502-1.7347225-1.7694171-1.7000283-.9578731.0189654-1.719008.8108499-1.7000421,1.7687236l.0000138.000693c.0186608.810433.593996,1.5008349,1.3877779,1.6653342v5.5511125h.6938892v-5.5511125c.8187887-.1665327,1.3877784-.8951166,1.3877784-1.734723"/>
</svg>