<?xml version="1.0" encoding="UTF-8"?>
<svg id="Layer_1" xmlns="http://www.w3.org/2000/svg" version="1.1" viewBox="0 0 12 12">
  <!-- Generator: Adobe Illustrator 30.3.0, SVG Export Plug-In . SVG Version: 2.1.3 Build 182)  -->
  <path d="M11.1181531,3.4409901v4.6062179c0,.3633792-.1944836.6960507-.5118018.8802988v.7830569c0,.2098389-.1740125.3838513-.3838513.3838513h-.2559009c-.2098389,0-.3838513-.1740125-.3838513-.3838513v-.6397522h-3.5826137v.6397522c0,.2098389-.1740129.3838513-.3838513.3838513h-.2559009c-.2098389,0-.3838518-.1740125-.3838518-.3838513v-.7830569c-.3121989-.184249-.5118022-.5169205-.5118022-.8802997V3.4409901c0-1.5354058,1.5354057-1.5354058,3.3267128-1.5354058s3.3267123,0,3.3267123,1.5354058M6.511935,7.5354062c0-.2814912-.230311-.5118022-.5118022-.5118022s-.5118022.230311-.5118022.5118022c0,.2814917.230311.5118018.5118022.5118018s.5118022-.230311.5118022-.5118022M10.0945486,7.5354062c0-.2814912-.2303119-.5118022-.5118018-.5118022s-.5118018.230311-.5118018.5118022c0,.2814917.2303119.5118018.5118018.5118018s.5118018-.230311.5118018-.5118022M10.0945486,3.4409901h-4.6062181v2.0472082h4.6062181v-2.0472082ZM3.4411233,4.7204951c-.0153541-.7062868-.5988082-1.2795049-1.305095-1.2539147-.7065125.0139888-1.2679139.5980708-1.253925,1.3045837l.0000102.0005113c.013764.5977629.4381225,1.106993,1.0236038,1.2283246v4.0944159h.511802v-4.0944159c.603926-.1228322,1.023604-.6602243,1.023604-1.2795053"/>
</svg>