<?xml version="1.0" encoding="UTF-8"?>
<svg id="Layer_1" xmlns="http://www.w3.org/2000/svg" version="1.1" viewBox="0 0 25 25">
  <!-- Generator: Adobe Illustrator 30.3.0, SVG Export Plug-In . SVG Version: 2.1.3 Build 182)  -->
  <path d="M23.1628189,7.1687293v9.5962873c0,.75704-.4051743,1.4501057-1.0662537,1.8339558v1.6313686c0,.4371643-.3625259.7996902-.7996902.7996902h-.5331268c-.4371643,0-.7996902-.3625259-.7996902-.7996902v-1.3328171h-7.4637785v1.3328171c0,.4371643-.3625269.7996902-.7996902.7996902h-.5331268c-.4371643,0-.7996912-.3625259-.7996912-.7996902v-1.6313686c-.6504145-.383852-1.0662546-1.0769176-1.0662546-1.8339577V7.1687293c0-3.1987622,3.1987619-3.1987622,6.9306517-3.1987622s6.9306507,0,6.9306507,3.1987622M13.5665312,15.6987629c0-.5864401-.4798145-1.0662546-1.0662546-1.0662546s-1.0662546.4798145-1.0662546,1.0662546c0,.586441.4798145,1.0662537,1.0662546,1.0662537s1.0662546-.4798145,1.0662546-1.0662546M21.0303097,15.6987629c0-.5864401-.4798164-1.0662546-1.0662537-1.0662546s-1.0662537.4798145-1.0662537,1.0662546c0,.586441.4798164,1.0662537,1.0662537,1.0662537s1.0662537-.4798145,1.0662537-1.0662546M21.0303097,7.1687293h-9.5962877v4.265017h9.5962877v-4.265017ZM7.1690068,9.8343649c-.0319877-1.4714308-1.2475171-2.6656351-2.7189479-2.6123223-1.4719009.0291433-2.6414874,1.2459807-2.6123438,2.7178826l.0000213.0010653c.028675,1.2453394.9127551,2.3062353,2.1325079,2.5590096v8.5300331h1.0662541v-8.5300331c1.2581792-.2559004,2.1325083-1.3754673,2.1325083-2.6656361"/>
</svg>