<?xml version="1.0" encoding="UTF-8"?>
<svg id="Layer_1" xmlns="http://www.w3.org/2000/svg" version="1.1" viewBox="0 0 24 24">
  <!-- Generator: Adobe Illustrator 30.3.0, SVG Export Plug-In . SVG Version: 2.1.3 Build 182)  -->
  <defs>
    <style>
      .st0 {
        fill: #fdfaf5;
      }

      .st1 {
        fill: #fdfaf5;
      }

      .st2 {
        fill: #1a1a1a;
      }
    </style>
  </defs>
  <g>
    <rect class="st2" x="1" y="1" width="22" height="22" rx="1.75" ry="1.75"/>
    <path class="st0" d="M21.25,2c.4142094,0,.75.3357906.75.75v18.5c0,.4142101-.3357906.75-.75.75H2.75c-.4142101,0-.75-.3357899-.75-.75V2.75c0-.4142094.3357899-.75.75-.75h18.5M21.25,0H2.75C1.23364,0,0,1.2336407,0,2.75v18.5c0,1.51636,1.23364,2.75,2.75,2.75h18.5c1.5163593,0,2.75-1.23364,2.75-2.75V2.75c0-1.5163593-1.2336407-2.75-2.75-2.75h0Z"/>
  </g>
  <path class="st1" d="M18.9390717,8.5305548v6.2450018c0,.4926615-.2636757.9436893-.6938896,1.1934881v1.0616503c0,.2844944-.2359219.5204163-.5204163.5204163h-.3469448c-.2844944,0-.5204163-.2359219-.5204163-.5204163v-.8673611h-4.8572245v.8673611c0,.2844944-.2359228.5204163-.5204153.5204163h-.3469448c-.2844944,0-.5204172-.2359219-.5204172-.5204163v-1.0616503c-.4232721-.2498007-.6938896-.7008276-.6938896-1.19349v-6.2449999c0-2.0816669,2.0816669-2.0816669,4.5102797-2.0816669s4.5102787,0,4.5102787,2.0816669M12.6940689,14.0816679c0-.3816395-.3122501-.6938896-.6938896-.6938896s-.6938896.3122501-.6938896.6938896c0,.3816404.3122501.6938896.6938896.6938896s.6938896-.3122501.6938896-.6938896M17.5512924,14.0816679c0-.3816395-.312252-.6938896-.6938896-.6938896s-.6938896.3122501-.6938896.6938896c0,.3816404.312252.6938896.6938896.6938896s.6938896-.3122501.6938896-.6938896M17.5512924,8.5305548h-6.2450027v2.7755556h6.2450027s0-2.7755566,0-2.7755556ZM8.5307341,10.2652779c-.0208168-.9575672-.8118501-1.7347221-1.7694168-1.7000284-.9578733.0189657-1.719008.8108501-1.7000422,1.7687235l.0000138.0006933c.018661.8104334.593996,1.5008345,1.3877778,1.6653337v5.5511131h.6938891v-5.5511131c.8187885-.1665325,1.3877783-.8951168,1.3877783-1.7347231"/>
</svg>