<?xml version="1.0" encoding="UTF-8"?>
<svg id="Layer_1" xmlns="http://www.w3.org/2000/svg" version="1.1" viewBox="0 0 18 18">
  <!-- Generator: Adobe Illustrator 30.3.0, SVG Export Plug-In . SVG Version: 2.1.3 Build 182)  -->
  <defs>
    <style>
      .st0 {
        fill: #fdfaf5;
      }

      .st1 {
        fill: #fdfaf5;
      }

      .st2 {
        fill: #1a1a1a;
      }
    </style>
  </defs>
  <g>
    <rect class="st2" x=".5" y=".5" width="17" height="17" rx=".5" ry=".5"/>
    <path class="st0" d="M17,1v16H1V1h16M17,0H1C.44772,0,0,.44771,0,1v16c0,.5522799.44772,1,1,1h16c.5522804,0,1-.4477201,1-1V1c0-.55229-.4477196-1-1-1h0Z"/>
  </g>
  <path class="st1" d="M15.2451644,5.8774991v5.6205014c0,.4433952-.2373089.8493202-.6244999,1.0741394v.9554855c0,.2560451-.2123295.4683746-.4683746.4683746h-.3122505c-.2560451,0-.4683746-.2123295-.4683746-.4683746v-.7806251h-4.3715014v.7806251c0,.2560451-.2123306.4683746-.4683746.4683746h-.3122499c-.2560451,0-.4683758-.2123295-.4683758-.4683746v-.9554855c-.380945-.2248203-.6245004-.6307453-.6245004-1.0741405v-5.6205003c0-1.8735003,1.8735002-1.8735003,4.0592509-1.8735003s4.0592509,0,4.0592509,1.8735003M9.6246621,10.8735007c0-.3434753-.2810251-.6245004-.6245004-.6245004s-.6245004.2810251-.6245004.6245004c0,.3434759.2810251.6244999.6245004.6244999s.6245004-.2810251.6245004-.6245004M13.9961624,10.8735007c0-.3434753-.2810269-.6245004-.6244999-.6245004s-.6244999.2810251-.6244999.6245004c0,.3434759.2810269.6244999.6244999.6244999s.6244999-.2810251.6244999-.6245004M13.9961624,5.8774991h-5.6205023v2.4980009h5.6205023s0-2.4980012,0-2.4980009ZM5.8776609,7.4387497c-.0187351-.8618105-.7306652-1.5612503-1.5924754-1.5300254-.8620857.017069-1.5471071.7297651-1.5300378,1.5918513l.0000124.0006237c.0167948.7293898.5345965,1.3507512,1.2490002,1.4988006v4.9960013h.6245002v-4.9960013c.7369097-.1498798,1.2490006-.8056051,1.2490006-1.5612508"/>
  <path class="st1" d="M27.3618289,12.7954095c-.1954197-.0046528-.39084.0003325-.5862597.0149556-.7806829.0628136-1.5523918.2891417-2.1655717.7477803-.5144726.3848574-.841502.9920551-.9521735,1.6959659-.4885499.0498522-.9770995.1016984-1.3360343.3589348-.466615.3350051-.7517685.897336-.7517685,1.5264687,0,.6221531.2662098,1.186478.7298333,1.5254712.3539495.2572365.7876619.3948279,1.2821936.4456769.0867424,1.1117005.4815703,1.9741402,1.0299427,2.644151.4347098.5314222.9521735.9451949,1.4796085,1.316093-.3230411.6720063-.5334165,1.4965584-.5334165,2.54345,0,.2753249.2231947.4985202.4985202.4985202h.9970404c.2753255,0,.4985202-.2231954.4985202-.4985202,0-1.8903885.565322-3.0010912,1.2213749-3.9552596.580277-.8444933,1.2622526-1.5683445,1.6142073-2.5324823.689952-.0329026,1.3749191-.1694969,1.9541996-.491541.67699-.3758844,1.1924607-1.0797949,1.1924607-1.9940808s-.5154695-1.6181967-1.191463-1.9940808c-.5942355-.3290233-1.311108-.4097835-2.0180093-.4386977-.2831599-.4985202-.7388068-.8773957-1.3021345-1.0967445-.5316536-.1991702-1.0934219-.3060612-1.661069-.3160618M24.5810834,19.1335957h1.9910898c.0697932.9810883.344976,1.7537936.7029134,2.3131334-.2403709.2393808-.4629685.4959681-.6660235.7677216-.4686089-.335006-.8933481-.6829728-1.2263599-1.0907621-.4227449-.5144736-.7198627-1.120674-.8016204-1.9900929M27.5722049,19.1335957h1.6520955c-.1914325.3569403-.4656176.7368132-.7408011,1.1067142-.1522155.1635142-.3097476.3250354-.4725974.4845617-.2033967-.3848573-.3788758-.9132887-.438697-1.5912765"/>
</svg>