<?xml version="1.0" encoding="UTF-8"?>
<svg id="Layer_1" xmlns="http://www.w3.org/2000/svg" version="1.1" viewBox="0 0 12 12">
  <!-- Generator: Adobe Illustrator 30.3.0, SVG Export Plug-In . SVG Version: 2.1.3 Build 182)  -->
  <defs>
    <style>
      .st0 {
        fill: none;
      }

      .st1 {
        fill: #1a1a1a;
      }
    </style>
  </defs>
  <path class="st0" d="M0,0h12.0000002v12.0000002H0V0Z"/>
  <path class="st1" d="M6.0000001,0l6.0000001,3.2v2l-.8-.4239998v7.2239999h-1.6V3.9200001l-3.6000001-1.9200001-3.6000001,1.9200001v8.08H.8v-7.2240003l-.8.4240002v-2L6.0000001,0ZM8.6400003,5.3919999c.0800003,0,.1360001.0560001.1519997.1200001l.0080002.048-1.1599999,6.3040002c-.0080002.0720001-.0800003.1360001-.1519997.1360001-.0800003,0-.1440002-.0480003-.1599998-.1199997l-.0080002-.0559998,1.168-6.296c.0160004-.0720001.0720001-.1360001.1519997-.1360001M5.6240003,4.6880006h.0560001c.1439999.016.5520001.1040001.6560001.5919998l.2640003,1.0880001.9840004.248c.1519997.032.2480003.1599998.2480003.3279999,0,.1839996-.1440002.3279999-.3279999.3279999l-.0639999-.0080002-1.184-.2959999c-.1001137-.0342377-.1775635-.114666-.2079998-.2160004l-.0639999-.3120003-.0880001.3919998,1.0880001,4.5680001.0160004.1120003c0,.2639999-.2239998.4879997-.4879997.4879997-.232,0-.4239998-.1519997-.4799999-.368l-.7920002-3.4400002-.8400002,3.4560006c-.0600239.2068832-.2485951.3499367-.4639999.3519997-.2703983-.0002281-.489415-.2196144-.4891869-.4900131.0000267-.0315521.0031033-.0630272.0091869-.0939873l1.464-6.1520001s.1439999-.584.7040001-.5759998M3.8880025,4.3119992l.048.0080002.5760002.1360001c.1040001.032.168.1360001.1439999.2400002l-.4880001,2.0079998c-.0240002.1040001-.1360001.168-.232.1360001l-.584-.1360001c-.1036263-.0224892-.169401-.1247261-.1469116-.2283524.0008488-.0039124.00182-.0077965.0029118-.0116478l.4880001-2c.0240002-.0959999.0959999-.152.1919998-.152M5.8320001,3.2c.384,0,.6879997.3119999.6879997.6880001.0017632.3817352-.3062649.692622-.6880001.6943852s-.692622-.3062649-.6943852-.6880001.3062649-.692622.6880001-.6943852c.0021286-.0000099.0042568-.0000099.0063854,0"/>
</svg>