<?xml version="1.0" encoding="UTF-8"?>
<svg id="Layer_1" xmlns="http://www.w3.org/2000/svg" version="1.1" viewBox="0 0 12 12">
  <!-- Generator: Adobe Illustrator 30.3.0, SVG Export Plug-In . SVG Version: 2.1.3 Build 182)  -->
  <defs>
    <style>
      .st0 {
        fill: #1a1a1a;
      }
    </style>
  </defs>
  <path class="st0" d="M10.6205658,4.6257797c.591796.4324667.2883115,1.3732718-.4476416,1.3732718v.758714c.4172928,0,.758714.3414212.758714.758714s-.3414212.7587131-.758714.7587131v.758714c.4172928,0,.758714.3414212.758714.758714s-.3414212.758714-.758714.758714h-3.0348541v-3.0348541h-2.2761411v3.0348541H1.8270752c-.4172926,0-.7587136-.3414212-.7587136-.758714s.3414211-.758714.7587136-.758714v-.758714c-.4172926,0-.7587136-.3414212-.7587136-.758714s.3414211-.758714.7587136-.758714v-.758714c-.7359523,0-1.0394376-.9408046-.4476409-1.3732718L5.5523593,1.5909251c.2655496-.1896784.6297322-.1896784.8952823,0l4.1729242,3.0348546ZM2.5857889,5.9990515v.758714h6.8284232v-.758714H2.5857889ZM9.414212,8.2751926h-1.517428v.758714h1.517428v-.758714ZM2.5857889,8.2751926v.758714h1.5174275v-.758714h-1.5174275ZM6.0000005,3.1462878l-1.8360869,1.3353367h3.6721738s-1.8360873-1.3353362-1.8360869-1.3353367Z"/>
</svg>