<?xml version="1.0" encoding="UTF-8"?>
<svg id="Layer_1" xmlns="http://www.w3.org/2000/svg" version="1.1" viewBox="0 0 24 24">
  <!-- Generator: Adobe Illustrator 30.3.0, SVG Export Plug-In . SVG Version: 2.1.3 Build 182)  -->
  <defs>
    <style>
      .st0 {
        fill: #fdfaf5;
      }

      .st1 {
        fill: #1a1a1a;
      }
    </style>
  </defs>
  <g>
    <rect class="st1" x="1" y="1" width="22" height="22" rx="1.75" ry="1.75"/>
    <path class="st0" d="M21.25,2c.4142094,0,.75.3357906.75.75v18.5c0,.4142094-.3357906.75-.75.75H2.75c-.4142101,0-.75-.3357906-.75-.75V2.75c0-.4142094.3357899-.75.75-.75h18.5M21.25,0H2.75C1.23364,0,0,1.2336407,0,2.75v18.5c0,1.5163593,1.23364,2.75,2.75,2.75h18.5c1.5163593,0,2.75-1.2336407,2.75-2.75V2.75c0-1.5163593-1.2336407-2.75-2.75-2.75h0Z"/>
  </g>
  <path class="st0" d="M19.0091907,9.9153694c.8977279.6560323.4373563,2.0831921-.6790519,2.0831921v1.1509355c.6330142,0,1.1509347.5179206,1.1509347,1.1509355s-.5179206,1.150934-1.1509347,1.150934v1.1509347c.6330142,0,1.1509347.5179206,1.1509347,1.1509347s-.5179206,1.1509347-1.1509347,1.1509347h-4.6037375v-4.6037375h-3.4528042v4.6037375h-4.6037372c-.6330142,0-1.1509346-.5179206-1.1509346-1.1509347s.5179206-1.1509347,1.1509346-1.1509347v-1.1509347c-.6330142,0-1.1509346-.5179206-1.1509346-1.1509355s.5179206-1.1509355,1.1509346-1.1509355v-1.1509355c-1.1164068,0-1.5767804-1.4271583-.6790512-2.0831921l6.33014-4.603737c.4028269-.2877337.9552754-.2877337,1.3581031,0l6.3301389,4.6037384ZM6.8207946,11.9985614v1.1509355h10.3584124v-1.1509355H6.8207946ZM17.179207,15.4513649h-2.3018702v1.1509347h2.3018702v-1.1509347ZM6.8207946,15.4513649v1.1509347h2.3018691v-1.1509347s-2.3018695,0-2.3018691,0ZM12.0000006,7.6710467l-2.7852614,2.025646h5.5705228s-2.7852621-2.0256452-2.7852614-2.025646Z"/>
</svg>