<?xml version="1.0" encoding="UTF-8"?>
<svg id="Layer_1" xmlns="http://www.w3.org/2000/svg" version="1.1" viewBox="0 0 12 12">
  <!-- Generator: Adobe Illustrator 30.3.0, SVG Export Plug-In . SVG Version: 2.1.3 Build 182)  -->
  <defs>
    <style>
      .st0 {
        fill: none;
      }

      .st1 {
        fill: #1a1a1a;
      }
    </style>
  </defs>
  <path class="st0" d="M0,0h12.0000002v12.0000002H0V0Z"/>
  <path class="st1" d="M10.8720002,4.551c.6239998.4560001.3040001,1.448-.4720001,1.448v.8c.4400002,0,.8.3599999.8.8s-.3599999.8-.8.8v.8c.4400002,0,.8.3599999.8.8s-.3599999.8-.8.8h-3.2v-3.2h-2.4v3.2H1.5999999c-.44,0-.8-.3599999-.8-.8s.36-.8.8-.8v-.8c-.44,0-.8-.3599999-.8-.8s.36-.8.8-.8v-.8c-.776,0-1.096-.9919998-.4719999-1.448L5.5279998,1.351c.2799999-.2.6639999-.2.9440003,0l4.4000001,3.2ZM2.3999999,5.999v.8h7.2000001v-.8H2.3999999ZM9.6,8.399h-1.6v.8h1.6v-.8ZM2.3999999,8.399v.8h1.6v-.8h-1.6ZM6,2.9909997l-1.9360001,1.4080002h3.8720002l-1.9360001-1.4080002Z"/>
</svg>