<?xml version="1.0" encoding="UTF-8"?>
<svg id="Layer_1" xmlns="http://www.w3.org/2000/svg" version="1.1" viewBox="0 0 25 25">
  <!-- Generator: Adobe Illustrator 30.3.0, SVG Export Plug-In . SVG Version: 2.1.3 Build 182)  -->
  <defs>
    <style>
      .st0 {
        fill: #1a1a1a;
      }
    </style>
  </defs>
  <path class="st0" d="M22.126179,9.6370412c1.2329088.9009721.6006481,2.8609825-.9325857,2.8609825v1.5806537c.8693604,0,1.5806537.7112943,1.5806537,1.5806537s-.7112933,1.5806528-1.5806537,1.5806528v1.5806537c.8693604,0,1.5806537.7112933,1.5806537,1.5806537s-.7112933,1.5806537-1.5806537,1.5806537h-6.3226131v-6.3226131h-4.7419603v6.3226131H3.8064068c-.8693595,0-1.5806534-.7112933-1.5806534-1.5806537s.7112939-1.5806537,1.5806534-1.5806537v-1.5806537c-.8693595,0-1.5806534-.7112933-1.5806534-1.5806537s.7112939-1.5806537,1.5806534-1.5806537v-1.5806537c-1.5332338,0-2.165495-1.9600094-.9325853-2.8609825L11.5674148,3.3144274c.5532282-.3951634,1.3119424-.3951634,1.8651715,0l8.6935928,6.3226138ZM5.3870601,12.4980237v1.5806537h14.2258814v-1.5806537H5.3870601ZM19.6129414,17.239984h-3.1613075v1.5806537h3.1613075v-1.5806537ZM5.3870601,17.239984v1.5806537h3.161307v-1.5806537h-3.161307ZM12.5000005,6.5547663l-3.8251809,2.7819509h7.6503627s-3.8251818-2.7819504-3.8251818-2.7819509Z"/>
</svg>