<?xml version="1.0" encoding="UTF-8"?>
<svg id="Layer_1" xmlns="http://www.w3.org/2000/svg" version="1.1" viewBox="0 0 24 24">
  <!-- Generator: Adobe Illustrator 30.3.0, SVG Export Plug-In . SVG Version: 2.1.3 Build 182)  -->
  <defs>
    <style>
      .st0 {
        fill: #fdfaf5;
      }

      .st1 {
        fill: #5b7459;
      }
    </style>
  </defs>
  <rect class="st1" x="1" y="1" width="22" height="22" rx="6" ry="6"/>
  <path class="st0" d="M19.0091915,9.915369c.897728.6560326.4373569,2.0831919-.6790524,2.0831919v1.1509352c.6330147,0,1.1509342.5179205,1.1509342,1.1509352s-.5179214,1.1509342-1.1509342,1.1509342v1.1509352c.6330147,0,1.1509342.5179214,1.1509342,1.1509342s-.5179214,1.1509342-1.1509342,1.1509342h-4.6037369v-4.6037369h-3.4528046v4.6037369h-4.6037374c-.6330142,0-1.1509347-.5179214-1.1509347-1.1509342s.5179205-1.1509342,1.1509347-1.1509342v-1.1509342c-.6330142,0-1.1509347-.5179205-1.1509347-1.1509352s.5179205-1.1509352,1.1509347-1.1509352v-1.1509352c-1.1164069,0-1.5767803-1.4271584-.6790514-2.0831919l6.3301406-4.6037369c.4028273-.2877336.9552755-.2877336,1.3581028,0,0,0,6.3301392,4.6037388,6.3301392,4.6037369ZM6.8207946,11.9985619v1.1509352h10.3584123v-1.1509352H6.8207946ZM17.1792068,15.4513645h-2.3018703v1.1509342h2.3018703v-1.1509342ZM6.8207946,15.4513645v1.1509342h2.3018689v-1.1509342s-2.3018694,0-2.3018689,0ZM12.000001,7.6710467l-2.7852612,2.0256457h5.5705233s-2.7852621-2.0256453-2.7852621-2.0256457Z"/>
</svg>