<?xml version="1.0" encoding="UTF-8"?>
<svg id="Layer_1" xmlns="http://www.w3.org/2000/svg" version="1.1" viewBox="0 0 12 12">
  <!-- Generator: Adobe Illustrator 30.3.0, SVG Export Plug-In . SVG Version: 2.1.3 Build 182)  -->
  <path d="M2.6216892.8000002c-1.004656,0-1.8190903.8144344-1.8190903,1.8190903s.8144344,1.8190903,1.8190903,1.8190903,1.8190903-.8144344,1.8190903-1.8190903-.8144344-1.8190903-1.8190903-1.8190903M9.1184409,6.8445776v-2.1153424c.5041479.3950024,1.1954022.7484258,2.0789603.7484258v-1.0394801c-1.1330338,0-1.8606693-.8887555-2.0789603-1.1954022v-.5925037c.5041479.3950024,1.1954022.7484258,2.0789603.7484258v-1.0394801c-1.3617188,0-2.1413287-1.2889555-2.1517236-1.2993503-.1392746-.2460568-.451647-.3326213-.6977042-.1933469-.0825458.0467231-.150488.1154605-.1962488.1985443-.0051984.0103948-.7328343,1.2941528-2.1465271,1.2941528v1.0394801c.8939529,0,1.5800098-.3430284,2.0789603-.7328334v.5821088c-.2078961.3014493-.9043478,1.1902048-2.0789603,1.1902048v1.0394801c.8939529,0,1.5800098-.3430284,2.0789603-.7328334v1.2525737H3.6611696v.0207898c-.1819091,0-.3586208.0831583-.4521739.2442778L.8701652,10.4203894c-.0883558.1611191-.0883558.3586212,0,.5197403.0883559.1611191.2650674.2598697.4469765.2598697h9.3553217c.1871063,0,.3534238-.0987506.4469769-.2598697s.0935532-.3586212,0-.5197403l-2.0113943-3.5758118h.0103949ZM2.2110947,10.1553223l1.4500749-2.5779108,1.4500749,2.5779108h-2.9001498Z"/>
</svg>