<?xml version="1.0" encoding="UTF-8"?>
<svg id="Layer_1" xmlns="http://www.w3.org/2000/svg" version="1.1" viewBox="0 0 24 24">
  <!-- Generator: Adobe Illustrator 30.3.0, SVG Export Plug-In . SVG Version: 2.1.3 Build 182)  -->
  <defs>
    <style>
      .st0 {
        fill: #fdfaf5;
      }

      .st1 {
        fill: #5b7459;
      }
    </style>
  </defs>
  <rect class="st1" x="1" y="1" width="22" height="22" rx="6" ry="6"/>
  <path class="st0" d="M7.2581124,4.7011409c-1.410162,0-2.5533237,1.1431618-2.5533237,2.5533242s1.1431618,2.5533237,2.5533237,2.5533237,2.5533233-1.1431618,2.5533233-2.5533237-1.1431618-2.5533237-2.5533237-2.5533237M16.3771267,13.1854715v-2.9691505c.7076359.5544357,1.6778984,1.0505104,2.9180851,1.0505104v-1.4590425c-1.5903568,0-2.6116848-1.2474813-2.9180851-1.6778984v-.8316541c.7076359.5544357,1.6778984,1.0505109,2.9180851,1.0505109v-1.4590421c-1.9113445,0-3.0056267-1.8092122-3.0202179-1.8238029-.1954899-.3453717-.6339436-.466876-.9793167-.2713871-.1158638.0655818-.2112284.1620636-.2754602.2786822-.0072966.0145903-1.0286255,1.8165073-3.0129232,1.8165073v1.4590425c1.254776,0,2.2177439-.4814835,2.9180841-1.0286245v.8170633c-.2918091.4231224-1.2693672,1.6706038-2.9180841,1.6706038v1.4590425c1.254776,0,2.2177439-.4814844,2.9180841-1.0286245v1.7581463h-6.2082233v.0291805c-.2553329,0-.5033703.1167231-.6346836.3428755l-3.2828445,5.8361664c-.1240187.2261524-.1240187.5033703,0,.7295208.1240187.2261524.372056.3647594.627388.3647594h13.1313791c.2626266,0,.4960747-.1386089.627388-.3647594s.1313152-.5033703,0-.7295208l-2.8232479-5.019105h.0145931ZM6.6817913,17.8325214l2.0353642-3.6184244,2.0353642,3.6184244h-4.0707283Z"/>
</svg>