<?xml version="1.0" encoding="UTF-8"?>
<svg id="Layer_1" xmlns="http://www.w3.org/2000/svg" version="1.1" viewBox="0 0 24 24">
  <!-- Generator: Adobe Illustrator 30.3.0, SVG Export Plug-In . SVG Version: 2.1.3 Build 182)  -->
  <defs>
    <style>
      .st0 {
        fill: #fdfaf5;
      }

      .st1 {
        fill: #1a1a1a;
      }
    </style>
  </defs>
  <g>
    <rect class="st1" x="1" y="1" width="22" height="22" rx="1.75" ry="1.75"/>
    <path class="st0" d="M21.25,2c.4142094,0,.75.3357906.75.75v18.5c0,.4142094-.3357906.75-.75.75H2.75c-.4142101,0-.75-.3357906-.75-.75V2.75c0-.4142094.3357899-.75.75-.75h18.5M21.25,0H2.75C1.23364,0,0,1.2336407,0,2.75v18.5c0,1.5163593,1.23364,2.75,2.75,2.75h18.5c1.5163593,0,2.75-1.2336407,2.75-2.75V2.75c0-1.5163593-1.2336407-2.75-2.75-2.75h0Z"/>
  </g>
  <path class="st0" d="M7.2581124,4.7011409c-1.410162,0-2.5533237,1.1431619-2.5533237,2.5533239s1.1431619,2.5533239,2.5533237,2.5533239,2.5533235-1.1431621,2.5533235-2.5533239-1.1431621-2.5533237-2.5533239-2.5533237M16.3771266,13.1854717v-2.9691508c.707635.5544359,1.6778984,1.0505107,2.9180844,1.0505107v-1.4590422c-1.5903565,0-2.611685-1.2474811-2.9180844-1.6778984v-.8316542c.707635.5544359,1.6778984,1.0505104,2.9180844,1.0505104v-1.4590422c-1.9113454,0-3.0056264-1.8092123-3.0202171-1.8238028-.1954895-.3453719-.6339435-.4668762-.9793164-.2713869-.1158641.0655818-.2112288.1620635-.2754604.2786821-.0072967.0145904-1.0286259,1.8165076-3.0129231,1.8165076v1.4590422c1.2547761,0,2.2177442-.4814837,2.9180844-1.0286245v.8170634c-.2918087.4231223-1.2693669,1.6706034-2.9180844,1.6706034v1.4590422c1.2547761,0,2.2177442-.481484,2.9180844-1.0286245v1.7581463h-6.2082235v.0291809c-.2553325,0-.5033699.1167235-.6346834.3428751l-3.2828448,5.8361669c-.1240185.2261516-.1240185.5033709,0,.7295211.1240187.2261516.3720558.3647599.6273882.3647599h13.1313796c.2626272,0,.4960755-.1386096.6273884-.3647599s.1313143-.5033709,0-.7295211l-2.8232471-5.0191051s.0145908,0,.0145908.0000007ZM6.6817911,17.8325209l2.0353639-3.6184247,2.0353636,3.6184247s-4.0707278,0-4.0707275,0Z"/>
</svg>