<?xml version="1.0" encoding="UTF-8"?>
<svg id="Layer_1" xmlns="http://www.w3.org/2000/svg" version="1.1" viewBox="0 0 25 25">
  <!-- Generator: Adobe Illustrator 30.3.0, SVG Export Plug-In . SVG Version: 2.1.3 Build 182)  -->
  <path d="M5.4618527,1.666667c-2.0930332,0-3.7897716,1.6967384-3.7897716,3.7897716s1.6967384,3.7897716,3.7897716,3.7897716,3.7897716-1.6967384,3.7897716-3.7897716-1.6967384-3.7897716-3.7897716-3.7897716M18.9967514,14.2595368v-4.4069627c1.0503074.8229221,2.4904205,1.5592199,4.3311676,1.5592199v-2.1655838c-2.3604867,0-3.8763949-1.8515742-4.3311676-2.4904216v-1.2343826c1.0503074.8229216,2.4904205,1.5592204,4.3311676,1.5592204v-2.1655838c-2.8369136,0-4.4611014-2.6853239-4.4827578-2.7069797-.2901548-.5126183-.9409311-.6929609-1.4535497-.402806-.1719702.0973399-.313517.2405426-.4088516.413634-.0108302.0216558-1.5267385,2.6961518-4.4719317,2.6961518v2.1655838c1.8624023,0,3.2916873-.7146425,4.3311676-1.5267364v1.2127268c-.4331163.6280192-1.8840576,2.4795934-4.3311676,2.4795934v2.1655838c1.8624023,0,3.2916873-.7146425,4.3311676-1.5267364v2.6095283H7.6274365v.0433116c-.3789771,0-.7471265.1732465-.9420288.5089125L1.8128441,21.7091452c-.1840746.3356649-.1840746.747127,0,1.0827919.1840747.3356649.5522239.5413959.9312012.5413959h19.4902536c.3898057,0,.7362988-.205731.9312017-.5413959s.1949029-.747127,0-1.0827919l-4.1904055-7.4496083h.0216563ZM4.6064471,21.1569211l3.0209893-5.3706478,3.0209893,5.3706478h-6.0419787Z"/>
</svg>