<?xml version="1.0" encoding="UTF-8"?>
<svg id="Layer_1" xmlns="http://www.w3.org/2000/svg" version="1.1" viewBox="0 0 24 24">
  <!-- Generator: Adobe Illustrator 30.3.0, SVG Export Plug-In . SVG Version: 2.1.3 Build 182)  -->
  <defs>
    <style>
      .st0 {
        fill: #fdfaf5;
      }

      .st1 {
        fill: #1a1a1a;
      }
    </style>
  </defs>
  <g>
    <rect class="st1" x="1" y="1" width="22" height="22" rx="1.75" ry="1.75"/>
    <path class="st0" d="M21.25,2c.4142094,0,.75.3357906.75.75v18.5c0,.4142094-.3357906.75-.75.75H2.75c-.4142101,0-.75-.3357906-.75-.75V2.75c0-.4142094.3357899-.75.75-.75h18.5M21.25,0H2.75C1.23364,0,0,1.2336407,0,2.75v18.5c0,1.5163593,1.23364,2.75,2.75,2.75h18.5c1.5163593,0,2.75-1.2336407,2.75-2.75V2.75c0-1.5163593-1.2336407-2.75-2.75-2.75h0Z"/>
  </g>
  <g>
    <polygon class="st0" points="5.7247433 10.8602948 8.1267115 10.0680453 8.5028459 8.348574 10.5825557 7.1741704 11.3148983 6.0559451 14.6105522 6.9873256 15.774777 8.9575536 17.7091831 9.8710229 20.1003226 13.390566 20.1003226 17.9440549 3.8996774 17.9440549 3.8996774 12.4953075 5.7247433 10.8602948"/>
    <polygon class="st1" points="8.4222457 18.2417094 8.1267115 15.9827826 9.2893263 13.7950525 10.8133855 12.7856399 11.6193881 11.4423034 13.9030608 12.4363726 14.4941298 13.4304419 15.5150659 13.9409103 16.1662982 16.4237363 15.4075985 18.2417094 8.4222457 18.2417094"/>
  </g>
</svg>