<?xml version="1.0" encoding="UTF-8"?>
<svg id="Layer_1" xmlns="http://www.w3.org/2000/svg" version="1.1" viewBox="0 0 25 25">
  <!-- Generator: Adobe Illustrator 30.3.0, SVG Export Plug-In . SVG Version: 2.1.3 Build 182)  -->
  <path d="M3.3333335,5.0000005c0-1.8333335,1.5000005-3.3333335,3.3333335-3.3333335h11.666667c1.833334,0,3.333334,1.5,3.333334,3.3333335v13.3333335c0,1.666666-1.666666,1.666666-1.666666,1.666666v1.666666c0,.916666-.75,1.666666-1.666666,1.666666s-1.666666-.75-1.666666-1.666666v-1.666666h-8.333334v1.666666c0,.916666-.7499995,1.666666-1.666667,1.666666s-1.666667-.75-1.666667-1.666666v-1.666666c-1.6666667,0-1.6666667-1.666666-1.6666667-1.666666,0,0,0-13.3333335-.0000017-13.3333335ZM5.8333335,6.666667c-.4666667,0-.8333335.3666663-.8333335.8333335v5.0000005c0,.4666672.3666668.833333.8333335.833333h13.3333344c.4666653,0,.833334-.3666658.833334-.833333v-5.0000005c0-.4666672-.3666668-.8333335-.833334-.8333335H5.8333335ZM6.666667,15.000001c-.9166665,0-1.666667.75-1.666667,1.666667,0,.9166679.75,1.666666,1.666667,1.666666s1.666667-.75,1.666667-1.666666-.7499995-1.666667-1.666667-1.666667M18.333334,15.000001c-.916666,0-1.666666.75-1.666666,1.666667,0,.9166679.75,1.666666,1.666666,1.666666s1.666666-.75,1.666666-1.666666-.75-1.666667-1.666666-1.666667M6.666667,4.166667c0,.4666667.3666663.8333335.8333335.8333335h10.0000014c.4666653,0,.833334-.3666668.833334-.8333335s-.3666668-.8333335-.833334-.8333335H7.5000005c-.4666672,0-.8333335.3666668-.8333335.8333335"/>
</svg>