<?xml version="1.0" encoding="UTF-8"?>
<svg id="Layer_1" xmlns="http://www.w3.org/2000/svg" version="1.1" viewBox="0 0 24 24">
  <!-- Generator: Adobe Illustrator 30.3.0, SVG Export Plug-In . SVG Version: 2.1.3 Build 182)  -->
  <defs>
    <style>
      .st0 {
        fill: #fdfaf5;
      }

      .st1 {
        fill: #1a1a1a;
      }
    </style>
  </defs>
  <g>
    <rect class="st1" x="1" y="1" width="22" height="22" rx="1.75" ry="1.75"/>
    <path class="st0" d="M21.25,2c.4142094,0,.75.3357906.75.75v18.5c0,.4142094-.3357906.75-.75.75H2.75c-.4142101,0-.75-.3357906-.75-.75V2.75c0-.4142094.3357899-.75.75-.75h18.5M21.25,0H2.75C1.23364,0,0,1.2336407,0,2.75v18.5c0,1.5163593,1.23364,2.75,2.75,2.75h18.5c1.5163593,0,2.75-1.2336407,2.75-2.75V2.75c0-1.5163593-1.2336407-2.75-2.75-2.75h0Z"/>
  </g>
  <g>
    <path class="st0" d="M11.6544261,13.4238677l.3285752-.2603804.3285752.2603804c.056829.0452049,1.046085.8472694,1.5648653,2.0145036.751435-.6342466,1.6631981-.995886,2.2465568-1.1724865.2442788-.9937334.4424916-2.0598807.512753-3.1020048.2258524-3.3495556.687287-4.5822293-3.721097-5.3043887-.6841012-.1121082-.9471508-1.2094254-.9471508-1.2094254,0,0-.2631357,1.0973172-.9471508,1.2094254-3.7676796.617284-3.9604679,1.7551565-3.7211831,5.3043887.0700031,1.0384217.2670965,2.1006082.5101698,3.0913279.5810339.1731564,1.5150968.537465,2.2802224,1.1831635.5187803-1.1672342,1.5080362-1.9692986,1.5648639-2.0145036Z"/>
    <path class="st0" d="M7.5503364,15.2782166c-.1129693.5731123-.194252,1.5664151.3354636,2.3558223.8975545,1.3349659,2.080977,1.8819025,2.5073671,1.672496.0037886-.0019804.0145517-.0122269.0199763-.0151544-.3956507-.6293386-.6371741-1.5022672-.6371741-2.4811906,0-.0549347.0151544-.1055643.0181681-.1597241-.5657073-.7149266-1.5681372-1.1638761-2.2438008-1.3722492Z"/>
    <path class="st0" d="M13.5528606,19.2914666c.0054246.0029276.0161016.0130879.0199763.0150683.4339673.2080287,1.6118797-.3402854,2.5073677-1.672496.5304044-.7880294.447744-1.7799546.3361524-2.3530669-.6127204.1869331-1.6490756.6139259-2.244489,1.3700105.0030137.0539876.0181681.1044449.0181681.1592074,0,.9789234-.2415234,1.8519381-.6371755,2.4812767Z"/>
    <path class="st0" d="M13.1319812,16.8101899c0-.9423289-.7150127-1.8102634-1.1503577-2.2524967-.4353449.439478-1.1476023,1.3032794-1.1476023,2.2524967,0,1.3969613.6068653,2.441238,1.14898,2.441238s1.14898-1.0442768,1.14898-2.441238Z"/>
  </g>
</svg>