<?xml version="1.0" encoding="UTF-8"?>
<svg id="Layer_1" xmlns="http://www.w3.org/2000/svg" version="1.1" viewBox="0 0 12 12">
  <!-- Generator: Adobe Illustrator 30.3.0, SVG Export Plug-In . SVG Version: 2.1.3 Build 182)  -->
  <defs>
    <style>
      .st0 {
        fill: #cf9a32;
      }

      .st0, .st1 {
        fill-rule: evenodd;
      }

      .st2 {
        fill: #c5cbe2;
      }

      .st1 {
        fill: #e7bc36;
      }
    </style>
  </defs>
  <path class="st2" d="M9.6647958,5.1965864c.1778436-2.3743035.1204536-3.248082-3.0043872-3.7600097-.4849095-.0794404-.6714033-.3464184-.6714033-.3464184,0,0-.1864938.266978-.6714033.3464184-2.6707192.4375311-3.1928328,1.244163-3.0043872,3.7600097.1924666,2.5695288,1.7956434,5.3662439,1.7956434,5.3662439h3.760294s1.6031768-2.7967151,1.7956434-5.3662439Z"/>
  <path class="st1" d="M4.8683438,8.9602263c.8684234.5013845,1.3750831,1.2496337,1.1316562,1.6712614s-1.1447596.3569721-2.0131829-.1444124-1.1316562-1.6712614-1.1316562-1.6712614c0,0,1.1447596-.3569721,2.0131829.1444124Z"/>
  <path class="st1" d="M8.0131829,10.4870753c-.8684234.5013845-1.7697561.5660401-2.0131829.1444124s.2632329-1.1698769,1.1316562-1.6712614,2.0131829-.1444124,2.0131829-.1444124c0,0-.2632329,1.1698769-1.1316562,1.6712614Z"/>
  <path class="st0" d="M5.8555876,8.6183047c.5013845.8684234.5660401,1.7697561.1444124,2.0131829s-1.1698769-.2632329-1.6712614-1.1316562-.1444124-2.0131829-.1444124-2.0131829c0,0,1.1698769.2632329,1.6712614,1.1316562Z"/>
  <path class="st0" d="M7.6712614,9.4998314c-.5013845.8684234-1.2496337,1.3750831-1.6712614,1.1316562s-.3569721-1.1447596.1444124-2.0131829,1.6712614-1.1316562,1.6712614-1.1316562c0,0,.3569721,1.1447596-.1444124,2.0131829Z"/>
  <path class="st1" d="M6.8815267,8.8158139c0,1.0027689-.3946729,1.8156737-.8815267,1.8156737s-.8815267-.8129048-.8815267-1.8156737.8815267-1.8156737.8815267-1.8156737c0,0,.8815267.8129048.8815267,1.8156737Z"/>
</svg>