<?xml version="1.0" encoding="UTF-8"?>
<svg id="Layer_1" xmlns="http://www.w3.org/2000/svg" version="1.1" viewBox="0 0 12 12">
  <!-- Generator: Adobe Illustrator 30.3.0, SVG Export Plug-In . SVG Version: 2.1.3 Build 182)  -->
  <defs>
    <style>
      .st0 {
        fill-rule: evenodd;
        stroke: #fff;
        stroke-miterlimit: 10;
        stroke-width: .75px;
      }

      .st0, .st1 {
        fill: #1a1a1a;
      }
    </style>
  </defs>
  <g>
    <path class="st1" d="M5.7550408,7.0093068l.2329102-.1845703.2329102.1845703c.0402832.0320435.7415161.6005859,1.1092529,1.4279785.5326538-.449585,1.1789551-.7059326,1.5924683-.8311157.1731567-.7044067.3136597-1.460144.3634644-2.1988525.1600952-2.3743286.4871826-3.2481079-2.6376953-3.7600098-.4849243-.0794678-.6713867-.8572998-.6713867-.8572998,0,0-.1865234.777832-.6713867.8572998-2.6707153.437561-2.807373,1.2441406-2.6377563,3.7600098.0496216.736084.1893311,1.4890137.3616333,2.1912842.4118652.1227417,1.0739746.3809814,1.616333.8386841.3677368-.8273926,1.0689697-1.3959351,1.1092529-1.4279785Z"/>
    <path class="st1" d="M2.8458611,8.32376c-.0800781.40625-.1376953,1.1103516.237793,1.6699219.6362305.9462891,1.4750977,1.3339844,1.7773438,1.1855469.0026855-.0014038.0103149-.008667.0141602-.0107422-.2804565-.446106-.4516602-1.0648804-.4516602-1.7587891,0-.0389404.0107422-.0748291.0128784-.1132202-.401001-.5067749-1.1115723-.8250122-1.5905151-.9727173Z"/>
    <path class="st1" d="M7.1007439,11.1685476c.0038452.0020752.0114136.0092773.0141602.0106812.3076172.1474609,1.1425781-.2412109,1.7773438-1.1855469.3759766-.5585938.3173828-1.2617188.2382812-1.6679688-.4343262.1325073-1.1689453.4351807-1.5910034.9711304.0021362.038269.0128784.0740356.0128784.112854,0,.6939087-.1712036,1.3127441-.4516602,1.7588501Z"/>
    <path class="st1" d="M6.8024041,9.4096975c0-.6679688-.5068359-1.2832031-.8154297-1.5966797-.3085938.3115234-.8134766.9238281-.8134766,1.5966797,0,.9902344.4301758,1.7304688.8144531,1.7304688s.8144531-.7402344.8144531-1.7304688Z"/>
  </g>
  <g>
    <path class="st1" d="M21.0756066,5.2192993c.1601025-2.3743035.4871379-3.248082-2.6377029-3.7600097-.4849095-.0794404-.6714033-.8573267-.6714033-.8573267,0,0-.1864938.7778864-.6714033.8573267-2.6707192.4375311-2.8073499,1.244163-2.6377029,3.7600097.1732668,2.5695288,1.4289592,5.3662439,1.4289592,5.3662439h3.760294s1.2556924-2.7967151,1.4289592-5.3662439Z"/>
    <g>
      <path class="st0" d="M16.6222989,8.9924196c.6765807,1.0071778.7638286,2.0525232.1948736,2.3348442s-1.578661-.3052916-2.2552417-1.3124694-.1948736-2.3348442-.1948736-2.3348442c0,0,1.578661.3052916,2.2552417,1.3124694Z"/>
      <path class="st0" d="M20.9930592,10.0147944c-.6765807,1.0071778-1.6862868,1.5947904-2.2552417,1.3124694s-.481707-1.3276664.1948736-2.3348442,2.2552417-1.3124694,2.2552417-1.3124694c0,0,.481707,1.3276664-.1948736,2.3348442Z"/>
      <path class="st0" d="M18.9670491,9.2214863c0,1.1629888-.5325815,2.1057775-1.1895541,2.1057775s-1.1895541-.9427887-1.1895541-2.1057775,1.1895541-2.1057775,1.1895541-2.1057775c0,0,1.1895541.9427887,1.1895541,2.1057775Z"/>
    </g>
  </g>
</svg>