<?xml version="1.0" encoding="UTF-8"?>
<svg id="Layer_1" xmlns="http://www.w3.org/2000/svg" version="1.1" viewBox="0 0 12 12">
  <!-- Generator: Adobe Illustrator 30.3.0, SVG Export Plug-In . SVG Version: 2.1.3 Build 182)  -->
  <defs>
    <style>
      .st0 {
        fill-rule: evenodd;
        stroke: #fff;
        stroke-miterlimit: 10;
        stroke-width: .3px;
      }

      .st0, .st1 {
        fill: #1a1a1a;
      }
    </style>
  </defs>
  <path class="st1" d="M9.6647958,4.8378175c.1778436-2.3743035.1204536-3.248082-3.0043872-3.7600097-.4849095-.0794404-.6714033-.3464184-.6714033-.3464184,0,0-.1864938.266978-.6714033.3464184-2.6707192.4375311-3.1928328,1.244163-3.0043872,3.7600097.1924666,2.5695288,1.7956434,5.3662439,1.7956434,5.3662439h3.760294s1.6031768-2.7967151,1.7956434-5.3662439Z"/>
  <g>
    <path class="st0" d="M4.4729149,9.0074906c1.1718721.5814944,1.8555714,1.449297,1.5270851,1.9382913s-1.5447671.4140082-2.7166392-.1674862-1.5270851-1.9382913-1.5270851-1.9382913c0,0,1.5447671-.4140082,2.7166392.1674862Z"/>
    <path class="st0" d="M8.7166392,10.7782957c-1.1718721.5814944-2.3881529.6564805-2.7166392.1674862s.355213-1.3567969,1.5270851-1.9382913,2.7166392-.1674862,2.7166392-.1674862c0,0-.355213,1.3567969-1.5270851,1.9382913Z"/>
    <path class="st0" d="M5.8051264,8.6109377c.6765807,1.0071778.7638286,2.0525232.1948736,2.3348442s-1.578661-.3052916-2.2552417-1.3124694-.1948736-2.3348442-.1948736-2.3348442c0,0,1.578661.3052916,2.2552417,1.3124694Z"/>
    <path class="st0" d="M8.2552417,9.6333125c-.6765807,1.0071778-1.6862868,1.5947904-2.2552417,1.3124694s-.481707-1.3276664.1948736-2.3348442,2.2552417-1.3124694,2.2552417-1.3124694c0,0,.481707,1.3276664-.1948736,2.3348442Z"/>
    <path class="st0" d="M7.1895541,8.8400044c0,1.1629888-.5325815,2.1057775-1.1895541,2.1057775s-1.1895541-.9427887-1.1895541-2.1057775,1.1895541-2.1057775,1.1895541-2.1057775c0,0,1.1895541.9427887,1.1895541,2.1057775Z"/>
  </g>
</svg>