<?xml version="1.0" encoding="UTF-8"?>
<svg id="Layer_1" xmlns="http://www.w3.org/2000/svg" version="1.1" viewBox="0 0 12 12">
  <!-- Generator: Adobe Illustrator 30.3.0, SVG Export Plug-In . SVG Version: 2.1.3 Build 182)  -->
  <path d="M5.7550402,7.0093069l.2329102-.1845703.2329102.1845703c.0402832.0320435.7415161.6005859,1.1092529,1.4279785.5326538-.449585,1.178956-.7059326,1.5924692-.8311157.1731567-.7044067.3136597-1.460144.3634644-2.1988525.1600952-2.3743286.4871826-3.2481079-2.6376953-3.7600098-.4849243-.0794678-.6713867-.8572998-.6713867-.8572998,0,0-.1865234.777832-.6713867.8572998-2.6707153.437561-2.807373,1.2441406-2.6377563,3.7600098.0496216.736084.1893311,1.4890137.3616333,2.1912842.4118652.1227417,1.0739746.3809814,1.616333.8386841.3677368-.8273926,1.0689697-1.3959351,1.109252-1.4279785Z"/>
  <path d="M2.845861,8.32376c-.0800781.40625-.1376953,1.1103516.237793,1.6699219.6362305.9462891,1.4750981,1.3339844,1.7773442,1.1855469.0026855-.0014038.0103149-.008667.0141602-.0107422-.2804565-.446106-.4516602-1.0648804-.4516602-1.7587891,0-.0389404.0107422-.0748291.0128784-.1132202-.401001-.5067749-1.1115723-.8250122-1.5905156-.9727173Z"/>
  <path d="M7.1007433,11.1685476c.0038452.0020752.0114136.0092773.0141602.0106812.3076172.1474609,1.1425791-.2412109,1.7773447-1.1855469.3759766-.5585938.3173828-1.2617188.2382812-1.6679688-.4343262.1325073-1.1689453.4351807-1.5910034.9711304.0021362.038269.0128784.0740356.0128784.112854,0,.6939087-.1712036,1.3127441-.4516611,1.7588501Z"/>
  <path d="M6.8024035,9.4096975c0-.6679688-.5068359-1.2832031-.8154297-1.5966797-.3085938.3115234-.8134766.9238281-.8134766,1.5966797,0,.9902344.4301758,1.7304688.8144531,1.7304688s.8144531-.7402344.8144531-1.7304688Z"/>
</svg>