<?xml version="1.0" encoding="UTF-8"?>
<svg id="Layer_1" xmlns="http://www.w3.org/2000/svg" version="1.1" viewBox="0 0 12 12">
  <!-- Generator: Adobe Illustrator 30.3.0, SVG Export Plug-In . SVG Version: 2.1.3 Build 182)  -->
  <defs>
    <style>
      .st0 {
        fill: #1a1a1a;
      }
    </style>
  </defs>
  <path class="st0" d="M3.4526367,7.1269531l.1254883.0244141c.0440674.0083618.7434082.1538086,1.4175415.5471802.3577881-.6303711.8778076-1.0552979.9110718-1.0818481l.0932617-.0737305.0932617.0737305c.0332642.0265503.5533447.451416.9112549,1.081665.6738892-.3932495,1.3729858-.5386353,1.4173584-.5469971l.1259766-.0244141.0429688.1210938c.012207.0322266.1669922.4890137.171814,1.0679321.4037476-.9974976.8110352-2.2615356.9021606-3.4781494.1778564-2.3743286.1204834-3.2481079-3.0043945-3.7600098-.4849243-.0794678-.6713867-.3464355-.6713867-.3464355,0,0-.1865234.2669678-.6713867.3464355-2.6707153.4375-3.1928711,1.2441406-3.0043945,3.7600098.0927734,1.2383423.5131226,2.5264893.9238281,3.5318604-.0053101-.6048584.1596069-1.0884399.1716309-1.1216431l.0439453-.1210938Z"/>
  <path class="st0" d="M3.3496094,10.6435547c.7921143.392334,1.5241089.5211182,2.0064087.4578247-.5756226-.1451416-1.2344971-.6378784-1.7359009-1.383606-.1845093-.2751465-.286438-.5695801-.3394165-.8565674-.5663452-.0402832-1.0831909.0390015-1.3309937.0889893.1279297.3564453.527832,1.2617188,1.3999023,1.6933594Z"/>
  <path class="st0" d="M10.0507812,8.9501953c-.2011719-.0410156-.5800781-.1025391-1.0185547-.1025391-.1010742,0-.2062988.0048218-.3125.0124512-.0529785.2872925-.1549683.5821533-.3398438.857666-.5018311.7469482-1.1619263,1.2400513-1.7382812,1.3841553.4821777.0643921,1.215332-.064209,2.0087891-.458374.8720703-.4326172,1.2724609-1.3369141,1.4003906-1.6933594Z"/>
  <path class="st0" d="M3.8691406,9.5498047c.4247437.6323242.9952393,1.0950928,1.473938,1.2531128-.4083862-.3822021-.6824341-1.1054077-.6824341-1.9630737,0-.3132324.0797119-.6083374.1974487-.8761597-.4752808-.2791748-.9747925-.428772-1.2057495-.4871216-.09375.34375-.2915039,1.3164062.2167969,2.0732422Z"/>
  <path class="st0" d="M7.1424561,7.9639893c.1176758.2677612.1973877.5627441.1973877.8758545,0,.8552246-.272644,1.5766602-.6792603,1.9598389.477417-.1599731,1.0473022-.6201782,1.4692993-1.2498779.5107422-.7587891.3125-1.7304688.2177734-2.0732422-.230835.0582886-.7301636.2084961-1.2052002.4874268Z"/>
  <path class="st0" d="M4.9604492,8.8398438c0,1.0595703.4760742,1.9550781,1.0395508,1.9550781s1.0390625-.8955078,1.0390625-1.9550781c0-.8896484-.7680664-1.6621094-1.0390625-1.9072266-.2709961.2451172-1.0395508,1.0175781-1.0395508,1.9072266Z"/>
</svg>