<?xml version="1.0" encoding="UTF-8"?>
<svg id="Layer_1" xmlns="http://www.w3.org/2000/svg" version="1.1" viewBox="0 0 24 24">
  <!-- Generator: Adobe Illustrator 30.3.0, SVG Export Plug-In . SVG Version: 2.1.3 Build 182)  -->
  <defs>
    <style>
      .st0 {
        fill: #fdfaf5;
      }

      .st1 {
        fill: #8c6c30;
      }
    </style>
  </defs>
  <rect class="st1" x="1" y="1" width="22" height="22" rx="6" ry="6"/>
  <g>
    <path class="st0" d="M11.6544266,13.4238672l.3285751-.2603807.3285751.2603807c.0568295.0452051,1.0460854.8472691,1.5648651,2.0145035.7514353-.6342468,1.6631985-.9958858,2.2465572-1.1724863.244278-.9937334.4424915-2.0598812.5127525-3.102005.225853-3.3495555.6872864-4.5822291-3.721097-5.3043885-.6841011-.1121082-.9471512-1.2094254-.9471512-1.2094254,0,0-.2631359,1.0973172-.9471512,1.2094254-3.7676797.6172838-3.9604678,1.7551565-3.7211828,5.3043885.070003,1.0384216.2670965,2.1006079.51017,3.0913277.5810337.1731567,1.5150967.5374651,2.2802219,1.1831636.5187807-1.1672344,1.5080366-1.9692984,1.5648651-2.0145035Z"/>
    <path class="st0" d="M7.5503364,15.2782164c-.1129694.5731125-.194252,1.5664148.3354635,2.3558226.8975549,1.3349667,2.080977,1.8819027,2.5073676,1.6724968.0037889-.0019798.0145521-.0122261.0199766-.0151539-.3956509-.6293392-.6371737-1.5022678-.6371737-2.4811897,0-.0549355.0151548-.1055641.0181684-.1597233-.5657072-.7149267-1.5681372-1.1638756-2.2438025-1.3722525Z"/>
    <path class="st0" d="M13.5528603,19.2914658c.0054245.0029278.0161018.0130882.0199766.0150681.4339676.2080288,1.6118793-.3402863,2.5073671-1.6724968.530405-.7880287.4477444-1.7799549.336153-2.3530674-.6127205.1869335-1.6490755.6139259-2.2444887,1.3700104.0030136.0539875.0181684.1044445.0181684.1592083,0,.9789238-.2415237,1.8519382-.6371765,2.4812775Z"/>
    <path class="st0" d="M13.1319809,16.8101902c0-.9423285-.7150126-1.8102636-1.1503582-2.2524967-.4353447.4394779-1.1476021,1.3032799-1.1476021,2.2524967,0,1.3969612.6068649,2.4412384,1.1489801,2.4412384s1.1489801-1.0442772,1.1489801-2.4412384Z"/>
  </g>
</svg>