<?xml version="1.0" encoding="UTF-8"?>
<svg id="Layer_1" xmlns="http://www.w3.org/2000/svg" version="1.1" viewBox="0 0 18 18">
  <!-- Generator: Adobe Illustrator 30.3.0, SVG Export Plug-In . SVG Version: 2.1.3 Build 182)  -->
  <defs>
    <style>
      .st0 {
        fill: #db5426;
      }

      .st1 {
        fill: #938874;
      }
    </style>
  </defs>
  <path id="path9" class="st0" d="M4.3,10.9c.1-.2,0-.2-.1-.2-1.7,0-3.2,1-4.1,1.9,0,0,0,.1,0,0,1.1-.8,2-.9,3.4-1.1.4,0,.7-.4.9-.6"/>
  <path id="path11" class="st0" d="M4.8,9.3c.1-.2,0-.2-.2-.2-1.7,0-3.2,1.2-4.1,2.2,0,0,0,.1,0,0,1-.9,2-1.1,3.3-1.4.4,0,.8-.4.9-.6"/>
  <path id="path13" class="st0" d="M5.1,7.7c.1-.2,0-.2-.2-.2-1.7.1-3.2,1.3-4.1,2.3,0,0,0,.1,0,0,1-.8,1.9-1.2,3.3-1.5.4,0,.8-.4.9-.7"/>
  <path id="path15" class="st0" d="M3.6,6.5c0-.3-.2-.2-.4-.1-.6.4-1,.9-1.9,1.9,0,0,0,.1,0,0,.8-.6,1.3-.8,1.7-1,.3-.2.5-.6.6-.8"/>
  <path id="path17" class="st1" d="M10.4,12.8c-1-.5-2.1-1-3.3-1.3,0,0,0,0,0,0,.7,0,2.5.3,4,.7,1.7.5,3.3,1.4,3.8,1.5,0,0,0,0,0,0-1.4.4-3.2-.3-4.6-.9"/>
  <path id="path19" class="st1" d="M11.1,11.1c-1.1-.4-2.4-.9-3.5-1.1,0,0,0,0,0,0,.7,0,2.9.2,4.3.5,1.8.4,3.4,1.3,4,1.3,0,0,0,0,0,0-1.4.5-3.4-.2-4.8-.7"/>
  <path id="path21" class="st1" d="M11.8,9.4c-1.1-.3-2.7-.8-3.8-.9,0,0,0,0,0,0,.7-.1,3,0,4.4.2,1.8.3,3.7,1.2,4.3,1.2,0,0,0,0,0,0-1.3.6-3.5,0-4.9-.5"/>
  <path id="path23" class="st1" d="M13.6,7.8c-1.1-.3-2.4-.6-4.2-.7,0,0,0,0,0,0,1.3-.2,3-.2,4.5,0,1.8.3,3.5.8,4.1.8,0,0,0,0,0,0-1.1.7-2.9.3-4.3-.1"/>
  <path id="path25" class="st0" d="M4,6s0,0,0,0c.7-.5,4.8-3.4,10.1-.6,0,0,0,0,0,0-2.8-.6-7.4-.8-10,.6"/>
</svg>