<?xml version="1.0" encoding="UTF-8"?>
<svg id="Layer_1" xmlns="http://www.w3.org/2000/svg" version="1.1" viewBox="0 0 12 12">
  <!-- Generator: Adobe Illustrator 30.3.0, SVG Export Plug-In . SVG Version: 2.1.3 Build 182)  -->
  <defs>
    <style>
      .st0 {
        fill-rule: evenodd;
      }
    </style>
  </defs>
  <path d="M5.9996832,4.1303133c.2549281,0,.4615878-.2066597.4615878-.4615878s-.2066597-.4615878-.4615878-.4615878-.4615878.2066599-.4615878.4615878c0,.2549281.2066597.4615878.4615878.4615878"/>
  <path class="st0" d="M6.3837241,1.523727l1.1613547.7740825c.1800192.1200128.2935693.3171107.3069562.5331338l.1112421,1.7757285c.2466248.0645351.3942361.3167793.3297015.5634036-.0370807.1417062-.1392187.2574014-.2752341.3117668l.2621823,4.1875246h.9508704c.2549277,0,.4615878.2066602.4615878.4615878s-.2066602.4615878-.4615878.4615878H2.7685684c-.2549279,0-.4615878-.2066602-.4615878-.4615878s.2066599-.4615878.4615878-.4615878h.9508708l.2621819-4.1875241c-.236719-.0946165-.3519161-.3632172-.2572996-.5999359.0543649-.1360153.1700608-.2381538.311767-.2752341l.1107811-1.7757282c.0135233-.2159889.1272578-.4132317.3074171-.5331338l1.1613547-.7740827c.23256-.1550264.5355217-.1550264.7680817,0M7.0950302,5.5150763h-2.1906958l-.2598738,4.1542896h2.7099815s-.2594119-4.15429-.2594119-4.1542896ZM2.442226,4.2655582c.1805674-.1799542.4728282-.1794576.6527829.0011096.1637627.1643207.1801204.4246596.0382139.6081857l-.0383118.0433891-.4615878.4615878c-.1805672.1799547-.472828.179458-.6527829-.0011087-.1637632-.1643207-.1801212-.42466-.0382141-.6081866l.0383118-.0433891s.4615878-.4615878.4615881-.4615878ZM8.9044547,4.2655582c.1644489-.1644337.4255444-.180851.6092953-.0383121l.0433896.0383121.4615878.4615878c.1799542.1805676.1794571.4728282-.0011105.6527824-.1643207.1637627-.4246591.1801204-.6081857.0382141l-.0433896-.0383121-.4615878-.4615878c-.1801959-.1802499-.1801959-.4724355,0-.6526854M5.9996832,2.3772029l-.9384077.6254514-.0992413,1.5892467h2.0752982l-.0992413-1.5892465s-.9384077-.6254514-.9384077-.6254517ZM2.6333233,2.4187459l.4615878.4615878c.1803614.1802339.1804649.4725542.0002309.6529161-.1802341.1803614-.4725545.1804646-.6529161.0002307l-.4615878-.4615878c-.1771017-.1833664-.172023-.4755835.0113434-.6526852.1788762-.1727648.4624658-.1727648.6413418,0v-.0004617ZM10.0187283,2.4187459c.1803616.1801609.1805246.472422.0003625.6527834-.0001208.0001213-.0002417.0002422-.0003625.0003632l-.4615878.4615878c-.1770996.183368-.4693167.1884494-.6526849.0113496s-.1884494-.4693172-.0113498-.6526852c.003717-.0038486.0075009-.0076325.0113498-.0113496l.4615878-.4615878c.1802499-.1801955.472435-.1801955.6526849,0,0,0,0-.0004617,0-.0004614Z"/>
</svg>