<?xml version="1.0" encoding="UTF-8"?>
<svg id="Layer_1" xmlns="http://www.w3.org/2000/svg" version="1.1" viewBox="0 0 12 12">
  <!-- Generator: Adobe Illustrator 30.3.0, SVG Export Plug-In . SVG Version: 2.1.3 Build 182)  -->
  <defs>
    <style>
      .st0 {
        fill: none;
      }

      .st1 {
        fill-rule: evenodd;
      }

      .st1, .st2 {
        fill: #1a1a1a;
      }
    </style>
  </defs>
  <path class="st0" d="M0,0h12v12H0V0Z"/>
  <g>
    <path class="st2" d="M5.9996565,3.9747226c.2761426,0,.5-.2238576.5-.5s-.2238574-.5-.5-.5-.5.2238576-.5.5.2238574.5.5.5"/>
    <path class="st1" d="M6.4156564,1.1512225l1.2579999.8384999c.1950002.1300001.3179998.3434999.3325005.5774999l.1204996,1.9235001c.267148.0699053.4270439.3431411.3571386.6102886-.0401669.1534986-.1508045.2788219-.2981386.3377113l.2840004,4.5360003h1.0299997c.2761421,0,.5.2238579.5.5s-.2238579.5-.5.5H2.4996565c-.2761424,0-.5-.2238579-.5-.5s.2238576-.5.5-.5h1.03l.2839999-4.5359998c-.2564182-.1024904-.3812017-.3934431-.2787113-.6498613.0588892-.1473341.1842127-.2579722.3377113-.2981386l.1199999-1.9235001c.0146482-.233963.1378477-.4476199.3329999-.5774999l1.2579999-.8385c.2519131-.1679273.5800867-.1679273.8319998,0M7.1861565,5.4747226h-2.3730001l-.2814999,4.5h2.9354997l-.2809997-4.5ZM2.1461566,4.1212227c.1955938-.1949298.5121758-.1943915.7071059.0012021.1773906.1779952.1951096.4599986.041394.6587977l-.0415001.0469999-.5.5c-.1955936.1949301-.5121757.1943922-.7071058-.0012012-.1773913-.1779952-.1951104-.4599991-.0413942-.6587987l.0415-.0469999.5000002-.5ZM9.1461561,4.1212227c.178134-.1781175.4609575-.1959012.6599998-.0415001l.0469999.0415001.5.5c.1949301.1955938.1943913.512176-.0012026.7071056-.1779947.1773906-.4599981.1951098-.6587973.0413942l-.0469999-.0415001-.5-.5c-.1951914-.19525-.1951914-.5117502,0-.7070003M5.9996565,2.0757226l-1.0165.6775-.1075001,1.7214999h2.2479997l-.1075001-1.7214999-1.0164995-.6775ZM2.3531564,2.1207227l.5.5c.1953707.1952326.1954827.5118792.0002501.7072501-.1952329.1953707-.5118794.1954825-.7072501.0002499l-.5-.5c-.1918397-.1986258-.1863384-.5151603.0122873-.707.1937617-.1871419.5009512-.1871419.6947128,0v-.0005ZM10.3531568,2.1207227c.1953707.1951535.1955471.5117359.0003929.7071066-.0001307.0001314-.0002613.0002623-.0003929.0003934l-.5.5c-.1918373.1986275-.5083723.2041316-.7069998.0122941-.1986275-.1918378-.2041321-.5083725-.0122938-.707.0040264-.004169.0081253-.0082676.0122938-.0122941l.5-.5c.1952496-.1951908.5117502-.1951908.7069998,0v-.0005Z"/>
  </g>
</svg>