<?xml version="1.0" encoding="UTF-8"?>
<svg id="Layer_1" xmlns="http://www.w3.org/2000/svg" version="1.1" viewBox="0 0 25 25">
  <!-- Generator: Adobe Illustrator 30.3.0, SVG Export Plug-In . SVG Version: 2.1.3 Build 182)  -->
  <defs>
    <style>
      .st0 {
        fill-rule: evenodd;
      }
    </style>
  </defs>
  <path d="M12.4993396,8.6048192c.5311002,0,.9616412-.4305414.9616412-.9616412s-.430541-.9616412-.9616412-.9616412-.9616412.4305414-.9616412.9616412.430541.9616412.9616412.9616412"/>
  <path class="st0" d="M13.2994249,3.1744313l2.419489,1.612672c.3750404.2500267.6116035.6606475.6394923,1.1106955l.2317548,3.6994341c.5138011.1344476.821326.6599572.6868784,1.1737573-.0772522.2952212-.2900397.5362533-.5734047.6495142l.5462129,8.7240091h1.9809803c.5310993,0,.9616412.4305419.9616412.9616412s-.4305419.9616412-.9616412.9616412H5.767851c-.5310997,0-.9616412-.4305419-.9616412-.9616412s.4305414-.9616412.9616412-.9616412h1.9809807l.546212-8.7240082c-.4931646-.197118-.7331586-.7567022-.5360406-1.2498668.1132605-.2833651.354293-.4961535.6495142-.5734047l.2307937-3.6994337c.0281731-.4499769.2651204-.8608995.6404524-1.1106953l2.419489-1.6126723c.4845-.3229715,1.1156705-.3229715,1.6001705,0M14.7813133,11.4897423h-4.5639492l-.5414037,8.6547695h5.6457946s-.5404417-8.6547705-.5404417-8.6547695ZM5.0879709,8.8865799c.3761822-.3749051.9850587-.3738697,1.3599642.002312.3411722.342335.3752509.8847072.0796123,1.2670541l-.0798164.0903941-.9616412.9616412c-.3761817.3749056-.9850584.3738711-1.3599642-.0023102-.3411735-.342335-.3752525-.8847081-.0796128-1.2670559l.0798162-.0903941s.9616414-.9616412.9616419-.9616412ZM18.5509468,8.8865799c.3426019-.3425703.8865515-.3767732,1.269366-.0798164l.0903941.0798164.9616412.9616412c.3749056.3761822.3738693.9850591-.0023129,1.3599638-.3423341.3411722-.8847063.3752513-1.2670531.0796128l-.0903941-.0798164-.9616412-.9616412c-.3754081-.3755209-.3754081-.9842402,0-1.3597611M12.4993396,4.9525062l-1.9550165,1.3030238-.206753,3.3109308h4.323538l-.206753-3.3109304s-1.9550156-1.3030238-1.9550156-1.3030243ZM5.48609,5.0390541l.9616412.9616412c.375753.3754875.3759685.9844882.000481,1.3602417-.3754879.375753-.9844887.375968-1.3602417.0004806l-.9616412-.9616412c-.3689619-.3820135-.3583814-.9907987.0236319-1.3597606.3726585-.3599267.9634705-.3599267,1.3361288,0v-.0009616ZM20.8723499,5.0390541c.375753.3753352.3760923.9842126.0007557,1.3599656-.0002513.0002527-.0005026.0005044-.0007557.0007566l-.9616412.9616412c-.3689573.3820167-.9777435.3926027-1.3597602.0236449-.3820167-.3689582-.3926036-.9777439-.0236445-1.3597606.0077439-.0080181.0156273-.015901.0236445-.0236449l.9616412-.9616412c.37552-.375407.9842402-.375407,1.3597602,0v-.0009616Z"/>
</svg>