<?xml version="1.0" encoding="UTF-8"?>
<svg id="Layer_1" xmlns="http://www.w3.org/2000/svg" version="1.1" viewBox="0 0 24 24">
  <!-- Generator: Adobe Illustrator 30.3.0, SVG Export Plug-In . SVG Version: 2.1.3 Build 182)  -->
  <defs>
    <style>
      .st0 {
        fill: none;
        stroke: #fdfaf5;
        stroke-linecap: round;
        stroke-linejoin: round;
      }

      .st1, .st2 {
        fill: #fdfaf5;
      }

      .st3 {
        fill: #446277;
      }

      .st2 {
        fill-rule: evenodd;
      }
    </style>
  </defs>
  <rect class="st3" x="1" y="1" width="22" height="22" rx="6" ry="6"/>
  <g>
    <path class="st2" d="M15.3699951,13.460022l-.0800171-1.5400391-.1999512-3.8999634-.0300293-.4100342-.039978-.8499756h-6.1000366l-.039978.8499756-.0300293.4100342-.1999512,3.8999634-.0800171,1.5400391-1.3400269,9.539978h9.4899902l-1.3499756-9.539978ZM9.8599854,8.0200195l.0100098-.2600098h4.2000122l.0100098.2600098.2000122,3.8999634h-4.6300049l.2099609-3.8999634Z"/>
    <polygon class="st2" points="14.7138968 20.3229465 9.2239065 20.3229465 9.5838919 13.4629612 9.6538992 11.9229832 14.2839041 11.9229832 14.3639212 13.4629612 14.7138968 20.3229465"/>
    <rect class="st1" x="7.7939138" y="11.9229832" width="8.4099741" height="1.539978"/>
    <path class="st2" d="M16.2064419,7.6128407H7.7935581l3.4116268-2.8804531c.4425964-.3736863,1.0895233-.3759346,1.5347071-.0053344,0,0,3.4665499,2.885788,3.4665499,2.8857875Z"/>
    <rect class="st1" x="7.7935581" y="7.6128407" width="8.4128838" height=".4048519"/>
    <circle class="st1" cx="11.9689016" cy="10.0445471" r="1.0322628"/>
  </g>
  <g>
    <g>
      <line class="st0" x1="4.7570887" y1="6.799212" x2="5.8719907" y2="7.914114"/>
      <line class="st0" x1="4.2998447" y1="9.7883692" x2="5.8719907" y2="9.7883692"/>
      <line class="st0" x1="5.8719907" y1="11.8152237" x2="4.7570887" y2="12.9301252"/>
    </g>
    <g>
      <line class="st0" x1="19.2429123" y1="6.799212" x2="18.1280098" y2="7.914114"/>
      <line class="st0" x1="19.7001553" y1="9.7883692" x2="18.1280098" y2="9.7883692"/>
      <line class="st0" x1="18.1280098" y1="11.8152237" x2="19.2429123" y2="12.9301252"/>
    </g>
  </g>
</svg>