<?xml version="1.0" encoding="UTF-8"?>
<svg id="Layer_1" xmlns="http://www.w3.org/2000/svg" version="1.1" viewBox="0 0 24 24">
  <!-- Generator: Adobe Illustrator 30.3.0, SVG Export Plug-In . SVG Version: 2.1.3 Build 182)  -->
  <defs>
    <style>
      .st0 {
        fill: none;
        stroke: #fdfaf5;
        stroke-linecap: round;
        stroke-linejoin: round;
      }

      .st1, .st2 {
        fill: #fdfaf5;
      }

      .st2 {
        fill-rule: evenodd;
      }

      .st3 {
        fill: #1a1a1a;
      }
    </style>
  </defs>
  <g>
    <rect class="st3" x="1" y="1" width="22" height="22" rx="1.75" ry="1.75"/>
    <path class="st1" d="M21.25,2c.4142094,0,.75.3357906.75.75v18.5c0,.4142094-.3357906.75-.75.75H2.75c-.4142101,0-.75-.3357906-.75-.75V2.75c0-.4142094.3357899-.75.75-.75h18.5M21.25,0H2.75C1.23364,0,0,1.2336407,0,2.75v18.5c0,1.5163593,1.23364,2.75,2.75,2.75h18.5c1.5163593,0,2.75-1.2336407,2.75-2.75V2.75c0-1.5163593-1.2336407-2.75-2.75-2.75h0Z"/>
  </g>
  <g>
    <path class="st2" d="M15.3739311,13.4629613l-.0800171-1.539978-.2700195-5.1600342h-6.0999756l-.2700195,5.1600342-.0800171,1.539978-1.3977999,9.8799191h9.5956486l-1.3977999-9.8799191ZM9.8739311,7.7629491h4.1999512l.210022,4.1600342h-4.6300049l.2200317-4.1600342Z"/>
    <polygon class="st2" points="14.7138969 20.3229467 9.2239067 20.3229467 9.5838921 13.4629613 9.6538994 11.9229833 14.2839043 11.9229833 14.3639214 13.4629613 14.7138969 20.3229467"/>
    <rect class="st1" x="7.793914" y="11.9229833" width="8.4099731" height="1.539978"/>
    <path class="st2" d="M16.2064419,7.6128408H7.7935581l3.4116265-2.8804534c.4425961-.3736861,1.0895238-.3759348,1.534707-.0053346l3.4665502,2.8857879Z"/>
    <rect class="st1" x="7.7935581" y="7.6128408" width="8.4128837" height=".4048522"/>
    <circle class="st1" cx="11.9689018" cy="10.0445471" r="1.0322628"/>
  </g>
  <g>
    <g>
      <line class="st0" x1="4.7570886" y1="6.7992119" x2="5.8719906" y2="7.914114"/>
      <line class="st0" x1="4.2998446" y1="9.7883692" x2="5.8719906" y2="9.7883692"/>
      <line class="st0" x1="5.8719906" y1="11.8152233" x2="4.7570886" y2="12.9301254"/>
    </g>
    <g>
      <line class="st0" x1="19.2429114" y1="6.7992119" x2="18.1280094" y2="7.914114"/>
      <line class="st0" x1="19.7001554" y1="9.7883692" x2="18.1280094" y2="9.7883692"/>
      <line class="st0" x1="18.1280094" y1="11.8152233" x2="19.2429114" y2="12.9301254"/>
    </g>
  </g>
</svg>