<?xml version="1.0" encoding="UTF-8"?>
<svg id="Layer_1" xmlns="http://www.w3.org/2000/svg" version="1.1" viewBox="0 0 24 24">
  <!-- Generator: Adobe Illustrator 30.3.0, SVG Export Plug-In . SVG Version: 2.1.3 Build 182)  -->
  <defs>
    <style>
      .st0 {
        fill: #343739;
      }

      .st1 {
        fill: #fdfaf5;
      }
    </style>
  </defs>
  <rect class="st0" x="1" y="1" width="22" height="22" rx="6" ry="6"/>
  <g>
    <path class="st1" d="M16.3938579,5.0304306c2.0226893.7878643,3.1817606,2.4620763,3.1817606,4.5908249v9.9543629H4.4243815v-9.9543629c0-2.1287486,1.1590696-3.8029602,3.1817593-4.5908245,1.3636118-.5378689,2.9847938-.6060494,4.393859-.6060494s3.0302471.0681805,4.3938581.6060494"/>
    <path class="st0" d="M17.0504129,16.1076685v-5.7911396c0-2.2053466-2.2558517-2.5252066-5.0504131-2.5252066-2.5252066,0-5.0504127.3114419-5.0504127,2.5252066v5.7911396c0,1.2179804.9873672,2.2053461,2.2053466,2.2053461l-.9427433.9427452v.3198586h1.4056978l1.2626028-1.2626038h2.3821115l1.2626028,1.2626038h1.2626028v-.3198586l-.9511614-.9427452c1.2205162,0,2.2137642-.9848309,2.2137642-2.2053471"/>
    <path class="st1" d="M9.0539262,15.366942c.4648781,0,.8417358.3768578.8417358.8417358,0,.4648771-.3768578.8417349-.8417358.8417349s-.8417358-.3768578-.8417358-.8417358.3768578-.8417358.8417358-.8417358"/>
    <rect class="st1" x="7.7913225" y="10.3165289" width="8.4173546" height="4.2086773"/>
    <path class="st1" d="M14.9460733,15.366942c.4648771,0,.8417358.3768578.8417358.8417358,0,.4648771-.3768578.8417349-.8417358.8417349s-.8417358-.3768578-.8417358-.8417358.3768578-.8417358.8417358-.8417358"/>
  </g>
</svg>