<?xml version="1.0" encoding="UTF-8"?>
<svg id="Layer_1" xmlns="http://www.w3.org/2000/svg" version="1.1" viewBox="0 0 24 24">
  <!-- Generator: Adobe Illustrator 30.3.0, SVG Export Plug-In . SVG Version: 2.1.3 Build 182)  -->
  <defs>
    <style>
      .st0 {
        fill: #fdfaf5;
      }

      .st1 {
        fill: #1a1a1a;
      }
    </style>
  </defs>
  <path class="st0" d="M21.25,0H2.75C1.23364,0,0,1.2336407,0,2.75v18.5c0,1.5163593,1.23364,2.75,2.75,2.75h18.5c1.5163593,0,2.75-1.2336407,2.75-2.75V2.75c0-1.5163593-1.2336407-2.75-2.75-2.75h0Z"/>
  <g>
    <path class="st1" d="M16.8820648,4.2560341c2.2474336.8754048,3.5352894,2.7356403,3.5352894,5.1009164v11.0604037H3.5826458v-11.0604037c0-2.3652761,1.2878552-4.2255116,3.5352886-5.1009164,1.5151239-.5976322,3.316438-.6733883,4.8820656-.6733883s3.3669417.0757561,4.8820648.6733883"/>
    <path class="st0" d="M17.0504125,15.2659335v-5.7911398c0-2.2053467-2.2558512-2.5252063-5.0504125-2.5252063-2.5252063,0-5.0504125.311442-5.0504125,2.5252063v5.7911398c0,1.2179795.9873672,2.2053467,2.2053467,2.2053467l-.9427436.9427444v.3198588h1.4056982l1.2626031-1.2626031h2.3821112l1.2626031,1.2626031h1.2626031v-.3198588l-.9511611-.9427444c1.2205162,0,2.2137642-.9848305,2.2137642-2.2053467"/>
    <path class="st1" d="M9.053926,14.5252063c.464878,0,.8417354.3768574.8417354.8417354,0,.4648772-.3768574.8417354-.8417354.8417354-.4648776,0-.8417354-.3768582-.8417354-.8417354,0-.464878.3768578-.8417354.8417354-.8417354"/>
    <rect class="st1" x="7.7913229" y="9.4747937" width="8.4173542" height="4.2086771"/>
    <path class="st1" d="M14.946074,14.5252063c.4648772,0,.8417354.3768574.8417354.8417354,0,.4648772-.3768582.8417354-.8417354.8417354-.464878,0-.8417354-.3768582-.8417354-.8417354,0-.464878.3768574-.8417354.8417354-.8417354"/>
  </g>
</svg>