<?xml version="1.0" encoding="UTF-8"?>
<svg id="Layer_1" xmlns="http://www.w3.org/2000/svg" version="1.1" viewBox="0 0 24 24">
  <!-- Generator: Adobe Illustrator 30.3.0, SVG Export Plug-In . SVG Version: 2.1.3 Build 182)  -->
  <defs>
    <style>
      .st0 {
        fill: #fdfaf5;
      }

      .st1 {
        fill: #1a1a1a;
      }
    </style>
  </defs>
  <path class="st0" d="M21.25,0H2.75C1.23364,0,0,1.2336407,0,2.75v18.5c0,1.5163593,1.23364,2.75,2.75,2.75h18.5c1.5163593,0,2.75-1.2336407,2.75-2.75V2.75c0-1.5163593-1.2336407-2.75-2.75-2.75h0Z"/>
  <g>
    <path class="st1" d="M16.8820648,4.2560339c2.2474327.8754048,3.5352898,2.7356405,3.5352898,5.1009169v11.0604038H3.5826459v-11.0604038c0-2.3652763,1.2878551-4.2255116,3.5352883-5.1009164,1.5151243-.5976322,3.3164377-.6733882,4.8820658-.6733882s3.3669415.0757561,4.8820648.6733882"/>
    <path class="st0" d="M17.0504131,15.265933v-5.7911396c0-2.2053466-2.2558517-2.5252066-5.0504131-2.5252066-2.5252066,0-5.0504127.3114419-5.0504127,2.5252066v5.7911396c0,1.2179804.9873672,2.2053461,2.2053466,2.2053461l-.9427433.9427452v.3198586h1.4056978l1.2626028-1.2626038h2.3821115l1.2626028,1.2626038h1.2626028v-.3198586l-.9511614-.9427452c1.2205162,0,2.2137642-.9848309,2.2137642-2.2053471"/>
    <path class="st1" d="M9.0539265,14.5252066c.4648781,0,.8417358.3768578.8417358.8417358,0,.4648771-.3768578.8417349-.8417358.8417349s-.8417358-.3768578-.8417358-.8417358.3768578-.8417358.8417358-.8417358"/>
    <rect class="st1" x="7.7913227" y="9.4747934" width="8.4173546" height="4.2086773"/>
    <path class="st1" d="M14.9460735,14.5252066c.4648771,0,.8417358.3768578.8417358.8417358,0,.4648771-.3768578.8417349-.8417358.8417349s-.8417358-.3768578-.8417358-.8417358.3768578-.8417358.8417358-.8417358"/>
  </g>
  <path class="st1" d="M21.25,2c.4142094,0,.75.3357906.75.75v18.5c0,.4142094-.3357906.75-.75.75H2.75c-.4142101,0-.75-.3357906-.75-.75V2.75c0-.4142094.3357899-.75.75-.75h18.5M21.25,0H2.75C1.23364,0,0,1.2336407,0,2.75v18.5c0,1.5163593,1.23364,2.75,2.75,2.75h18.5c1.5163593,0,2.75-1.2336407,2.75-2.75V2.75c0-1.5163593-1.2336407-2.75-2.75-2.75h0Z"/>
</svg>