<?xml version="1.0" encoding="UTF-8"?>
<svg id="Layer_1" xmlns="http://www.w3.org/2000/svg" version="1.1" viewBox="0 0 12 12">
  <!-- Generator: Adobe Illustrator 30.3.0, SVG Export Plug-In . SVG Version: 2.1.3 Build 182)  -->
  <defs>
    <style>
      .st0 {
        fill-rule: evenodd;
      }
    </style>
  </defs>
  <path class="st0" d="M1.0945197,6.7085696l1.0356014-1.4716438h.9810958c.1090107,0,.2180214,0,.2725266-.1090105l.8175799-1.144612c.2725269-.3815373.3270319-.3270319.5450533-.3270319h2.5617508l.3815369.4905482h-2.1257085c-.2180214,0-.2725269.0545055-.3270319.1635159l-.7085692.981096h.4905482c.1090105,0,.1090105-.0545055.1635159-.1090105l.4905482-.7085696c.1090105-.1635159.2725269-.1090105.3815373-.1090105h2.0712025l.5450537.8175801h-2.6162563c-.1090105,0-.2180209,0-.3270323.1635159l-.8720851,1.2536229c-.1090105.1090105-.1635159.1635159-.3270319.1635159H1.0945197v-.0545064Z"/>
  <path class="st0" d="M10.9054807,5.2914304l-1.0356015,1.4716438h-.9810965c-.1090109,0-.2180209,0-.2725269.1090105l-.8175797,1.1446115c-.2725269.3815369-.3270323.3270319-.5450533.3270319h-2.5617508l-.3815373-.4905478h2.1257085c.2180209,0,.2725269-.0545059.3270323-.1635159l.7085696-.981096h-.4905478c-.1090105,0-.1090105.0545055-.1635159.1090105l-.4905478.7085696c-.1090105.1635159-.2725269.1090105-.3815373.1090105h-2.0712025l-.5450533-.8175801h2.6162563c.1090105,0,.2180209,0,.3270323-.1635159l.8720856-1.2536229c.1090105-.1090105.1635159-.1635159.3270323-.1635159h3.3793304s.0545032.0545059.0545032.0545064Z"/>
</svg>