<?xml version="1.0" encoding="UTF-8"?>
<svg id="Layer_1" xmlns="http://www.w3.org/2000/svg" version="1.1" viewBox="0 0 25 25">
  <!-- Generator: Adobe Illustrator 30.3.0, SVG Export Plug-In . SVG Version: 2.1.3 Build 182)  -->
  <defs>
    <style>
      .st0 {
        fill-rule: evenodd;
      }
    </style>
  </defs>
  <path class="st0" d="M2.2802494,13.9761864l2.1575029-3.065925h2.0439499c.2271056,0,.4542112,0,.5677639-.2271054l1.7032918-2.3846084c.5677639-.7948693.6813166-.6813166,1.1355278-.6813166h5.3369806l.7948693,1.0219752h-4.4285592c-.4542112,0-.5677639.1135527-.6813166.3406586l-1.4761859,2.0439498h1.0219752c.2271054,0,.2271054-.1135527.3406586-.2271054l1.0219752-1.4761864c.2271054-.3406586.5677639-.2271054.7948693-.2271054h4.315006l1.1355278,1.7032918h-5.4505339c-.2271054,0-.4542107,0-.6813171.3406586l-1.8168444,2.6117143c-.2271054.2271054-.3406586.3406586-.6813166.3406586H2.2802494v-.1135543Z"/>
  <path class="st0" d="M22.7197506,11.0238136l-2.1575025,3.065925h-2.0439503c-.2271054,0-.4542107,0-.5677639.2271054l-1.7032918,2.3846078c-.5677639.7948693-.6813171.6813171-1.1355278.6813171h-5.3369806l-.7948693-1.0219746h4.4285592c.4542107,0,.5677639-.1135532.6813171-.3406586l1.4761864-2.0439503h-1.0219746c-.2271054,0-.2271054.1135532-.3406586.2271054l-1.0219746,1.4761864c-.2271054.3406586-.5677639.2271054-.7948693.2271054h-4.315006l-1.1355278-1.7032918h5.4505339c.2271054,0,.4542107,0,.6813171-.3406586l1.816845-2.6117143c.2271054-.2271054.3406586-.3406586.6813171-.3406586h7.0402724l.1135489.1135543Z"/>
</svg>