<?xml version="1.0" encoding="UTF-8"?>
<svg id="Layer_1" xmlns="http://www.w3.org/2000/svg" version="1.1" viewBox="0 0 18 18">
  <!-- Generator: Adobe Illustrator 30.3.0, SVG Export Plug-In . SVG Version: 2.1.3 Build 182)  -->
  <defs>
    <style>
      .st0 {
        fill-rule: evenodd;
      }
    </style>
  </defs>
  <path class="st0" d="M0,10.3l1.9-2.7h1.8c.2,0,.4,0,.5-.2l1.5-2.1c.5-.7.6-.6,1-.6h4.7l.7.9h-3.9c-.4,0-.5.1-.6.3l-1.3,1.8h.9c.2,0,.2-.1.3-.2l.9-1.3c.2-.3.5-.2.7-.2h3.8s1,1.5,1,1.5h-4.8c-.2,0-.4,0-.6.3l-1.6,2.3c-.2.2-.3.3-.6.3H0,0Z"/>
  <path class="st0" d="M18,7.7l-1.9,2.7h-1.8c-.2,0-.4,0-.5.2l-1.5,2.1c-.5.7-.6.6-1,.6h-4.7l-.7-.9h3.9c.4,0,.5-.1.6-.3l1.3-1.8h-.9c-.2,0-.2.1-.3.2l-.9,1.3c-.2.3-.5.2-.7.2h-3.8s-1-1.5-1-1.5h4.8c.2,0,.4,0,.6-.3l1.6-2.3c.2-.2.3-.3.6-.3h6.2,0Z"/>
</svg>