<?xml version="1.0" encoding="UTF-8"?>
<svg id="Layer_1" xmlns="http://www.w3.org/2000/svg" version="1.1" viewBox="0 0 24 24">
  <!-- Generator: Adobe Illustrator 30.3.0, SVG Export Plug-In . SVG Version: 2.1.3 Build 182)  -->
  <defs>
    <style>
      .st0, .st1 {
        fill: #fdfaf5;
      }

      .st1 {
        opacity: .4;
      }

      .st2 {
        fill: #1a1a1a;
      }
    </style>
  </defs>
  <g>
    <rect class="st2" x="2" y="2" width="20" height="20" rx="1.333313" ry="1.333313"/>
    <path class="st1" d="M20.666687,0H3.333313C1.4953003,0,0,1.4953003,0,3.333313v17.333374c0,1.8379517,1.4953003,3.333313,3.333313,3.333313h17.333374c1.8380127,0,3.333313-1.4953613,3.333313-3.333313V3.333313c0-1.8380127-1.4953003-3.333313-3.333313-3.333313ZM22,20.666687c0,.7363892-.5969238,1.333313-1.333313,1.333313H3.333313c-.7363892,0-1.333313-.5969238-1.333313-1.333313V3.333313c0-.7363892.5969238-1.333313,1.333313-1.333313h17.333374c.7363892,0,1.333313.5969238,1.333313,1.333313v17.333374Z"/>
  </g>
  <path class="st0" d="M6.3450212,17.6339626h11.3099566c.4948997,0,.7988491-.5801601.540844-1.0323315l-5.6549778-9.910778c-.2471142-.4330873-.8345737-.4330873-1.0816879,0l-5.6549778,9.910778c-.2580042.4521732.0459442,1.0323315.540843,1.0323315Z"/>
</svg>