<?xml version="1.0" encoding="UTF-8"?>
<svg id="Layer_1" xmlns="http://www.w3.org/2000/svg" version="1.1" viewBox="0 0 24 24">
  <!-- Generator: Adobe Illustrator 30.3.0, SVG Export Plug-In . SVG Version: 2.1.3 Build 182)  -->
  <defs>
    <style>
      .st0 {
        fill: #fdfaf5;
      }

      .st1 {
        fill: #1a1a1a;
      }
    </style>
  </defs>
  <g>
    <rect class="st1" x="1" y="1" width="22" height="22" rx="2.3334961" ry="2.3334961"/>
    <path class="st0" d="M20.6666698,2c.7363796,0,1.3333302.5969505,1.3333302,1.3333302v17.3333399c0,.7363799-.5969505,1.3333299-1.3333302,1.3333299H3.3333299c-.7363799,0-1.3333299-.5969501-1.3333299-1.3333299V3.3333302c0-.7363796.5969501-1.3333302,1.3333299-1.3333302h17.3333399M20.6666698,0H3.3333299C1.49533,0,0,1.4953308,0,3.3333302v17.3333399c0,1.8379999,1.49533,3.3333299,3.3333299,3.3333299h17.3333399c1.8379993,0,3.3333302-1.49533,3.3333302-3.3333299V3.3333302c0-1.8379993-1.4953308-3.3333302-3.3333302-3.3333302h0Z"/>
  </g>
  <path class="st0" d="M6.3450212,17.6339626h11.3099566c.4948997,0,.7988491-.5801601.540844-1.0323315l-5.6549778-9.910778c-.2471142-.4330873-.8345737-.4330873-1.0816879,0l-5.6549778,9.910778c-.2580042.4521732.0459442,1.0323315.540843,1.0323315Z"/>
</svg>