<?xml version="1.0" encoding="UTF-8"?>
<svg id="Layer_1" xmlns="http://www.w3.org/2000/svg" version="1.1" viewBox="0 0 18 18">
  <!-- Generator: Adobe Illustrator 30.3.0, SVG Export Plug-In . SVG Version: 2.1.3 Build 182)  -->
  <defs>
    <style>
      .st0 {
        fill: #1a1a1a;
      }
    </style>
  </defs>
  <path class="st0" d="M9.7827689.9181273c-.3149077-.5938254-1.2776243-.5938254-1.5925311,0L.1016172,16.213629c-.1439576.2789175-.1349603.6118203.026992.8817402.1619524.2699199.458865.4318726.7737723.4318726h16.1952359c.3149077,0,.6118203-.1619526.773773-.4318726s.1709502-.6028228.0269927-.8817402L9.7827689.9181273ZM8.9910017,3.2574394l2.7621873,5.2274628-.9627166.728786-1.2596292-.9447223c-.3188857-.242971-.7607966-.242971-1.0796823,0l-1.25963.9447214-.9627166-.728786,2.7621873-5.2274619ZM2.3869441,15.727771l2.9871211-5.6413411,1.2776243.9627166c.3239044.242929.7557778.242929,1.0796823,0l1.2596292-.9447223,1.2596292.9447223c.1619526.1169657.3508971.1799469.5398416.1799469s.3778889-.0629812.5398416-.1799469l1.2776234-.9627166,2.9871211,5.6413411H2.3869441Z"/>
</svg>