<?xml version="1.0" encoding="UTF-8"?>
<svg id="Layer_1" xmlns="http://www.w3.org/2000/svg" version="1.1" viewBox="0 0 24 24">
  <!-- Generator: Adobe Illustrator 30.3.0, SVG Export Plug-In . SVG Version: 2.1.3 Build 182)  -->
  <defs>
    <style>
      .st0 {
        fill: #fdfaf5;
      }

      .st1 {
        fill: #5b7459;
      }
    </style>
  </defs>
  <rect class="st1" x="1" y="1" width="22" height="22" rx="6" ry="6"/>
  <path class="st0" d="M5.1818047,10.0608807c0-.5004177,3.0025082-.5004177,3.0025082,0v7.5062695c0,.5004177-3.0025082.5004177-3.0025082,0,0,0,0-7.5062704,0-7.5062695ZM10.1859846,10.0608807v7.5062695c0,.5004177,3.0025082.5004177,3.0025082,0v-7.5062704c0-.5004177-3.0025082-.5004177-3.0025082,0M15.6905832,11.0617161c-.5004177-.5004177-2.5020905,1.5012541-2.0016718,2.0016718l3.5029259,4.5037622c.5004177.5004177,1.5012531.5004177,2.0016727,0-1.0008354-1.0008354-1.0008354-2.5020905-.5004177-3.0025082,0,0-3.0025082-3.5029259-3.0025091-3.5029259ZM10.1859846,6.0575361h-5.0041804c-.5004182,0-.5004182,3.0025082,0,3.0025082h8.0066876c.5004177,0,.5004177-2.0016718,0-2.0016718-1.5012541,0-3.0025082-.5004182-3.0025082-1.0008359"/>
</svg>