<?xml version="1.0" encoding="UTF-8"?>
<svg id="Layer_1" xmlns="http://www.w3.org/2000/svg" version="1.1" viewBox="0 0 24 24">
  <!-- Generator: Adobe Illustrator 30.3.0, SVG Export Plug-In . SVG Version: 2.1.3 Build 182)  -->
  <defs>
    <style>
      .st0 {
        fill: #fdfaf5;
      }

      .st1 {
        fill: #1a1a1a;
      }
    </style>
  </defs>
  <g>
    <rect class="st1" x="1" y="1" width="22" height="22" rx="2" ry="2"/>
    <path class="st0" d="M21,2c.5522804,0,1,.4477196,1,1v18c0,.5522804-.4477196,1-1,1H3c-.5522799,0-1-.4477196-1-1V3c0-.5522804.4477201-1,1-1h18M21,0H3C1.3457899,0,0,1.3457909,0,3v18c0,1.6542091,1.3457899,3,3,3h18c1.6542091,0,3-1.3457909,3-3V3c0-1.6542091-1.3457909-3-3-3h0Z"/>
  </g>
  <path class="st0" d="M5.1818045,10.0608802c0-.500418,3.0025081-.500418,3.0025081,0v7.5062702c0,.500418-3.0025081.500418-3.0025081,0v-7.5062702ZM10.1859847,10.0608802v7.5062702c0,.500418,3.0025081.500418,3.0025081,0v-7.5062702c0-.500418-3.0025081-.500418-3.0025081,0M15.6905829,11.0617162c-.500418-.500418-2.5020901,1.501254-2.0016721,2.0016721l3.5029261,4.5037621c.500418.500418,1.501254.500418,2.0016721,0-1.000836-1.000836-1.000836-2.5020901-.500418-3.0025081l-3.0025081-3.5029261ZM10.1859847,6.0575361h-5.0041802c-.500418,0-.500418,3.0025081,0,3.0025081h8.0066882c.500418,0,.500418-2.0016721,0-2.0016721-1.501254,0-3.0025081-.500418-3.0025081-1.000836"/>
</svg>