<?xml version="1.0" encoding="UTF-8"?>
<svg id="Layer_1" xmlns="http://www.w3.org/2000/svg" version="1.1" viewBox="0 0 25 25">
  <!-- Generator: Adobe Illustrator 30.3.0, SVG Export Plug-In . SVG Version: 2.1.3 Build 182)  -->
  <defs>
    <style>
      .st0 {
        fill: none;
      }
    </style>
  </defs>
  <path class="st0" d="M0,0h25.0000013v25.0000013H0V0Z"/>
  <path d="M3.3333335,5.0000003c0-1.8333335,1.5000002-3.3333335,3.3333335-3.3333335h11.6666673c1.8333341,0,3.3333335,1.5,3.3333335,3.3333335v13.333334c0,1.6666668-1.6666668,1.6666668-1.6666668,1.6666668v1.6666668c0,.916667-.7499997,1.6666668-1.6666668,1.6666668s-1.6666668-.7499997-1.6666668-1.6666668v-1.6666668h-8.3333338v1.6666668c0,.916667-.7499997,1.6666668-1.6666668,1.6666668s-1.6666668-.7499997-1.6666668-1.6666668v-1.6666668c-1.6666668,0-1.6666668-1.6666668-1.6666668-1.6666668V5.0000003ZM5.8333336,6.666667c-.4666666,0-.8333334.3666663-.8333334.8333334v5.0000003c0,.466667.3666667.8333334.8333334.8333334h13.333334c.4666662,0,.8333334-.3666663.8333334-.8333334v-5.0000003c0-.466667-.3666671-.8333334-.8333334-.8333334H5.8333336ZM6.666667,15.0000008c-.9166666,0-1.6666668.7499997-1.6666668,1.6666668s.7500001,1.6666668,1.6666668,1.6666668,1.6666668-.7499997,1.6666668-1.6666668-.7499997-1.6666668-1.6666668-1.6666668M18.3333343,15.0000008c-.916667,0-1.6666668.7499997-1.6666668,1.6666668s.7499997,1.6666668,1.6666668,1.6666668,1.6666668-.7499997,1.6666668-1.6666668-.7499997-1.6666668-1.6666668-1.6666668M6.666667,4.1666669c0,.4666666.3666663.8333334.8333334.8333334h10.0000005c.4666662,0,.8333334-.3666667.8333334-.8333334s-.3666671-.8333334-.8333334-.8333334H7.5000004c-.466667,0-.8333334.3666667-.8333334.8333334"/>
</svg>