<?xml version="1.0" encoding="UTF-8"?>
<svg id="Layer_1" xmlns="http://www.w3.org/2000/svg" version="1.1" viewBox="0 0 12 12">
  <!-- Generator: Adobe Illustrator 30.3.0, SVG Export Plug-In . SVG Version: 2.1.3 Build 182)  -->
  <defs>
    <style>
      .st0 {
        fill: #1a1a1a;
      }
    </style>
  </defs>
  <path class="st0" d="M6.3726561.0984375c-.2296872-.13125-.5132811-.13125-.7453126,0L.3773435,3.0984374c-.232031.1335937-.3773435.3820313-.3773435.6515626v7.5c0,.414844.3351563.75.75.75s.75-.335156.75-.75v-7.0640624L6,1.6148438l4.5,2.5710939v7.0640624c0,.414844.335156.75.75.75s.75-.335156.75-.75V3.75c0-.2695312-.1453128-.5179689-.3773439-.6515626L6.3726561.0984375ZM6,4.875c.5177672,0,.9375-.4197332.9375-.9375s-.4197328-.9375-.9375-.9375c-.5177668,0-.9375.4197332-.9375.9375s.4197332.9375.9375.9375M5.8125,11.4375v-2.0625h.375v2.0625c0,.3117185.2507815.5625.5625.5625s.5625-.2507815.5625-.5625v-4.0898438l.6304686,1.1695311c.147656.274219.4874997.375.7617188.2296872s.375-.4874997.2296872-.7617188l-.8882811-1.6476567c-.3585935-.6679688-1.0570314-1.0851563-1.8164062-1.0851563h-.4570312c-.7593749,0-1.4554689.4171876-1.8164062,1.0851563l-.8882811,1.647656c-.1476563.274219-.0445311.6140628.2296876.7617188s.6140624.0445311.7617188-.2296872l.6281251-1.1695311v4.0898445c0,.3117185.2507812.5625.5625.5625s.5625-.2507815.5625-.5625"/>
</svg>