<?xml version="1.0" encoding="UTF-8"?>
<svg id="Layer_1" xmlns="http://www.w3.org/2000/svg" version="1.1" viewBox="0 0 24 24">
  <!-- Generator: Adobe Illustrator 30.3.0, SVG Export Plug-In . SVG Version: 2.1.3 Build 182)  -->
  <defs>
    <style>
      .st0 {
        fill: none;
      }

      .st1 {
        fill: #8c3a29;
      }

      .st2 {
        fill: #fdfaf5;
      }
    </style>
  </defs>
  <rect class="st1" x="1" y="1" width="22" height="22" rx="6" ry="6"/>
  <path class="st0" d="M0,0h24.0000019v24.0000019H0V0Z"/>
  <path class="st2" d="M12.4128046,3.689074c-.2544327-.1453903-.5685797-.1453903-.8256102,0l-6.9297714,3.3232079c-.3030071.1479869-.4927697.4231896-.4927697.7217593v12.4803257h1.9588366v-11.7736425l5.8765101-2.848093,5.8765106,2.848094v11.7736416h1.9588375V7.7340412c0-.2985697-.1897621-.5737729-.4927711-.7217593,0,0-6.9297714-3.3232076-6.9297724-3.3232079Z"/>
  <g>
    <path class="st2" d="M12,9.4622726c.5938215,0,1.0752096.4813871,1.0752096,1.0752096s-.4813871,1.0752096-1.0752096,1.0752096-1.0752096-.4813881-1.0752096-1.0752096.4813871-1.0752096,1.0752096-1.0752096"/>
    <path class="st2" d="M11.1935921,12.1502962h1.6128139c.5938215,0,1.0752096.4813871,1.0752096,1.0752096v2.9568253h-.806407v4.0320358h-2.1504192v-4.0320358h-.806407v-2.9568262c0-.5938215.4813871-1.0752096,1.0752096-1.0752096"/>
  </g>
  <g>
    <path class="st2" d="M30.9795227,10.5177298c.5735493,0,1.0385017-.4649534,1.0385017-1.0385027s-.4649525-1.0385027-1.0385017-1.0385027-1.0385017.4649534-1.0385017,1.0385027c0,.5735483.4649525,1.0385027,1.0385017,1.0385027"/>
    <path class="st2" d="M30.771822,17.7872467v-2.2847052h.4154015v2.2847052c0,.3453026.2777996.6231022.6231022.6231022s.6231003-.2777996.6231003-.6231022v-4.530467l.698391,1.2955322c.1635628.3037624.54002.4154015.8437843.2544327s.4154015-.5400209.2544327-.8437834l-.9839821-1.8251686c-.3972282-.739933-1.1709137-1.2020664-2.0120983-1.2020664h-.5062695c-.8411865,0-1.6122761.4621344-2.0120983,1.2020664l-.9839802,1.8251677c-.1635647.3037624-.0493279.6802187.2544327.8437843.3037624.1635647.6802197.0493279.8437843-.2544327l.695797-1.2955313v4.530468c0,.3453026.2777996.6231022.6231022.6231022s.6231022-.2777996.6231022-.6231022"/>
  </g>
</svg>