<?xml version="1.0" encoding="UTF-8"?>
<svg id="Layer_1" xmlns="http://www.w3.org/2000/svg" version="1.1" viewBox="0 0 24 24">
  <!-- Generator: Adobe Illustrator 30.3.0, SVG Export Plug-In . SVG Version: 2.1.3 Build 182)  -->
  <defs>
    <style>
      .st0 {
        fill: none;
      }

      .st1 {
        fill: #fdfaf5;
      }

      .st2 {
        fill: #1a1a1a;
      }
    </style>
  </defs>
  <g>
    <rect class="st2" x="1" y="1" width="22" height="22" rx="2" ry="2"/>
    <path class="st1" d="M21,2c.5522804,0,1,.4477196,1,1v18c0,.5522804-.4477196,1-1,1H3c-.5522799,0-1-.4477196-1-1V3c0-.5522804.4477201-1,1-1h18M21,0H3C1.3457899,0,0,1.3457909,0,3v18c0,1.6542091,1.3457899,3,3,3h18c1.6542091,0,3-1.3457909,3-3V3c0-1.6542091-1.3457909-3-3-3h0Z"/>
  </g>
  <path class="st0" d="M0,0h24.0000019v24.0000019H0V0Z"/>
  <path class="st1" d="M12.4128043,3.6890741c-.2544328-.1453903-.5685799-.1453903-.8256098,0l-6.9297716,3.3232078c-.3030072.1479867-.4927695.4231896-.4927695.7217592v12.4803253h1.9588365v-11.7736425l5.8765101-2.8480927,5.8765101,2.8480934v11.7736418h1.9588367V7.7340411c0-.2985696-.189763-.5737727-.4927704-.7217595l-6.9297721-3.3232075Z"/>
  <g>
    <path class="st1" d="M12,9.4622727c.5938218,0,1.0752094.4813876,1.0752094,1.0752094s-.4813876,1.0752094-1.0752094,1.0752094-1.0752094-.4813879-1.0752094-1.0752094.4813876-1.0752094,1.0752094-1.0752094"/>
    <path class="st1" d="M11.1935925,12.1502964h1.6128143c.5938215,0,1.0752097.4813876,1.0752097,1.0752097v2.9568253h-.8064071v4.032035h-2.1504188v-4.032035h-.8064071v-2.9568259c0-.5938215.4813876-1.0752091,1.0752094-1.0752091"/>
  </g>
  <g>
    <path class="st1" d="M30.9795232,10.5177298c.5735493,0,1.0385027-.4649533,1.0385027-1.0385027s-.4649533-1.0385027-1.0385027-1.0385027-1.0385027.4649536-1.0385027,1.0385027c0,.5735487.4649533,1.0385027,1.0385027,1.0385027"/>
    <path class="st1" d="M30.7718225,17.7872465v-2.2847053h.4154007v2.2847053c0,.3453021.2777999.6231013.6231013.6231013s.6231013-.2777992.6231013-.6231013v-4.530467l.6983927,1.2955319c.1635642.3037621.5400207.4154013.8437827.2544328s.4154013-.5400207.2544328-.8437834l-.9839806-1.8251682c-.3972271-.7399327-1.1709119-1.2020669-2.0120989-1.2020669h-.5062699c-.841187,0-1.6122754.4621342-2.0120982,1.2020669l-.9839809,1.8251676c-.1635642.3037621-.0493286.6802192.2544335.8437841.3037617.1635649.6802188.0493279.8437837-.2544328l.695797-1.2955312v4.5304677c0,.3453021.2777992.6231013.6231013.6231013s.6231013-.2777992.6231013-.6231013"/>
  </g>
</svg>