<?xml version="1.0" encoding="UTF-8"?>
<svg id="Layer_1" xmlns="http://www.w3.org/2000/svg" version="1.1" viewBox="0 0 12 12">
  <!-- Generator: Adobe Illustrator 30.3.0, SVG Export Plug-In . SVG Version: 2.1.3 Build 182)  -->
  <defs>
    <style>
      .st0 {
        fill: none;
      }
    </style>
  </defs>
  <path class="st0" d="M0,0h12.0000009v12.0000009H0V0Z"/>
  <path d="M6.2987009,1.2696253c-.1841049-.1052029-.4114183-.1052029-.5974025,0L1.4931817,3.6742634c-.1859835.1070816-.3024582.3062156-.3024582.5222575v6.0115957c0,.3325162.2686432.6011596.6011596.6011596s.6011596-.2686433.6011596-.6011596v-5.6621717l3.6069574-2.06085,3.6069574,2.0608504v5.6621714c0,.3325162.2686433.6011596.6011596.6011596s.6011596-.2686433.6011596-.6011596v-6.0115957c0-.2160417-.1164753-.4151759-.3024587-.5222575L6.2987009,1.2696253ZM6,5.0982603c.4150141,0,.7514495-.3364354.7514495-.7514495s-.3364354-.7514495-.7514495-.7514495-.7514495.3364356-.7514495.7514495.3364354.7514495.7514495.7514495M5.8497101,10.3584065v-1.6531888h.3005798v1.6531888c0,.2498571.201013.4508697.4508697.4508697s.4508697-.2010126.4508697-.4508697v-3.2781983l.5053495.9374329c.1183534.2197988.3907531.3005798.6105527.1841045s.3005798-.3907531.1841045-.6105527l-.7119981-1.3206726c-.2874292-.5354077-.8472596-.8698029-1.4559333-.8698029h-.3663316c-.6086741,0-1.1666256.3343952-1.4559333.8698029l-.7119982,1.3206722c-.1183533.2197992-.0356937.4921996.1841053.6105531s.4921994.0356935.6105529-.1841045l.5034713-.9374329v3.278199c0,.2498571.2010126.4508697.4508697.4508697s.4508697-.2010126.4508697-.4508697"/>
</svg>