<?xml version="1.0" encoding="UTF-8"?>
<svg id="Layer_1" xmlns="http://www.w3.org/2000/svg" version="1.1" viewBox="0 0 24 24">
  <!-- Generator: Adobe Illustrator 30.3.0, SVG Export Plug-In . SVG Version: 2.1.3 Build 182)  -->
  <defs>
    <style>
      .st0 {
        fill: #fdfaf5;
      }

      .st1 {
        fill: #1a1a1a;
      }
    </style>
  </defs>
  <g>
    <rect class="st1" x="1" y="1" width="22" height="22" rx="2" ry="2"/>
    <path class="st0" d="M21,2c.5522804,0,1,.4477196,1,1v18c0,.5522804-.4477196,1-1,1H3c-.5522799,0-1-.4477196-1-1V3c0-.5522804.4477201-1,1-1h18M21,0H3C1.3457899,0,0,1.3457909,0,3v18c0,1.6542091,1.3457899,3,3,3h18c1.6542091,0,3-1.3457909,3-3V3c0-1.6542091-1.3457909-3-3-3h0Z"/>
  </g>
  <path class="st0" d="M10.0729374,7.5380827c.8576011-1.5378598,1.2860624-2.3067896,1.9270633-2.3067896s1.0694623.76893,1.9270628,2.3067896l.2220151.3980025c.2436751.4372611.3655126.6558917.5550378.8000662s.4264314.1976471.9002437.3045935l.4304925.0974698c1.6651133.3770192,2.4969905.5651902,2.6953168,1.2021301.1976474.6362626-.3695737,1.3002762-1.5046925,2.627628l-.2937639.3431754c-.3221927.3770198-.4839657.5658678-.5563922.7987123-.0724254.2335217-.0480577.4853202.0006767.9882357l.0446732.4582435c.1712497,1.771382.2572117,2.6567335-.2612739,3.0499983s-1.2982463.0345211-2.856412-.6829675l-.4040942-.1854641c-.4426763-.2044163-.6640142-.3059471-.8988898-.3059471s-.4562135.1015309-.8988898.3059471l-.4034169.1854641c-1.558843.7174874-2.3386031,1.0762312-2.8564117.6836442-.5191631-.3939426-.4332-1.2792929-.2619506-3.0506749l.0446738-.457568c.0487352-.5035945.0731023-.7553929,0-.9882374-.0717487-.2335217-.2335217-.4223697-.5557143-.7987128l-.2937637-.3438526c-1.1351193-1.3266745-1.7023404-1.9906893-1.5046929-2.6276286s1.0308797-.8257863,2.6959922-1.2021286l.4304925-.0974698c.4731351-.1069462.709365-.1604194.8995665-.3045935s.3113627-.3628048.5550372-.8000664c0,0,.2220151-.3980025.2220145-.3979991Z"/>
</svg>