<?xml version="1.0" encoding="UTF-8"?>
<svg id="Layer_1" xmlns="http://www.w3.org/2000/svg" version="1.1" viewBox="0 0 24 24">
  <!-- Generator: Adobe Illustrator 30.3.0, SVG Export Plug-In . SVG Version: 2.1.3 Build 182)  -->
  <defs>
    <style>
      .st0 {
        fill: #fdfaf5;
      }

      .st1 {
        fill: #8c6c30;
      }
    </style>
  </defs>
  <rect class="st1" x="1" y="1" width="22" height="22" rx="6" ry="6"/>
  <path class="st0" d="M10.072937,7.5380826c.8576012-1.5378599,1.2860622-2.3067899,1.927063-2.3067899s1.0694618.76893,1.927063,2.3067894l.2220154.3980026c.2436752.4372616.3655128.6558914.5550375.800066s.4264317.1976471.9002438.3045931l.4304934.0974693c1.6651134.3770189,2.4969902.5651903,2.6953163,1.2021303.1976471.6362629-.3695736,1.3002758-1.5046921,2.6276283l-.2937641.3431759c-.3221931.3770199-.4839649.5658674-.5563927.7987127-.0724258.2335215-.0480576.4853201.0006771.9882355l.0446739.4582434c.1712494,1.7713814.2572117,2.6567345-.2612743,3.0499992s-1.2982464.0345211-2.8564119-.6829681l-.4040937-.1854649c-.4426765-.2044163-.6640139-.3059464-.8988895-.3059464s-.456214.1015301-.8988895.3059464l-.4034166.1854649c-1.5588427.7174873-2.338603,1.076231-2.8564119.6836433-.5191631-.3939419-.4331999-1.2792931-.2619505-3.0506744l.0446739-.4575682c.0487351-.5035944.0731025-.755393,0-.9882374-.0717487-.2335215-.2335215-.42237-.5557141-.7987127l-.2937636-.343853c-1.1351194-1.3266745-1.7023401-1.9906893-1.504693-2.6276283s1.03088-.8257866,2.6959925-1.2021284l.4304924-.0974693c.473135-.106946.7093649-.1604195.8995667-.3045931s.3113623-.3628044.5550375-.8000665c0,0,.2220154-.3980026.2220116-.3979998Z"/>
</svg>