<?xml version="1.0" encoding="UTF-8"?>
<svg id="Layer_1" xmlns="http://www.w3.org/2000/svg" version="1.1" viewBox="0 0 25 25">
  <!-- Generator: Adobe Illustrator 30.3.0, SVG Export Plug-In . SVG Version: 2.1.3 Build 182)  -->
  <path d="M9.1785775,4.8095905c1.4781319-2.6506039,2.2166148-3.9759058,3.3214214-3.9759058s1.8432896,1.3253021,3.3214214,3.9759058l.3826577.6859835c.4199896.7536487.629985,1.130473.9566436,1.3789675s.7349827.3406584,1.5516309.5249873l.741982.1679961c2.8699331.6498176,4.3037304.9741431,4.645557,2.0719515.3406584,1.0966402-.6369844,2.241113-2.593438,4.5288926l-.5063214.5914859c-.55532.6498181-.8341471.9753107-.9589779,1.3766344-.1248308.4024908-.0828304.8364802.001166,1.7032919l.0769982.7898147c.29516,3.053095.4433218,4.5790572-.4503223,5.256876s-2.2376128.0594993-4.9232158-1.1771397l-.6964836-.3196593c-.7629822-.352325-1.1444728-.5273204-1.5492967-.5273204s-.7863144.1749954-1.5492967.5273204l-.6953165.3196593c-2.6867696,1.2366367-4.0307377,1.8549562-4.9232164,1.1783057-.8948124-.6789848-.7466488-2.204947-.4514894-5.258042l.0769982-.7886487c.083998-.8679799.1259968-1.3019693,0-1.703293-.1236637-.4024908-.4024902-.7279823-.9578107-1.3766344l-.5063214-.5926531c-1.9564537-2.2866125-2.9340972-3.4310853-2.5934386-4.5288926s1.7767898-1.4232977,4.6467219-2.0719492l.7419826-.1679961c.8154805-.184329,1.2226375-.2764934,1.5504632-.5249873s.536654-.6253182.9566436-1.3789675l.3826577-.6859835Z"/>
</svg>