<?xml version="1.0" encoding="UTF-8"?>
<svg id="Layer_1" xmlns="http://www.w3.org/2000/svg" version="1.1" viewBox="0 0 12 12">
  <!-- Generator: Adobe Illustrator 30.3.0, SVG Export Plug-In . SVG Version: 2.1.3 Build 182)  -->
  <path d="M4.4057172,2.3086034c.7095035-1.2722899,1.0639751-1.9084348,1.5942824-1.9084348s.8847789.636145,1.5942824,1.9084348l.1836758.3292722c.2015955.3617514.3023932.5426271.4591891.6619043s.3527921.1635159.7447824.2519939l.3561511.080638c1.3775684.3119126,2.0657904.4675889,2.2298676.9945367.1635159.5263875-.3057523,1.0757341-1.2448499,2.1738684l-.2430341.2839133c-.266554.3119128-.4003903.468149-.4603098.6607841-.0599185.1931955-.0397586.4015109.0005594.8175797l.0369589.3791107c.1416769,1.4654855.2127942,2.1979477-.2161551,2.5233005s-1.0740546.0285599-2.3631436-.5650269l-.3343121-.1534369c-.3662315-.1691162-.5493471-.253114-.7436623-.253114s-.3774307.0839978-.7436623.253114l-.3337518.1534369c-1.2896494.5935858-1.9347542.8903787-2.3631438.5655872-.42951-.3259131-.3583914-1.0583743-.2167149-2.5238599l.0369592-.3785513c.0403191-.4166299.0604784-.6249454,0-.8175806-.0593587-.1931955-.1931953-.3494316-.4597491-.6607846l-.2430343-.2844736c-.9390978-1.097574-1.4083667-1.6469211-1.2448505-2.1738684s.8528592-.683183,2.2304266-.9945355l.3561516-.080638c.3914305-.0884779.5868661-.1327169.7442223-.2519939.157356-.119277.2575939-.3001527.4591889-.6619045,0,0,.1836758-.3292722.1836758-.3292717Z"/>
</svg>