<?xml version="1.0" encoding="UTF-8"?>
<svg id="Layer_1" xmlns="http://www.w3.org/2000/svg" version="1.1" viewBox="0 0 24 24">
  <!-- Generator: Adobe Illustrator 30.3.0, SVG Export Plug-In . SVG Version: 2.1.3 Build 182)  -->
  <defs>
    <style>
      .st0 {
        fill: #fdfaf5;
      }

      .st1 {
        fill: #1a1a1a;
      }
    </style>
  </defs>
  <g>
    <rect class="st1" x="1" y="1" width="22" height="22" rx="2" ry="2"/>
    <path class="st0" d="M21,2c.5522804,0,1,.4477196,1,1v18c0,.5522804-.4477196,1-1,1H3c-.5522799,0-1-.4477196-1-1V3c0-.5522804.4477201-1,1-1h18M21,0H3C1.3457899,0,0,1.3457909,0,3v18c0,1.6542091,1.3457899,3,3,3h18c1.6542091,0,3-1.3457909,3-3V3c0-1.6542091-1.3457909-3-3-3h0Z"/>
  </g>
  <path class="st0" d="M9.9563466,5.2313392c.2158584.1292606.2860585.4090339.1567977.6248914-.0000284.000047-.0000561.0000937-.0000839.0001407l-2.3197259,3.865905h8.4133323l-2.320638-3.8659055c-.129323-.2158731-.0591587-.4957093.1567132-.625032s.4957077-.0591598.6250326.1567134l2.6012644,4.3342234h1.1088386c.5032013,0,.9111242.4079243.9111242.9111256v.9111263c0,.5032007-.4079243.9111256-.9111242.9111256v4.1000638c0,1.258002-1.0198127,2.2778133-2.2778133,2.2778133H7.8999364c-1.2580016,0-2.2778137-1.0198127-2.2778137-2.2778133v-4.1000645c-.5032007,0-.9111254-.4079249-.9111254-.9111256v-.9111256c0-.5032007.4079249-.9111256.9111254-.9111256h1.1088396l2.5994412-4.3342232c.12926-.2158576.4090342-.2860583.6248913-.1567977.0000467.0000279.0000933.000056.0001407.000084,0,0,.0009111,0,.0009111.0000005ZM6.5332483,12.4556537v4.1000645c0,.7548006.6118871,1.3666891,1.3666884,1.3666891h8.200129c.7548006,0,1.3666891-.6118857,1.3666891-1.3666891v-4.1000645H6.5332483ZM5.6221226,10.6334025v.9111263h12.7557565v-.9111256s-12.755757,0-12.7557565-.0000007ZM8.3554992,13.3667793c.2516003,0,.4555628.2039628.4555628.4555621v2.7333754c0,.2515993-.2039621.4555621-.4555628.4555621s-.4555628-.2039628-.4555628-.4555621v-2.7333761c0-.2515993.2039621-.4555628.4555628-.4555628M10.17775,13.3667793c.2516007,0,.4555621.2039628.4555621.4555621v2.7333754c0,.2515993-.2039621.4555621-.4555621.4555621s-.4555621-.2039628-.4555621-.4555621v-2.7333761c0-.2515993.2039621-.4555628.4555621-.4555628M12.0000012,13.3667793c.2515993,0,.4555621.2039628.4555621.4555621v2.7333754c0,.2515993-.2039628.4555621-.4555621.4555621-.2516007,0-.4555621-.2039628-.4555621-.4555621v-2.7333761c0-.2515993.2039621-.4555628.4555621-.4555628M13.8222524,13.3667793c.2515993,0,.4555621.2039628.4555621.4555621v2.7333754c0,.2515993-.2039628.4555621-.4555621.4555621s-.4555621-.2039628-.4555621-.4555621v-2.7333761c0-.2515993.2039628-.4555628.4555621-.4555628M15.6445036,13.3667793c.2515993,0,.4555621.2039628.4555621.4555621v2.7333754c0,.2515993-.2039628.4555621-.4555621.4555621s-.4555621-.2039628-.4555621-.4555621v-2.7333761c0-.2515993.2039628-.4555628.4555621-.4555628"/>
</svg>