<?xml version="1.0" encoding="UTF-8"?>
<svg id="Layer_1" xmlns="http://www.w3.org/2000/svg" version="1.1" viewBox="0 0 25 25">
  <!-- Generator: Adobe Illustrator 30.3.0, SVG Export Plug-In . SVG Version: 2.1.3 Build 182)  -->
  <path d="M9.4984779,2.5588406c.3170317.1898455.4201353.6007497.2302896.9177806-.0000417.0000689-.0000825.0001377-.0001234.0002066l-3.4069907,5.6778707h12.3566957l-3.4083306-5.6778714c-.1899367-.3170537-.0868867-.7280505.2301654-.917987s.728049-.086888.9179875.2301657l3.8204872,6.3656927h1.6285562c.739054,0,1.3381738.5991206,1.3381738,1.3381738v1.3381746c0,.7390531-.5991198,1.3381738-1.3381738,1.3381738v6.0217812c0,1.8476324-1.497802,3.3454344-3.3454344,3.3454344H6.4782197c-1.8476324,0-3.3454344-1.497802-3.3454344-3.3454344v-6.021782c-.7390529,0-1.3381738-.5991206-1.3381738-1.3381738v-1.3381738c0-.7390531.5991209-1.3381738,1.3381738-1.3381738h1.6285573l3.81781-6.3656919c.1898453-.3170308.6007495-.420135.9177803-.2302895.0000689.0000411.0001378.0000823.0002067.0001236,0,0,.0013383,0,.0013383-.0000002ZM4.470959,13.1692208v6.0217812c0,1.1085801.898681,2.0072607,2.0072607,2.0072607h12.043564c1.1085801,0,2.0072607-.8986805,2.0072607-2.0072607v-6.021782s-16.0580853,0-16.0580853.0000009ZM3.1327852,10.4928732v1.3381746h18.7344329v-1.3381738s-18.7344329,0-18.7344329-.0000009ZM7.1473066,14.5073945c.3695266,0,.6690869.2995616.6690869.6690869v4.0145205c0,.3695261-.2995603.6690869-.6690869.6690869s-.6690869-.2995607-.6690869-.6690869v-4.0145213c0-.3695253.2995603-.6690869.6690869-.6690869M9.8236541,14.5073945c.369527,0,.6690869.2995616.6690869.6690869v4.0145205c0,.3695261-.2995599.6690869-.6690869.6690869s-.6690869-.2995607-.6690869-.6690869v-4.0145213c0-.3695253.2995599-.6690869.6690869-.6690869M12.5000017,14.5073945c.3695253,0,.6690869.2995616.6690869.6690869v4.0145205c0,.3695261-.2995616.6690869-.6690869.6690869-.369527,0-.6690869-.2995607-.6690869-.6690869v-4.0145213c0-.3695253.2995599-.6690869.6690869-.6690869M15.1763493,14.5073945c.3695253,0,.6690869.2995616.6690869.6690869v4.0145205c0,.3695261-.2995616.6690869-.6690869.6690869s-.6690869-.2995607-.6690869-.6690869v-4.0145213c0-.3695253.2995616-.6690869.6690869-.6690869M17.8526968,14.5073945c.3695261,0,.6690869.2995616.6690869.6690869v4.0145205c0,.3695261-.2995607.6690869-.6690869.6690869s-.6690869-.2995607-.6690869-.6690869v-4.0145213c0-.3695253.2995607-.6690869.6690869-.6690869"/>
</svg>