<?xml version="1.0" encoding="UTF-8"?>
<svg id="Layer_1" xmlns="http://www.w3.org/2000/svg" version="1.1" viewBox="0 0 18 18">
  <!-- Generator: Adobe Illustrator 30.3.0, SVG Export Plug-In . SVG Version: 2.1.3 Build 182)  -->
  <defs>
    <style>
      .st0 {
        fill: #1a1a1a;
      }
    </style>
  </defs>
  <path class="st0" d="M6.476625.6424871c.2665277.1596027.3532066.5050492.193604.7715763-.0000348.0000579-.0000691.0001158-.000104.0001737l-2.8642499,4.7733749h10.3882501l-2.8653765-4.773375c-.1596794-.2665464-.0730457-.6120706.1934996-.7717499s.6120701-.0730465.7717495.1934999l3.2118759,5.3516251h1.3691244c.6213207,0,1.125.5036798,1.125,1.125v1.1250005c0,.6213207-.5036793,1.125-1.125,1.125v5.0625c0,1.5533009-1.2591991,2.8125-2.8125,2.8125H3.9375c-1.5533009,0-2.8125-1.2591991-2.8125-2.8125v-5.0625c-.6213203,0-1.125-.5036793-1.125-1.125v-1.125c0-.6213202.5036797-1.125,1.125-1.125h1.3691249L5.7037501.8359872c.1596026-.2665272.5050492-.3532067.7715759-.193604.0000577.0000346.0001159.0000692.0001736.0001039h.0011253ZM2.25,9.5626125v5.0625c0,.9319811.7555194,1.6875,1.6875,1.6875h10.125c.9319811,0,1.6875-.7555189,1.6875-1.6875v-5.0625H2.25ZM1.125,7.3126121v1.1250005h15.75v-1.125s-15.75,0-15.75-.0000005ZM4.5,10.6876125c.3106604,0,.5625.2518406.5625.5625v3.375c0,.3106594-.2518396.5625-.5625.5625s-.5625-.2518406-.5625-.5625v-3.375c0-.3106594.2518396-.5625.5625-.5625M6.75,10.6876125c.3106604,0,.5625.2518406.5625.5625v3.375c0,.3106594-.2518396.5625-.5625.5625s-.5625-.2518406-.5625-.5625v-3.375c0-.3106594.2518396-.5625.5625-.5625M9,10.6876125c.3106594,0,.5625.2518406.5625.5625v3.375c0,.3106594-.2518406.5625-.5625.5625-.3106604,0-.5625-.2518406-.5625-.5625v-3.375c0-.3106594.2518396-.5625.5625-.5625M11.25,10.6876125c.3106594,0,.5625.2518406.5625.5625v3.375c0,.3106594-.2518406.5625-.5625.5625s-.5625-.2518406-.5625-.5625v-3.375c0-.3106594.2518406-.5625.5625-.5625M13.5,10.6876125c.3106594,0,.5625.2518406.5625.5625v3.375c0,.3106594-.2518406.5625-.5625.5625s-.5625-.2518406-.5625-.5625v-3.375c0-.3106594.2518406-.5625.5625-.5625"/>
</svg>