<?xml version="1.0" encoding="UTF-8"?>
<svg id="Layer_1" xmlns="http://www.w3.org/2000/svg" version="1.1" viewBox="0 0 24 24">
  <!-- Generator: Adobe Illustrator 30.3.0, SVG Export Plug-In . SVG Version: 2.1.3 Build 182)  -->
  <defs>
    <style>
      .st0 {
        fill: #8c3a29;
      }

      .st1 {
        fill: #fdfaf5;
      }
    </style>
  </defs>
  <rect class="st0" x="1" y="1" width="22" height="22" rx="6" ry="6"/>
  <path class="st1" d="M9.9563465,5.231339c.2158585.1292605.2860584.4090338.1567974.6248913-.0000286.0000472-.0000563.0000939-.0000839.0001407l-2.319726,3.8659048h8.413331l-2.3206377-3.8659058c-.129323-.2158732-.0591583-.4957094.1567135-.6250319s.4957075-.0591598.6250324.1567135l2.601264,4.3342233h1.108839c.5032005,0,.9111252.4079247.9111252.9111252v.9111261c0,.5032005-.4079247.9111252-.9111252.9111252v4.1000643c0,1.2580013-1.0198135,2.277813-2.277813,2.277813H7.8999362c-1.2580018,0-2.2778134-1.0198135-2.2778134-2.277813v-4.1000643c-.5032005,0-.9111252-.4079247-.9111252-.9111252v-.9111252c0-.5032005.4079247-.9111252.9111252-.9111252h1.1088395l2.5994411-4.3342233c.1292601-.2158575.4090338-.2860584.6248913-.1567979.0000467.0000281.0000935.0000558.0001411.0000839,0,0,.0009108,0,.0009108.0000005ZM6.5332484,12.4556541v4.1000633c0,.7548008.611887,1.3666897,1.3666883,1.3666897h8.2001286c.7548008,0,1.3666897-.6118851,1.3666897-1.3666897v-4.1000643s-10.9335065,0-10.9335065.000001ZM5.6221228,10.6334028v.9111261h12.7557573v-.9111252s-12.7557573,0-12.7557573-.000001ZM8.3554993,13.3667793c.2516003,0,.4555626.2039623.4555626.4555626v2.7333755c0,.2515984-.2039623.4555626-.4555626.4555626s-.4555626-.2039623-.4555626-.4555626v-2.7333755c0-.2515993.2039623-.4555626.4555626-.4555626M10.1777496,13.3667793c.2516003,0,.4555626.2039623.4555626.4555626v2.7333755c0,.2515984-.2039623.4555626-.4555626.4555626s-.4555626-.2039623-.4555626-.4555626v-2.7333755c0-.2515993.2039623-.4555626.4555626-.4555626M12.000001,13.3667793c.2515993,0,.4555616.2039623.4555616.4555626v2.7333755c0,.2515984-.2039623.4555626-.4555626.4555626s-.4555626-.2039623-.4555626-.4555626v-2.7333755c0-.2515993.2039623-.4555626.4555626-.4555626M13.8222523,13.3667793c.2515993,0,.4555626.2039623.4555626.4555626v2.7333755c0,.2515984-.2039623.4555626-.4555626.4555626s-.4555626-.2039623-.4555626-.4555626v-2.7333755c0-.2515993.2039623-.4555626.4555626-.4555626M15.6445036,13.3667793c.2515993,0,.4555616.2039623.4555616.4555626v2.7333755c0,.2515984-.2039623.4555626-.4555626.4555626s-.4555626-.2039623-.4555626-.4555626v-2.7333755c0-.2515993.2039623-.4555626.4555626-.4555626"/>
</svg>