<?xml version="1.0" encoding="UTF-8"?>
<svg id="Layer_1" xmlns="http://www.w3.org/2000/svg" version="1.1" viewBox="0 0 12 12">
  <!-- Generator: Adobe Illustrator 30.3.0, SVG Export Plug-In . SVG Version: 2.1.3 Build 182)  -->
  <path d="M4.5592694,1.2282434c.1521753.0911259.201665.2883599.1105389.4405347-.0000201.0000331-.0000398.0000661-.0000591.0000992l-1.6353557,2.7253778h5.9312137l-1.6359988-2.7253782c-.0911696-.1521858-.0417055-.3494642.1104794-.4406337s.3494632-.0417063.4406342.1104795l1.8338342,3.0555323h.7817065c.3547458,0,.642323.2875777.642323.6423235v.6423239c0,.3547453-.2875772.6423235-.642323.6423235v2.8904549c0,.886864-.7189453,1.6058084-1.6058084,1.6058084H3.1095454c-.8868636,0-1.6058085-.7189453-1.6058085-1.6058084v-2.8904553c-.3547454,0-.6423234-.2875781-.6423234-.6423235v-.6423235c0-.3547453.2875781-.6423235.6423234-.6423235h.7817076l1.8325491-3.055532c.0911256-.1521748.28836-.2016648.4405344-.1105389.000033.0000197.0000659.0000395.0000993.0000593,0,0,.0006422,0,.0006422-.0000001ZM2.1460604,6.321226v2.8904549c0,.5321182.431367.9634854.9634852.9634854h5.7809106c.5321182,0,.9634854-.4313663.9634854-.9634854v-2.8904553s-7.7078806,0-7.7078812.0000005ZM1.5037368,5.0365791v.6423239h8.9925278v-.6423235s-8.9925275,0-8.9925278-.0000005ZM3.4307071,6.9635495c.1773727,0,.3211617.1437895.3211617.3211615v1.9269699c0,.1773724-.1437888.3211615-.3211617.3211615s-.3211617-.1437891-.3211617-.3211615v-1.9269699c0-.177372.1437888-.3211615.3211617-.3211615M4.715354,6.9635495c.1773729,0,.3211615.1437895.3211615.3211615v1.9269699c0,.1773724-.1437886.3211615-.3211615.3211615s-.3211615-.1437891-.3211615-.3211615v-1.9269699c0-.177372.1437886-.3211615.3211615-.3211615M6.0000009,6.9635495c.177372,0,.3211615.1437895.3211615.3211615v1.9269699c0,.1773724-.1437895.3211615-.3211615.3211615-.1773729,0-.3211615-.1437891-.3211615-.3211615v-1.9269699c0-.177372.1437886-.3211615.3211615-.3211615M7.2846478,6.9635495c.177372,0,.3211615.1437895.3211615.3211615v1.9269699c0,.1773724-.1437895.3211615-.3211615.3211615s-.3211615-.1437891-.3211615-.3211615v-1.9269699c0-.177372.1437895-.3211615.3211615-.3211615M8.5692947,6.9635495c.1773724,0,.3211615.1437895.3211615.3211615v1.9269699c0,.1773724-.1437891.3211615-.3211615.3211615s-.3211615-.1437891-.3211615-.3211615v-1.9269699c0-.177372.1437891-.3211615.3211615-.3211615"/>
</svg>