<?xml version="1.0" encoding="UTF-8"?>
<svg id="Layer_1" xmlns="http://www.w3.org/2000/svg" version="1.1" viewBox="0 0 12 12">
  <!-- Generator: Adobe Illustrator 30.3.0, SVG Export Plug-In . SVG Version: 2.1.3 Build 182)  -->
  <defs>
    <style>
      .st0 {
        fill: #1a1a1a;
      }
    </style>
  </defs>
  <path class="st0" d="M4.31775.4283247c.1776851.1064018.2354711.3366994.1290693.5143842-.0000232.0000386-.0000461.0000772-.0000693.0001158l-1.9095,3.1822499h6.9255001l-1.910251-3.18225c-.1064529-.1776976-.0486972-.4080471.1289997-.5144999s.4080467-.0486977.5144997.1289999l2.1412506,3.5677501h.9127496c.4142138,0,.75.3357865.75.75v.7500003c0,.4142138-.3357862.75-.75.75v3.375c0,1.0355339-.8394661,1.875-1.875,1.875H2.625c-1.0355339,0-1.875-.8394661-1.875-1.875v-3.375c-.4142135,0-.75-.3357862-.75-.75v-.75c0-.4142135.3357865-.75.75-.75h.9127499L3.8025001.5573248c.1064018-.1776848.3366995-.2354711.514384-.1290693.0000385.000023.0000772.0000461.0001157.0000693h.0007502ZM1.5,6.375075v3.375c0,.6213207.5036796,1.125,1.125,1.125h6.75c.6213207,0,1.125-.5036793,1.125-1.125v-3.375H1.5ZM.75,4.8750747v.7500003h10.5v-.75s-10.5,0-10.5-.0000003ZM3,7.125075c.2071069,0,.375.1678937.375.375v2.25c0,.2071063-.1678931.375-.375.375s-.375-.1678937-.375-.375v-2.25c0-.2071063.1678931-.375.375-.375M4.5,7.125075c.2071069,0,.375.1678937.375.375v2.25c0,.2071063-.1678931.375-.375.375s-.375-.1678937-.375-.375v-2.25c0-.2071063.1678931-.375.375-.375M6,7.125075c.2071063,0,.375.1678937.375.375v2.25c0,.2071063-.1678937.375-.375.375-.2071069,0-.375-.1678937-.375-.375v-2.25c0-.2071063.1678931-.375.375-.375M7.5,7.125075c.2071063,0,.375.1678937.375.375v2.25c0,.2071063-.1678937.375-.375.375s-.375-.1678937-.375-.375v-2.25c0-.2071063.1678937-.375.375-.375M9,7.125075c.2071063,0,.375.1678937.375.375v2.25c0,.2071063-.1678937.375-.375.375s-.375-.1678937-.375-.375v-2.25c0-.2071063.1678937-.375.375-.375"/>
</svg>