<?xml version="1.0" encoding="UTF-8"?>
<svg id="Layer_1" xmlns="http://www.w3.org/2000/svg" version="1.1" viewBox="0 0 25 25">
  <!-- Generator: Adobe Illustrator 30.3.0, SVG Export Plug-In . SVG Version: 2.1.3 Build 182)  -->
  <defs>
    <style>
      .st0, .st1 {
        fill: none;
      }

      .st1 {
        stroke: #000;
        stroke-linecap: round;
        stroke-linejoin: round;
        stroke-width: .75px;
      }
    </style>
  </defs>
  <path class="st0" d="M0,0h25.0000019v25.0000019H0V0Z"/>
  <g>
    <path d="M6.0690929,2.5462132c1.0928282,0,1.9787407.8859124,1.9787407,1.9787407s-.8859124,1.9787407-1.9787407,1.9787407-1.9787407-.8859124-1.9787407-1.9787407.8859124-1.9787407,1.9787407-1.9787407"/>
    <path d="M4.5850374,7.4930648h2.968111c1.0928282,0,1.9787407.8859124,1.9787407,1.9787407v5.4415368h-1.4840555v7.4202774h-3.9574813v-7.4202774h-1.4840555v-5.4415368c0-1.0928282.8859124-1.9787407,1.9787407-1.9787407"/>
  </g>
  <g>
    <path d="M17.9415368,2.5462132c1.0928292,0,1.9787407.8859124,1.9787407,1.9787407s-.8859115,1.9787407-1.9787407,1.9787407c-1.0928273,0-1.9787407-.8859124-1.9787407-1.9787407s.8859134-1.9787407,1.9787407-1.9787407"/>
    <path d="M16.4574813,22.3336197v-5.936222h-2.968111l2.5624693-7.5093209c.2473426-.8112834.9992643-1.395012,1.8896972-1.395012s1.6423546.5837286,1.8896972,1.395012l2.5624693,7.5093209h-2.968111v5.936222h-2.968111Z"/>
  </g>
  <line class="st1" x1="12.0053148" y1="1.977853" x2="12.0053148" y2="23.022147"/>
</svg>