<?xml version="1.0" encoding="UTF-8"?>
<svg id="Layer_1" xmlns="http://www.w3.org/2000/svg" version="1.1" viewBox="0 0 18 18">
  <!-- Generator: Adobe Illustrator 30.3.0, SVG Export Plug-In . SVG Version: 2.1.3 Build 182)  -->
  <path d="M3.343098,1.9874094c0,1.1034376.894513,1.9979506,1.9979506,1.9979506s1.9979506-.894513,1.9979506-1.9979506S6.4444865-.0105412,5.3410486-.0105412s-1.9979506.8945129-1.9979506,1.9979506"/>
  <path d="M14.6648179-.0105412c1.1034379,0,1.9979506.8945129,1.9979506,1.9979506s-.8945127,1.9979506-1.9979506,1.9979506-1.9979506-.894513-1.9979506-1.9979506S13.5613801-.0105412,14.6648179-.0105412"/>
  <path d="M3.7293684,4.6803295c-.4779081.0001543-.919105.2563333-1.1561474.6713116L.1010902,9.6778697c-.1899901.3149445-.0886947.7242746.2262495.914264.3149442.1899907.7242743.0886948.9142643-.226249.0054262-.0089947.0106389-.0181178.0156336-.0273589l1.8807374-3.2926227c-.8382153,2.3127801-1.6578452,4.6322533-2.4588111,6.9581958h2.6639341v3.3299176c0,.3678122.298171.6659835.6659835.6659835s.6659835-.2981713.6659835-.6659835v-3.3299176h1.3319671v3.3299176c0,.3678122.2981707.6659835.6659835.6659835s.6659835-.2981713.6659835-.6659835v-3.3299176h2.6639341l-2.5267413-7.0767412,1.9486676,3.4111681c.1748771.3235804.5789566.4441283.9025369.2692512.3235791-.1748771.4441271-.5789566.2692512-.9025363-.0049972-.0092456-.0102116-.0183718-.0156407-.0273704l-2.4721308-4.3262292c-.2370425-.4149783-.678239-.6711573-1.1561474-.6713116h-3.2233604Z"/>
  <path d="M11.3349003,5.346313c0-.3678128.2981713-.6659835.6659835-.6659835h5.3278682c.3678122,0,.6659835.2981707.6659835.6659835v6.6598353c0,.3678122-.2981713.6659835-.6659835.6659835s-.6659835-.2981713-.6659835-.6659835v5.3278682c0,.3678122-.2981713.6659835-.6659835.6659835s-.6659835-.2981713-.6659835-.6659835v-5.3278682h-1.3319671v5.3278682c0,.3678122-.2981713.6659835-.6659835.6659835s-.6659835-.2981713-.6659835-.6659835v-5.3278682c0,.3678122-.2981713.6659835-.6659835.6659835s-.6659835-.2981713-.6659835-.6659835v-6.6598353Z"/>
</svg>