<?xml version="1.0" encoding="UTF-8"?>
<svg id="Layer_1" xmlns="http://www.w3.org/2000/svg" version="1.1" viewBox="0 0 18 18">
  <!-- Generator: Adobe Illustrator 30.3.0, SVG Export Plug-In . SVG Version: 2.1.3 Build 182)  -->
  <defs>
    <style>
      .st0 {
        fill: #1a1a1a;
      }
    </style>
  </defs>
  <path class="st0" d="M3.3430979,1.9874094c0,1.1034377.8945129,1.9979506,1.9979503,1.9979506s1.9979506-.8945129,1.9979506-1.9979506S6.4444866-.0105412,5.3410487-.0105412s-1.9979506.8945129-1.9979506,1.9979506"/>
  <path class="st0" d="M14.6648178-.0105412c1.1034374,0,1.9979515.8945129,1.9979515,1.9979506s-.8945131,1.9979506-1.9979506,1.9979506-1.9979506-.8945129-1.9979506-1.9979506S13.5613804-.0105412,14.6648178-.0105412"/>
  <path class="st0" d="M3.7293684,4.6803293c-.4779081.0001545-.9191051.2563334-1.1561472.6713114L.1010902,9.6778698c-.1899901.3149443-.0886947.7242746.2262495.9142637.3149442.189991.7242743.0886946.9142644-.2262487.0054262-.0089951.010639-.0181179.0156336-.027359l1.8807375-3.2926226c-.8382154,2.3127804-1.6578453,4.6322527-2.458811,6.9581957h2.663934v3.3299179c0,.3678131.298171.6659832.6659837.6659832s.6659837-.298172.6659837-.6659832v-3.3299179h1.3319669v3.3299179c0,.3678131.2981706.6659832.6659837.6659832s.6659837-.298172.6659837-.6659832v-3.3299179h2.6639338l-2.526741-7.0767412,1.9486675,3.4111681c.1748772.3235807.5789566.444128.9025373.2692509.3235788-.1748772.4441271-.5789566.2692509-.9025364-.0049973-.0092459-.0102119-.0183716-.0156403-.0273705l-2.4721308-4.3262291c-.2370424-.4149785-.6782389-.6711574-1.1561475-.6713114h-3.2233613Z"/>
  <path class="st0" d="M11.3348999,5.346313c0-.3678126.298171-.6659837.6659832-.6659837h5.3278675c.3678131,0,.6659832.2981706.6659832.6659837v6.6598353c0,.3678122-.298172.6659832-.6659832.6659832s-.6659832-.298171-.6659832-.6659832v5.3278685c0,.3678131-.298172.6659832-.6659832.6659832s-.6659832-.298172-.6659832-.6659832v-5.3278675h-1.3319674v5.3278675c0,.3678131-.298171.6659832-.6659832.6659832s-.6659832-.298172-.6659832-.6659832v-5.3278675c0,.3678122-.298171.6659832-.6659832.6659832s-.6659832-.298171-.6659832-.6659832c0,0,0-6.6598353-.000001-6.6598363Z"/>
</svg>