<?xml version="1.0" encoding="UTF-8"?>
<svg id="Layer_1" xmlns="http://www.w3.org/2000/svg" version="1.1" viewBox="0 0 12 12">
  <!-- Generator: Adobe Illustrator 30.3.0, SVG Export Plug-In . SVG Version: 2.1.3 Build 182)  -->
  <defs>
    <style>
      .st0 {
        fill: #1a1a1a;
      }
    </style>
  </defs>
  <path class="st0" d="M2.228732,1.3249396c0,.7356251.5963419,1.331967,1.3319669,1.331967s1.331967-.5963419,1.331967-1.331967S4.2963244-.0070275,3.5606991-.0070275s-1.331967.5963419-1.331967,1.331967"/>
  <path class="st0" d="M9.7765452-.0070275c.7356249,0,1.3319677.5963419,1.3319677,1.331967s-.5963421,1.331967-1.331967,1.331967-1.331967-.5963419-1.331967-1.331967S9.0409203-.0070275,9.7765452-.0070275"/>
  <path class="st0" d="M2.4862456,3.1202195c-.3186054.000103-.6127367.1708889-.7707648.4475409L.0673935,6.4519132c-.1266601.2099628-.0591298.4828498.150833.6095092.2099628.1266607.4828496.0591297.6095096-.1508325.0036174-.0059967.0070926-.0120786.0104224-.0182393l1.253825-2.1950817c-.5588102,1.5418536-1.1052302,3.0881685-1.6392074,4.6387971h1.775956v2.2199453c0,.2452087.1987807.4439888.4439891.4439888s.4439891-.1987813.4439891-.4439888v-2.2199453h.8879779v2.2199453c0,.2452087.1987804.4439888.4439891.4439888s.4439891-.1987813.4439891-.4439888v-2.2199453h1.7759558l-1.684494-4.7178275,1.2991117,2.2741121c.1165848.2157205.3859711.2960854.6016916.1795006.2157192-.1165848.2960847-.3859711.1795006-.6016909-.0033315-.0061639-.006808-.0122477-.0104268-.018247l-1.6480872-2.8841527c-.1580283-.2766523-.4521592-.4474382-.770765-.4475409h-2.1489075Z"/>
  <path class="st0" d="M7.5565999,3.5642087c0-.2452084.1987807-.4439891.4439888-.4439891h3.5519117c.2452087,0,.4439888.1987804.4439888.4439891v4.4398902c0,.2452081-.1987813.4439888-.4439888.4439888s-.4439888-.1987807-.4439888-.4439888v3.5519123c0,.2452087-.1987813.4439888-.4439888.4439888s-.4439888-.1987813-.4439888-.4439888v-3.5519117h-.8879782v3.5519117c0,.2452087-.1987807.4439888-.4439888.4439888s-.4439888-.1987813-.4439888-.4439888v-3.5519117c0,.2452081-.1987807.4439888-.4439888.4439888s-.4439888-.1987807-.4439888-.4439888c0,0,0-4.4398902-.0000006-4.4398909Z"/>
</svg>