<?xml version="1.0" encoding="UTF-8"?>
<svg id="Layer_1" xmlns="http://www.w3.org/2000/svg" version="1.1" viewBox="0 0 24 24">
  <!-- Generator: Adobe Illustrator 30.3.0, SVG Export Plug-In . SVG Version: 2.1.3 Build 182)  -->
  <defs>
    <style>
      .st0 {
        fill: none;
        stroke: #fdfaf5;
        stroke-linecap: round;
        stroke-linejoin: round;
        stroke-width: .72px;
      }

      .st1 {
        fill: #343739;
      }

      .st2 {
        fill: #fdfaf5;
      }
    </style>
  </defs>
  <rect class="st1" x="1" y="1" width="22" height="22" rx="6" ry="6"/>
  <g>
    <g>
      <path class="st2" d="M6.976026,4.967185c.7704522,0,1.395027.6245748,1.395027,1.395027s-.6245748,1.395027-1.395027,1.395027-1.395027-.6245752-1.395027-1.395027.6245748-1.395027,1.395027-1.395027"/>
      <path class="st2" d="M5.9297552,8.4547526h2.0925407c.7704518,0,1.3950274.6245748,1.3950274,1.3950274v3.8363234h-1.0462703v5.2313508h-2.790054v-5.2313508h-1.0462703v-3.8363243c0-.7704518.6245748-1.3950266,1.395027-1.3950266"/>
    </g>
    <g>
      <path class="st2" d="M16.9631026,4.967185c.7704526,0,1.3950266.6245748,1.3950266,1.395027s-.6245739,1.395027-1.3950266,1.395027c-.7704509,0-1.3950274-.6245752-1.3950274-1.395027s.6245765-1.395027,1.3950274-1.395027"/>
      <path class="st2" d="M15.9168331,18.9174543v-4.1850814h-1.4558984l1.1699174-5.2941277c.1743785-.5719604.7044885-.9834943,1.3322505-.9834943s1.1578728.4115331,1.3322505.9834935l1.1699182,5.2941269h-1.4558975v4.1850814s-2.0925415,0-2.0925407.0000017Z"/>
    </g>
  </g>
  <line class="st0" x1="12" y1="5.9474535" x2="12" y2="18.0525465"/>
</svg>