<?xml version="1.0" encoding="UTF-8"?>
<svg id="Layer_1" xmlns="http://www.w3.org/2000/svg" version="1.1" viewBox="0 0 24 24">
  <!-- Generator: Adobe Illustrator 30.3.0, SVG Export Plug-In . SVG Version: 2.1.3 Build 182)  -->
  <defs>
    <style>
      .st0, .st1 {
        fill: none;
      }

      .st2 {
        fill: #fdfaf5;
      }

      .st1 {
        stroke: #fdfaf5;
        stroke-linecap: round;
        stroke-linejoin: round;
        stroke-width: .72px;
      }

      .st3 {
        fill: #1a1a1a;
      }
    </style>
  </defs>
  <g>
    <rect class="st3" x="1" y="1" width="22" height="22" rx="2" ry="2"/>
    <path class="st2" d="M21,2c.5522804,0,1,.4477196,1,1v18c0,.5522804-.4477196,1-1,1H3c-.5522799,0-1-.4477196-1-1V3c0-.5522804.4477201-1,1-1h18M21,0H3C1.3457899,0,0,1.3457909,0,3v18c0,1.6542091,1.3457899,3,3,3h18c1.6542091,0,3-1.3457909,3-3V3c0-1.6542091-1.3457909-3-3-3h0Z"/>
  </g>
  <path class="st0" d="M0,0h24.0000019v24.0000019H0V0Z"/>
  <g>
    <g>
      <path class="st2" d="M6.8518108,4.1346719c.862409,0,1.5615295.6991207,1.5615295,1.5615295s-.6991205,1.5615295-1.5615295,1.5615295-1.5615295-.6991209-1.5615295-1.5615295.6991205-1.5615295,1.5615295-1.5615295"/>
      <path class="st2" d="M5.6806633,8.0384959h2.3422945c.8624082,0,1.5615299.6991201,1.5615299,1.5615299v4.2942061h-1.171147v5.855736h-3.1230592v-5.855736h-1.1711472v-4.2942061c0-.8624082.6991207-1.5615295,1.5615295-1.5615295"/>
    </g>
    <g>
      <path class="st2" d="M17.0800522,4.1346719c.8624098,0,1.5615299.6991207,1.5615299,1.5615295s-.6991201,1.5615295-1.5615299,1.5615295c-.8624082,0-1.5615299-.6991209-1.5615299-1.5615295s.6991217-1.5615295,1.5615299-1.5615295"/>
      <path class="st2" d="M15.9089051,19.7499678v-4.6845889h-1.6296666l1.3095526-5.9260056c.1951918-.6402268.7885723-1.1008782,1.491261-1.1008782s1.2960692.4606513,1.491261,1.1008782l1.3095526,5.9260048h-1.6296658v4.6845882s-2.3422956,0-2.3422949.0000016Z"/>
    </g>
  </g>
  <line class="st1" x1="12" y1="4.4331551" x2="12" y2="19.5668448"/>
</svg>