<?xml version="1.0" encoding="UTF-8"?>
<svg id="Layer_1" xmlns="http://www.w3.org/2000/svg" version="1.1" viewBox="0 0 12 12">
  <!-- Generator: Adobe Illustrator 30.3.0, SVG Export Plug-In . SVG Version: 2.1.3 Build 182)  -->
  <defs>
    <style>
      .st0, .st1 {
        fill: none;
      }

      .st1 {
        stroke: #000;
        stroke-linecap: round;
        stroke-linejoin: round;
        stroke-width: .36px;
      }
    </style>
  </defs>
  <path class="st0" d="M0,0h12.0000009v12.0000009H0V0Z"/>
  <g>
    <path d="M2.9131645,1.2221823c.5245576,0,.9497955.425238.9497955.9497955s-.425238.9497955-.9497955.9497955-.9497955-.425238-.9497955-.9497955.425238-.9497955.9497955-.9497955"/>
    <path d="M2.2008179,3.5966711h1.4246933c.5245573,0,.9497955.4252377.9497955.9497955v2.6119377h-.7123466v3.5617332h-1.8995911v-3.5617332h-.7123466v-2.6119377c0-.5245573.425238-.9497955.9497955-.9497955"/>
  </g>
  <g>
    <path d="M8.6119373,1.2221823c.5245578,0,.9497955.425238.9497955.9497955s-.4252377.9497955-.9497955.9497955c-.5245569,0-.9497955-.425238-.9497955-.9497955s.4252386-.9497955.9497955-.9497955"/>
    <path d="M7.8995911,10.7201376v-2.8493866h-1.4246933l1.2299854-3.6044742c.1187247-.3894159.4796466-.6696057.9070551-.6696057s.7883304.2801898.9070551.6696057l1.2299854,3.6044742h-1.4246933v2.8493866h-1.4246942Z"/>
  </g>
  <line class="st1" x1="5.7625511" y1=".9493694" x2="5.7625511" y2="11.0506302"/>
</svg>