<?xml version="1.0" encoding="UTF-8"?>
<svg id="_圖層_1" data-name="圖層_1" xmlns="http://www.w3.org/2000/svg" version="1.1" viewBox="0 0 18 18">
  <path fill="currentColor" d="M9.813218,7.8162365h8.1087755l-.0429038-.2847238C17.2355361,3.5882844,14.0684728.5382302,10.1018418.0506896l-.2886238-.0312026v1.6420368l.2613223.0312026c2.496208.3666305,4.6296851,1.9891656,5.6554713,4.2942579l.1014087.24182h-6.0182022v-.553846l.0039006-.0780065c.0234022-.2340195.1755146-.4524379.3822314-.5616466l.0741059-.0312027,1.4119181-.553846v-1.6186352l-.0039006-.0585049c-.0156011-.1170098-.1014087-.226219-.2067168-.2730228l-.0546043-.0195016-.2769233-.0741062c-1.404117-.3393283-2.8706395-.3432286-4.2747565,0l-.2769233.0741062-.0546043.0195016c-.1092092.0468038-.1911157.156013-.2067173.2730228l-.0039006.0585049v1.6186349l1.4119175.553846.070206.0312024c.2340195.1209103.3900325.3783314.3861319.6396531v.553846H2.1646804l.1014084-.24182c1.0257853-2.3089923,3.155363-3.9237269,5.6554716-4.2942578l.2613217-.0312026V.019487l-.2847238.0312026C3.935428.5382302.7605634,3.5882844.1209101,7.5315132l-.0429036.2847233h8.1048755v1.1661969H0l.0039003.2886238.0156013.2886238c.3081257,4.6335857,4.0524378,8.2608879,8.6938242,8.4169009l.2886238.0039006.2886238-.0039006c4.6374862-.156013,8.3895994-3.7833153,8.6899249-8.4169015l.0156011-.2886238.0039006-.2886238h-8.186782v-1.1661963ZM16.1863489,10.6049688l-.0624054.2535211-.0702054.2496206c-.9087753,3.0149508-3.6468039,5.1250268-6.7943661,5.2342367l-.2613217.0039006-.2613217-.0039006c-3.1475622-.1092086-5.8816903-2.2153841-6.7904661-5.2342367l-.0741062-.2496206-.0624051-.2535211h6.3692309v.8619721l-.0039006.0780065c-.0390033.3042249-.2496206.5460455-.5499461.624052l-3.502492.8385699-.0507043.0156011c-.12091.0468044-.2067173.156013-.226219.2847233l-.0039003.0546043v.7878661h10.3007589v-.7878661l-.0039006-.0546043c-.0156011-.1248109-.1053093-.2418206-.2262184-.2847233l-.0507037-.0156011-3.5024914-.8385699-.0780065-.0234022c-.2574217-.089707-.4446368-.3276271-.4719396-.6006498l-.0039006-.0780065v-.8619721h6.3809308Z"/>
</svg>
