<?xml version="1.0" encoding="UTF-8"?>
<svg id="_圖層_1" xmlns="http://www.w3.org/2000/svg" version="1.1" viewBox="0 0 18 18">
  <!-- Generator: Adobe Illustrator 30.3.0, SVG Export Plug-In . SVG Version: 2.1.3 Build 182)  -->
  <defs>
    <style>
      .st0 {
        fill: #02529c;
      }
    </style>
  </defs>
  <path class="st0" d="M9.8132181,7.8162365h8.1087751l-.0429039-.2847238C17.2355366,3.5882845,14.0684729.5382302,10.1018419.0506896l-.2886238-.0312026v1.6420368l.261322.0312026c2.4962082.3666306,4.6296854,1.9891655,5.6554708,4.2942579l.101409.2418199h-6.0182028v-.5538459l.0039005-.0780063c.0234022-.2340193.1755142-.4524379.3822317-.5616465l.0741062-.0312028,1.4119177-.5538459v-1.6186352l-.0039005-.0585048c-.0156012-.1170099-.101409-.2262189-.2067165-.2730229l-.0546045-.0195017-.2769232-.0741062c-1.4041166-.3393283-2.8706398-.3432286-4.2747564,0l-.2769232.0741062-.0546045.0195017c-.1092091.0468037-.1911159.156013-.2067175.2730229l-.0039005.0585048v1.6186347l1.4119177.5538459.0702062.0312023c.2340198.1209102.3900323.3783312.3861318.6396532v.5538459H2.1646805l.1014085-.2418199c1.0257854-2.3089924,3.1553631-3.9237268,5.6554718-4.2942576l.2613215-.0312026V.019487l-.2847238.0312026C3.9354279.5382302.7605634,3.5882845.1209101,7.5315132l-.0429036.2847233h8.1048758v1.1661968H0l.0039003.2886238.0156013.2886238c.3081257,4.6335859,4.0524379,8.2608871,8.6938239,8.4169006l.2886238.0039005.2886238-.0039005c4.6374855-.1560135,8.3895988-3.7833157,8.6899261-8.4169016l.0156002-.2886238.0039005-.2886238h-8.1867819s0-1.1661963,0-1.1661959ZM16.186348,10.604969l-.0624046.253521-.0702057.2496204c-.9087753,3.0149508-3.6468039,5.1250267-6.7943659,5.2342358l-.261322.0039005-.261322-.0039005c-3.147562-.1092091-5.8816905-2.2153835-6.7904663-5.2342367l-.0741062-.2496204-.0624051-.253521h6.3692307v.8619719l-.0039005.0780067c-.0390034.304225-.2496204.5460453-.5499463.624052l-3.502492.8385696-.0507045.0156012c-.1209099.0468044-.2067173.1560125-.2262189.2847233l-.0039003.0546045v.7878666h10.3007598v-.7878666l-.0039005-.0546045c-.0156012-.1248112-.1053095-.2418203-.2262182-.2847233l-.050704-.0156012-3.502491-.8385696-.0780067-.0234022c-.2574215-.0897074-.4446363-.3276272-.47194-.6006498l-.0039005-.0780067v-.8619719s6.3809309,0,6.3809309.000001Z"/>
</svg>