<?xml version="1.0" encoding="UTF-8"?>
<svg id="Layer_1" xmlns="http://www.w3.org/2000/svg" version="1.1" viewBox="0 0 12 12">
  <!-- Generator: Adobe Illustrator 30.3.0, SVG Export Plug-In . SVG Version: 2.1.3 Build 182)  -->
  <polygon points="3.164978 10 2.5 11 3.625 11 4 10.5 8 10.5 8.375 11 9.5 11 8.835022 10 3.164978 10"/>
  <path d="M8,1h-4c-1.1049805,0-2,.8950195-2,2v5.5c0,.5499878.4500122,1,1,1h6c.5499878,0,1-.4500122,1-1V3c0-1.1049805-.8950195-2-2-2ZM3.75,8c-.414978,0-.75-.335022-.75-.75s.335022-.75.75-.75.75.335022.75.75-.335022.75-.75.75ZM8.25,8c-.414978,0-.75-.335022-.75-.75s.335022-.75.75-.75.75.335022.75.75-.335022.75-.75.75ZM9,5.5H3v-2.5h6v2.5Z"/>
</svg>