<?xml version="1.0" encoding="UTF-8"?>
<svg id="Layer_1" xmlns="http://www.w3.org/2000/svg" version="1.1" viewBox="0 0 24 24">
  <!-- Generator: Adobe Illustrator 30.3.0, SVG Export Plug-In . SVG Version: 2.1.3 Build 182)  -->
  <defs>
    <style>
      .st0 {
        fill: #343739;
      }

      .st1 {
        fill: #fdfaf5;
      }
    </style>
  </defs>
  <rect class="st0" x="1" y="1" width="22" height="22" rx="6" ry="6"/>
  <g>
    <polygon class="st1" points="7.6538649 18.1320648 6.6344423 19.6650829 8.359086 19.6650829 8.9339676 18.8985748 15.0660324 18.8985748 15.640914 19.6650829 17.3655567 19.6650829 16.3461361 18.1320648 7.6538649 18.1320648"/>
    <path class="st1" d="M15.0660324,4.334918h-6.1320658c-1.693953,0-3.0660329,1.3720798-3.0660329,3.0660329v8.4315896c0,.8431396.6898761,1.5330162,1.5330167,1.5330162h9.1980982c.8431396,0,1.5330162-.6898766,1.5330162-1.5330162V7.4009509c0-1.693953-1.3720798-3.0660329-3.0660324-3.0660329ZM8.5507135,15.0660324c-.636168,0-1.1497622-.5135946-1.1497622-1.1497622s.5135942-1.1497622,1.1497622-1.1497622c.6361685,0,1.1497622.5135946,1.1497622,1.1497622s-.5135946,1.1497622-1.1497622,1.1497622ZM15.4492865,15.0660324c-.6361685,0-1.1497622-.5135946-1.1497622-1.1497622s.5135946-1.1497622,1.1497622-1.1497622c.6361666,0,1.1497622.5135946,1.1497622,1.1497622s-.5135937,1.1497622-1.1497622,1.1497622ZM16.5990486,11.2334919H7.4009509v-3.832541h9.1980977v3.832541Z"/>
  </g>
</svg>