<?xml version="1.0" encoding="UTF-8"?>
<svg id="Layer_1" xmlns="http://www.w3.org/2000/svg" version="1.1" viewBox="0 0 24 24">
  <!-- Generator: Adobe Illustrator 30.3.0, SVG Export Plug-In . SVG Version: 2.1.3 Build 182)  -->
  <defs>
    <style>
      .st0 {
        fill: #fdfaf5;
      }

      .st1 {
        fill: #1a1a1a;
      }
    </style>
  </defs>
  <g>
    <rect class="st1" x="1" y="1" width="22" height="22" rx="2" ry="2"/>
    <path class="st0" d="M21,2c.5522804,0,1,.4477196,1,1v18c0,.5522804-.4477196,1-1,1H3c-.5522799,0-1-.4477196-1-1V3c0-.5522804.4477201-1,1-1h18M21,0H3C1.3457899,0,0,1.3457909,0,3v18c0,1.6542091,1.3457899,3,3,3h18c1.6542091,0,3-1.3457909,3-3V3c0-1.6542091-1.3457909-3-3-3h0Z"/>
  </g>
  <g>
    <polygon class="st0" points="7.6538648 18.1320657 6.6344425 19.6650821 8.359086 19.6650821 8.9339672 18.8985739 15.0660328 18.8985739 15.640914 19.6650821 17.3655575 19.6650821 16.3461352 18.1320657 7.6538648 18.1320657"/>
    <path class="st0" d="M15.0660328,4.3349179h-6.1320657c-1.6939532,0-3.0660328,1.3720796-3.0660328,3.0660328v8.4315903c0,.8431403.6898761,1.5330164,1.5330164,1.5330164h9.1980985c.8431403,0,1.5330164-.6898761,1.5330164-1.5330164V7.4009508c0-1.6939532-1.3720796-3.0660328-3.0660328-3.0660328ZM8.5507131,15.0660328c-.6361681,0-1.1497623-.5135942-1.1497623-1.1497623s.5135942-1.1497623,1.1497623-1.1497623,1.1497623.5135942,1.1497623,1.1497623-.5135942,1.1497623-1.1497623,1.1497623ZM15.4492869,15.0660328c-.6361681,0-1.1497623-.5135942-1.1497623-1.1497623s.5135942-1.1497623,1.1497623-1.1497623,1.1497623.5135942,1.1497623,1.1497623-.5135942,1.1497623-1.1497623,1.1497623ZM16.5990492,11.2334918H7.4009508v-3.832541h9.1980985v3.832541Z"/>
  </g>
</svg>