<?xml version="1.0" encoding="UTF-8"?>
<svg id="Layer_1" xmlns="http://www.w3.org/2000/svg" version="1.1" viewBox="0 0 10.5599995 12">
  <!-- Generator: Adobe Illustrator 30.3.0, SVG Export Plug-In . SVG Version: 2.1.3 Build 182)  -->
  <defs>
    <style>
      .st0 {
        fill: #1a1a1a;
      }
    </style>
  </defs>
  <path class="st0" d="M2.0643748,1.125c-.2859374,0-.553125.1289062-.73125.3515625l-.3023438.375c-.1921875.2414063-.5460938.28125-.7898438.0867187s-.28125-.5460936-.0867187-.7898437l.2976562-.375c.3914063-.4875.984375-.7734375,1.6125001-.7734375h6.4312502c.6257815,0,1.21875.2859375,1.6101565.7734375l.2999997.375c.194531.24375.1546876.5976562-.0890622.7898437s-.5976562.1546875-.789844-.0867187l-.2976565-.375c-.1781251-.2226562-.4476564-.3515625-.7312503-.3515625h-2.6554685v1.125h.9375c1.2421875,0,2.25,1.0078125,2.25,2.25v3.75c0,.7171876-.335156,1.3546872-.8578126,1.7671874l1.5351562,1.5351562c.1664064.1664064.0492189.4476564-.1851561.4476564h-.930469c-.1992188,0-.3890626-.0796874-.5296876-.2203124l-1.2820308-1.2796876h-3l-1.2796875,1.2796876c-.140625.140625-.3304687.2203124-.5296875.2203124h-.9328126c-.234375,0-.3515625-.2835939-.1851563-.4476564l1.5351562-1.5351562c-.5226561-.4125001-.8578125-1.0499997-.8578125-1.7671874v-3.75c0-1.2421875,1.0078125-2.25,2.25-2.25h.9375v-1.125h-2.6531249ZM3.7799997,3.75c-.4148437,0-.75.3351563-.75.75v.75c0,.4148437.3351563.75.75.75h3c.414844,0,.75-.3351563.75-.75v-.75c0-.4148437-.335156-.75-.75-.75h-3ZM4.5299997,8.25c0-.4142139-.3357865-.75-.75-.75s-.75.3357861-.75.75.3357865.75.75.75.75-.3357861.75-.75M6.7799997,9c.4142139,0,.75-.3357861.75-.75s-.3357861-.75-.75-.75-.75.3357861-.75.75.3357861.75.75.75"/>
</svg>