<?xml version="1.0" encoding="UTF-8"?>
<svg id="Layer_1" xmlns="http://www.w3.org/2000/svg" version="1.1" viewBox="0 0 24 24">
  <!-- Generator: Adobe Illustrator 30.3.0, SVG Export Plug-In . SVG Version: 2.1.3 Build 182)  -->
  <defs>
    <style>
      .st0 {
        fill: #fdfaf5;
      }

      .st1 {
        fill: #5b7459;
      }
    </style>
  </defs>
  <rect class="st1" x="1" y="1" width="22" height="22" rx="6" ry="6"/>
  <path class="st0" d="M11.7787733,4.2655683c-.2270174-.0054049-.4540358.0003862-.6810541.0173736-.9069147.0729699-1.8034039.3358941-2.5157318.8686919-.5976596.4470863-.9775677,1.1524644-1.1061344,1.9701934-.5675449.0579133-1.1350904.1181426-1.552063.4169726-.5420637.3891735-.8733249,1.0424294-.8733249,1.7732892,0,.7227516.3092542,1.3783245.8478432,1.772131.4111805.29883.9150219.4586687,1.4895163.5177402.1007681,1.2914553.5594373,2.2933464,1.1964784,3.0716934.5049992.6173506,1.1061335,1.0980272,1.718852,1.5288973-.3752747.7806664-.6196671,1.7385426-.6196671,2.95471,0,.3198433.259284.5791283.5791283.5791283h1.1582556c.3198442,0,.5791273-.259285.5791273-.5791283,0-2.1960526.6567307-3.4863491,1.4188633-4.5948009.6741047-.9810419,1.4663515-1.8219357,1.8752146-2.9419689.8015137-.0382233,1.5972347-.1969032,2.2701817-.5710201.7864552-.4366627,1.3852749-1.2543907,1.3852749-2.3165112s-.5988178-1.879849-1.3841152-2.3165112c-.6903191-.3822246-1.5231056-.4760432-2.3443089-.5096326-.3289452-.5791278-.8582668-1.0192652-1.512682-1.2740812-.6176186-.2313747-1.2702217-.3555493-1.9296532-.367167M8.548398,11.6286011h2.313036c.0810776,1.1397247.4007568,2.0373716.8165703,2.6871529-.2792368.2780876-.5378284.5761623-.773715.8918571-.5443802-.3891745-1.037797-.7934055-1.424655-1.2671318-.4911003-.597661-.8362598-1.3018799-.9312372-2.3118792M12.0231657,11.6286011h1.9192295c-.2223864.4146557-.540905.8559513-.8605833,1.2856636-.1768284.1899538-.3598318.3775911-.5490131.5629129-.2362852-.4470863-.4401379-1.0609627-.5096312-1.8485756"/>
</svg>