<?xml version="1.0" encoding="UTF-8"?>
<svg id="Layer_1" xmlns="http://www.w3.org/2000/svg" version="1.1" viewBox="0 0 18 18">
  <!-- Generator: Adobe Illustrator 30.3.0, SVG Export Plug-In . SVG Version: 2.1.3 Build 182)  -->
  <defs>
    <style>
      .st0 {
        fill: #fdfaf5;
      }

      .st1 {
        fill: #fdfaf5;
      }

      .st2 {
        fill: #1a1a1a;
      }
    </style>
  </defs>
  <g>
    <rect class="st2" x=".25" y=".25" width="17.5" height="17.5" rx=".75" ry=".75"/>
    <path class="st0" d="M17,.5c.2756996,0,.5.2243004.5.5v16c0,.2757001-.2243004.5-.5.5H1c-.2757,0-.5-.2242999-.5-.5V1c0-.2756996.2243-.5.5-.5h16M17,0H1C.44772,0,0,.44771,0,1v16c0,.5522799.44772,1,1,1h16c.5522804,0,1-.4477201,1-1V1c0-.55229-.4477196-1-1-1h0Z"/>
  </g>
  <path class="st1" d="M8.8095653,2.3421084c-.1954197-.0046528-.39084.0003325-.5862597.0149556-.7806829.0628136-1.5523918.2891417-2.1655717.7477803-.5144726.3848574-.841502.9920551-.9521735,1.6959659-.4885499.0498522-.9770995.1016984-1.3360343.3589348-.466615.3350051-.7517685.897336-.7517685,1.5264687,0,.6221531.2662098,1.186478.7298333,1.5254712.3539495.2572365.7876619.3948279,1.2821936.4456769.0867424,1.1117005.4815703,1.9741402,1.0299427,2.644151.4347098.5314222.9521735.9451949,1.4796085,1.316093-.3230411.6720063-.5334165,1.4965584-.5334165,2.54345,0,.2753249.2231947.4985202.4985202.4985202h.9970404c.2753255,0,.4985202-.2231954.4985202-.4985202,0-1.8903885.565322-3.0010912,1.2213749-3.9552596.580277-.8444933,1.2622526-1.5683445,1.6142073-2.5324823.689952-.0329026,1.3749191-.1694969,1.9541996-.491541.67699-.3758844,1.1924607-1.0797949,1.1924607-1.9940808s-.5154695-1.6181967-1.191463-1.9940808c-.5942355-.3290233-1.311108-.4097835-2.0180093-.4386977-.2831599-.4985202-.7388068-.8773957-1.3021345-1.0967445-.5316536-.1991702-1.0934219-.3060612-1.661069-.3160618M6.0288197,8.6802946h1.9910898c.0697932.9810883.344976,1.7537936.7029134,2.3131334-.2403709.2393808-.4629685.4959681-.6660235.7677216-.4686089-.335006-.8933481-.6829728-1.2263599-1.0907621-.4227449-.5144736-.7198627-1.120674-.8016204-1.9900929M9.0199413,8.6802946h1.6520955c-.1914325.3569403-.4656176.7368132-.7408011,1.1067142-.1522155.1635142-.3097476.3250354-.4725974.4845617-.2033967-.3848573-.3788758-.9132887-.438697-1.5912765"/>
</svg>