<?xml version="1.0" encoding="UTF-8"?>
<svg id="Layer_1" xmlns="http://www.w3.org/2000/svg" version="1.1" viewBox="0 0 12 12">
  <!-- Generator: Adobe Illustrator 30.3.0, SVG Export Plug-In . SVG Version: 2.1.3 Build 182)  -->
  <path d="M5.85675.9917588c-.1469998-.0035-.2940001.0002501-.441.01125-.5872502.04725-1.1677499.2175-1.6289999.5625-.3869998.2894999-.6329999.7462499-.7162499,1.2757502-.3675001.0375001-.7349999.0765002-1.0050001.2700002-.3510001.2519996-.5655.6749997-.5655,1.1482496,0,.4679999.20025.8924999.5489998,1.1474996.2662501.1935.5925.2969999.9644997.3352499.0652499.8362503.3622499,1.4850001.77475,1.9889998.3270001.3997502.7162499.711,1.1130004.9900002-.243.5055008-.4012499,1.1257505-.4012499,1.91325,0,.2071066.1678929.375.375.375h.75c.2071071,0,.375-.1678934.375-.375,0-1.4219999.4252501-2.2574997.9187503-2.9752502.4364996-.6352501.9494996-1.17975,1.2142491-1.9049997.5190001-.0247502,1.0342503-.1275001,1.4700003-.36975.5092497-.2827501.8970003-.8122501.8970003-1.5s-.3877497-1.2172501-.8962498-1.5c-.4469995-.2474999-.9862499-.30825-1.5179996-.3299999-.2130003-.375-.5557499-.6600001-.9794998-.825-.3999238-.149821-.8225007-.2302273-1.2494998-.23775M3.7650001,5.7595089h1.49775c.0525002.7380004.2595,1.3192496.5287499,1.7399998-.1808133.1800685-.3482571.3730803-.5010004.5774999-.3525-.2520003-.6719999-.5137501-.9225001-.8204999-.3179998-.3870006-.5414996-.8430004-.6029999-1.4970002M6.0150003,5.7595089h1.2427497c-.1440005.2684999-.3502498.5542502-.55725.8324995-.1145005.1229997-.2330003.2445002-.3555002.3645-.1530004-.2894998-.2850003-.6869998-.3299994-1.197"/>
</svg>