<?xml version="1.0" encoding="UTF-8"?>
<svg id="Layer_1" xmlns="http://www.w3.org/2000/svg" version="1.1" viewBox="0 0 24 24">
  <!-- Generator: Adobe Illustrator 30.3.0, SVG Export Plug-In . SVG Version: 2.1.3 Build 182)  -->
  <defs>
    <style>
      .st0 {
        fill: #fdfaf5;
      }

      .st1 {
        fill: #1a1a1a;
      }
    </style>
  </defs>
  <g>
    <rect class="st1" x="1" y="1" width="22" height="22" rx="2" ry="2"/>
    <path class="st0" d="M21,2c.5522804,0,1,.4477196,1,1v18c0,.5522804-.4477196,1-1,1H3c-.5522799,0-1-.4477196-1-1V3c0-.5522804.4477201-1,1-1h18M21,0H3C1.3457899,0,0,1.3457909,0,3v18c0,1.6542091,1.3457899,3,3,3h18c1.6542091,0,3-1.3457909,3-3V3c0-1.6542091-1.3457909-3-3-3h0Z"/>
  </g>
  <path class="st0" d="M11.7787734,4.2655681c-.2270174-.0054051-.4540359.0003864-.6810545.0173737-.9069147.0729701-1.8034043.3358941-2.5157314.8686918-.5976595.4470865-.9775679,1.1524644-1.1061344,1.9701933-.5675452.0579132-1.1350904.1181424-1.5520629.4169725-.5420637.3891736-.873325,1.0424297-.873325,1.7732894,0,.7227517.3092543,1.3783244.847843,1.7721306.4111807.29883.9150219.4586691,1.4895163.51774.1007681,1.2914552.5594372,2.2933466,1.1964779,3.0716937.5049994.6173504,1.1061338,1.0980275,1.7188522,1.5288966-.3752747.780666-.619667,1.7385425-.619667,2.9547107,0,.3198432.2592838.5791275.5791281.5791275h1.1582556c.3198443,0,.5791275-.2592844.5791275-.5791275,0-2.1960527.656731-3.4863491,1.4188633-4.5948006.6741048-.9810422,1.4663514-1.8219358,1.8752147-2.941969.8015129-.0382229,1.5972349-.1969031,2.2701819-.5710201.7864546-.4366628,1.3852747-1.2543911,1.3852747-2.3165112s-.5988178-1.879849-1.3841147-2.3165112c-.6903197-.3822244-1.5231057-.4760431-2.3443089-.5096326-.3289455-.5791278-.8582673-1.0192651-1.5126817-1.2740814-.6176185-.2313747-1.2702216-.3555495-1.9296536-.367167M8.5483978,11.6286006h2.3130363c.0810778,1.1397247.400757,2.0373714.8165701,2.6871527-.2792372.2780873-.5378281.5761628-.7737151.891857-.54438-.3891741-1.0377972-.7934054-1.4246547-1.2671317-.4911-.5976612-.8362598-1.3018803-.9312376-2.3118791M12.0231656,11.6286006h1.9192296c-.2223865.4146553-.5409046.8559518-.8605838,1.2856632-.1768283.1899534-.359832.3775913-.5490132.5629126-.2362848-.4470862-.4401376-1.0609623-.5096315-1.8485758"/>
</svg>