<?xml version="1.0" encoding="UTF-8"?>
<svg id="Layer_1" xmlns="http://www.w3.org/2000/svg" version="1.1" viewBox="0 0 12 12">
  <!-- Generator: Adobe Illustrator 30.3.0, SVG Export Plug-In . SVG Version: 2.1.3 Build 182)  -->
  <defs>
    <style>
      .st0 {
        fill: #1a1a1a;
      }
    </style>
  </defs>
  <path class="st0" d="M3.924668,1.5827446c-.1086667,0-.2246666.0106665-.337333.0380001-.1146666.0273333-.3879999.11-.5586665.3746665l-.0093333.0133333-.4046666.7000001c-.2046668.1366666-.3559999.3066667-.4619999.478l-.0093333.0133336L.4286693,6.3000781c-.0685741.1053359-.1296151.215388-.1826666.3293336l-.004.0066668C.0818859,6.9858309-.0006692,7.3660825.0000021,7.7507432.0000021,9.2235025,1.1939092,10.4174099,2.6666683,10.4174099s2.6666663-1.1939074,2.6666663-2.666666v-.6666667h1.3333333v.6666667c.0002346,1.4727592,1.1943321,2.6664753,2.6670914,2.6662413s2.6664759-1.1943321,2.666242-2.6670907c-.000061-.384023-.083065-.7635028-.2433332-1.112484l-.0026665-.0080001c-.053051-.1139456-.1140925-.2239978-.1826668-.3293336l-1.714667-3.0999991-.0093333-.0133336c-.1172689-.1909593-.2749697-.3538939-.4620005-.4773331l-.4046669-.7006666-.0093333-.0133333c-.170667-.2646666-.4446665-.3466667-.5586669-.3746664-.144975-.0337302-.2942403-.0451949-.4426664-.0340001-.156037.0078392-.3094826.0430412-.4533335.1040001-.1226667.0539999-.425333.2180001-.5026665.5926666l-.0046666.0246668-.0933336.733333c-.1466668.1886667-.2493331.4266669-.2493331.7093334v.6666667h-1.3333333v-.6666667c0-.2826665-.1026669-.5206668-.2486668-.7093334l-.0933336-.7333331-.0053336-.0246668c-.0773335-.3746664-.3799998-.5386666-.5026665-.5926665-.143851-.0609589-.2972965-.0961609-.4533335-.1040001-.0350444-.0027212-.0701834-.0040557-.1053333-.004M2.6666683,6.4174105c.7363793.0003935,1.3330139.5976658,1.3326203,1.3340454-.0003929.736379-.5976658,1.3330142-1.3340449,1.3326213-.7363795-.0003942-1.3330139-.5976664-1.3326207-1.3340454.0000966-.1811015.0370861-.3602848.1087118-.5266209l.1266667-.228c.2400001-.3486665.6426668-.5779998,1.0986665-.5779998M9.333334,6.4174105c.456,0,.8586667.2293332,1.0986671.5779998l.126667.228c.2912375.6763395-.0209478,1.4607162-.6972885,1.7519544-.6763395.2912381-1.4607156-.0209478-1.7519538-.6972872-.2912388-.6763401.0209478-1.4607162.6972879-1.7519544.1663348-.0716254.3455187-.1086152.5266202-.1087119"/>
</svg>
