<?xml version="1.0" encoding="UTF-8"?>
<svg id="Layer_1" xmlns="http://www.w3.org/2000/svg" version="1.1" viewBox="0 0 24 24">
  <!-- Generator: Adobe Illustrator 30.3.0, SVG Export Plug-In . SVG Version: 2.1.3 Build 182)  -->
  <defs>
    <style>
      .st0 {
        fill: none;
      }

      .st1 {
        fill: #343739;
      }

      .st2 {
        fill: #fdfaf5;
      }
    </style>
  </defs>
  <rect class="st1" x="1" y="1" width="22" height="22" rx="6" ry="6"/>
  <path class="st0" d="M0,0h24.0000019v24.0000019H0V0Z"/>
  <path class="st2" d="M9.3898706,6.4444475c-.1366692,0-.2825613.0134153-.4242611.0477924-.1442156.0343771-.4879856.1383462-.702631.4712152l-.0117388.0167694-.5089464.8803854c-.2574081.1718845-.4477386.3856926-.5810537.6011772l-.0117388.0167694-2.1565237,3.8988476c-.0862451.1324797-.1630158.2708921-.2297382.4142008l-.0050306.0083847c-.2013779.4398813-.3052068.9181213-.3043628,1.401907,0,1.8522778,1.5015683,3.3538494,3.353848,3.3538494s3.3538465-1.5015697,3.3538465-3.3538475v-.8384609h1.6769238v.8384609c.0002947,1.8522778,1.5021029,3.3536072,3.3543825,3.3533134s3.353611-1.5021038,3.3533154-3.3543806c-.0000763-.4829836-.1044693-.9602518-.3060379-1.3991642l-.003355-.0100613c-.066721-.1433086-.1434956-.2817202-.2297382-.4141998l-2.1565247-3.8988476-.0117397-.0167694c-.1474895-.2401686-.3458271-.4450903-.5810547-.6003385l-.5089455-.8812237-.0117388-.0167694c-.2146463-.3328691-.5592546-.4360003-.702632-.4712157-.182333-.0424223-.3700638-.0568414-.5567389-.0427618-.1962461.0098591-.3892336.0541329-.5701542.1308002-.1542778.067915-.5349379.2741771-.6322002.7453928l-.0058699.0310235-.1173849.9223075c-.1844625.2372847-.3135843.5366154-.3135843.8921242v.8384619h-1.6769238v-.8384619c0-.3555079-.1291237-.6548386-.312747-.8921232l-.1173849-.922308-.0067072-.0310235c-.0972614-.4712157-.4779224-.6774774-.6322002-.7453928-.1809206-.0766673-.373908-.1209407-.5701542-.1308002-.044075-.0034223-.0882683-.0051007-.1324768-.0050306M7.8076925,12.5249729c.9261398.000495,1.6765223.7516804,1.6760273,1.6778202-.000495.9261389-.7516804,1.6765223-1.6778193,1.6760283-.9261398-.0004959-1.6765223-.7516804-1.6760273-1.6778202.0001216-.2277699.0466428-.4531269.1367264-.6623278l.159308-.2867546c.3018465-.4385157.8082771-.7269459,1.3817854-.7269459M16.1923122,12.5249729c.5735092,0,1.079937.2884312,1.3817863.7269459l.1593094.2867546c.3662891.8506269-.0263443,1.8371334-.8769741,2.2034216-.8506279.3662882-1.8371315-.0263443-2.2034206-.8769741s.0263443-1.8371334.8769732-2.2034216c.209197-.0900822.4345579-.1366043.6623259-.1367264"/>
</svg>