<?xml version="1.0" encoding="UTF-8"?>
<svg id="Layer_1" xmlns="http://www.w3.org/2000/svg" version="1.1" viewBox="0 0 12 12">
  <!-- Generator: Adobe Illustrator 30.3.0, SVG Export Plug-In . SVG Version: 2.1.3 Build 182)  -->
  <defs>
    <style>
      .st0 {
        fill: #1a1a1a;
      }
    </style>
  </defs>
  <path class="st0" d="M9.9941406,10.8339844H2.0053711c-.1845703,0-.3686523-.046875-.5327148-.1347656-.2651367-.1425781-.4580078-.3789062-.5444336-.6669922s-.0556641-.5917969.0869141-.8564453L5.0092773,1.7578125c.1967773-.3652344.5766602-.5917969.9907227-.5917969s.7939453.2265625.9907227.5913086l3.9936523,7.418457c.0878906.1611328.1347656.3457031.1347656.5332031,0,.6201172-.5048828,1.125-1.125,1.125ZM6,1.9160156c-.0673828,0-.234375.0195312-.3305664.1977539l-3.9941406,7.4174805c-.0981445.1816406-.0292969.4101562.1523438.5078125.0546875.0292969.1166992.0449219.1777344.0449219h7.9887695c.2070312,0,.375-.1679688.375-.375,0-.0625-.015625-.1230469-.0439453-.1757812l-3.9946289-7.4199219c-.0961914-.1777344-.2631836-.1972656-.3305664-.1972656Z"/>
  <path class="st0" d="M6,7.8134766c-.2001953,0-.3652344-.1572266-.3745117-.3574219l-.1347656-2.8588867c-.0004883-.0058594-.0004883-.0117188-.0004883-.0175781v-.0039062c-.0019531-.2768555.2241211-.5068359.503418-.5107422.3100586.0131836.5283203.2524414.5151367.5327148l-.1342773,2.8583984c-.0092773.2001953-.1743164.3574219-.3745117.3574219Z"/>
  <path class="st0" d="M6,9.3105469c-.2588836,0-.46875-.2098668-.46875-.46875s.2098664-.46875.46875-.46875c.2588832,0,.46875.2098668.46875.46875s-.2098668.46875-.46875.46875"/>
</svg>