<?xml version="1.0" encoding="UTF-8"?>
<svg id="Layer_1" xmlns="http://www.w3.org/2000/svg" version="1.1" viewBox="0 0 25 25">
  <!-- Generator: Adobe Illustrator 30.3.0, SVG Export Plug-In . SVG Version: 2.1.3 Build 182)  -->
  <path d="M0,.9615442v2.4038462c3.8403846,0,5.6884614.6846153,5.7692308,3.8461538v4.3269231c0,3.8461538,2.8846154,5.7692308,4.8076923,5.7692308,0,0-1.9230769-1.9230769-1.9230769-5.7692308v-4.3269231c0-1.6557693-.5865381-2.9038461-1.5019233-3.8461538,2.4096159,0,4.3115387,1.0057692,4.3865387,3.8461538v4.3269231c0,3.8461538,2.8846154,5.7692308,4.8076923,5.7692308,0,0-1.9230769-1.9230769-1.9230769-5.7692308v-4.3269231c0-1.7576924-.4653848-2.996154-1.1423074-3.8461538,2.1038459,0,4.0269228,1.0576922,4.0269228,3.8461538v4.3269231c0,3.8461538,2.8846154,5.7692308,4.8076923,5.7692308,0,0-1.9230769-1.9230769-1.9230769-5.7692308v-4.3269231C20.1923077,1.4423134,15.3846154.9615442,13.4615385.9615442H0ZM5.7692308,19.230775c-1.0269229,0-2.8692307,1.9230769-3.8461538,1.9230769v2.8846154c1.0326922,0,2.9326925-1.9230769,3.8461538-1.9230769.9692307,0,2.8192309,1.9230769,3.8461538,1.9230769.9153843,0,2.869231-1.9230769,3.8461538-1.9230769.9692311,0,2.9269237,1.9230769,3.8461538,1.9230769.9692302,0,2.9326916-1.9230769,3.8461538-1.9230769s2.8769236,1.9230769,3.8461538,1.9230769v-2.8846154c-.7980768,0-2.81923-1.9807687-3.8461538-1.9230769-.9192302,0-2.817308,1.9230769-3.8461538,1.9230769-.8557686,0-2.8769236-1.9230769-3.8461538-1.9230769s-2.9884613,1.9230769-3.8461538,1.9230769c-.9153843,0-2.8192309-1.9230769-3.8461538-1.9230769"/>
</svg>