<?xml version="1.0" encoding="UTF-8"?>
<svg id="Layer_1" xmlns="http://www.w3.org/2000/svg" version="1.1" viewBox="0 0 18 18">
  <!-- Generator: Adobe Illustrator 30.3.0, SVG Export Plug-In . SVG Version: 2.1.3 Build 182)  -->
  <defs>
    <style>
      .st0 {
        fill: none;
        stroke: #1a1a1a;
        stroke-linecap: round;
        stroke-linejoin: round;
        stroke-width: .75px;
      }

      .st1 {
        fill: #fdfaf5;
      }

      .st2 {
        fill: #fdfaf5;
      }

      .st3 {
        fill: #1a1a1a;
      }
    </style>
  </defs>
  <g>
    <rect class="st3" x=".25" y=".25" width="17.5" height="17.5" rx=".75" ry=".75"/>
    <path class="st1" d="M17,.5c.2756996,0,.5.2243004.5.5v16c0,.2757001-.2243004.5-.5.5H1c-.2757,0-.5-.2242999-.5-.5V1c0-.2756996.2243-.5.5-.5h16M17,0H1C.44772,0,0,.44771,0,1v16c0,.5522799.44772,1,1,1h16c.5522804,0,1-.4477201,1-1V1c0-.55229-.4477196-1-1-1h0Z"/>
  </g>
  <g>
    <path class="st2" d="M8.9999995,3.3016975c.3798869,0,4.1787561,4.9385288,4.1787561,7.5977364,0,2.2793203-2.2793217,3.7988687-4.1787556,3.7988687s-4.1787556-1.5195475-4.1787556-3.7988687c.0000002-2.6592076,3.7988687-7.5977365,4.1787556-7.5977365"/>
    <path class="st0" d="M6.4073686,9.6768037s-1.0431188,3.2457047,2.714911,3.7152801"/>
  </g>
</svg>