<?xml version="1.0" encoding="UTF-8"?>
<svg id="Layer_1" xmlns="http://www.w3.org/2000/svg" version="1.1" viewBox="0 0 24 24">
  <!-- Generator: Adobe Illustrator 30.3.0, SVG Export Plug-In . SVG Version: 2.1.3 Build 182)  -->
  <defs>
    <style>
      .st0 {
        fill: none;
        stroke: #1a1a1a;
        stroke-linecap: round;
        stroke-linejoin: round;
      }

      .st1 {
        fill: #fdfaf5;
      }

      .st2 {
        fill: #1a1a1a;
      }
    </style>
  </defs>
  <g>
    <rect class="st2" x="1" y="1" width="22" height="22" rx="2" ry="2"/>
    <path class="st1" d="M21,2c.5522804,0,1,.4477196,1,1v18c0,.5522804-.4477196,1-1,1H3c-.5522799,0-1-.4477196-1-1V3c0-.5522804.4477201-1,1-1h18M21,0H3C1.3457899,0,0,1.3457909,0,3v18c0,1.6542091,1.3457899,3,3,3h18c1.6542091,0,3-1.3457909,3-3V3c0-1.6542091-1.3457909-3-3-3h0Z"/>
  </g>
  <g>
    <path class="st1" d="M11.9999987,4.4022633c.5065155,0,5.5716743,6.5847057,5.5716743,10.1303155,0,3.0390943-3.0390956,5.0651588-5.5716743,5.0651588s-5.5716743-2.0260633-5.5716743-5.0651576c0-3.5456098,5.0651576-10.1303151,5.5716743-10.1303151"/>
    <path class="st0" d="M8.5431582,12.9024048s-1.3908253,4.3276062,3.6198819,4.9537074"/>
  </g>
</svg>