<?xml version="1.0" encoding="UTF-8"?>
<svg id="Layer_1" xmlns="http://www.w3.org/2000/svg" version="1.1" viewBox="0 0 18 18">
  <!-- Generator: Adobe Illustrator 30.3.0, SVG Export Plug-In . SVG Version: 2.1.3 Build 182)  -->
  <defs>
    <style>
      .st0 {
        fill: #fdfaf5;
      }

      .st1 {
        fill: #fdfaf5;
      }

      .st2 {
        fill: #1a1a1a;
      }
    </style>
  </defs>
  <g>
    <rect class="st2" x=".5" y=".5" width="17" height="17" rx=".5" ry=".5"/>
    <path class="st0" d="M17,1v16H1V1h16M17,0H1C.44772,0,0,.4477196,0,1v16c0,.55228.44772,1,1,1h16c.5522804,0,1-.44772,1-1V1c0-.5522804-.4477196-1-1-1h0Z"/>
  </g>
  <path class="st1" d="M2.4339256,2.9390082v1.2627068c2.0173006,0,2.9880691.3596187,3.0304961,2.0203309v2.2728729c0,2.0203304,1.5152478,3.0304966,2.525414,3.0304966,0,0-1.0101652-1.0101652-1.0101652-3.0304966v-2.272872c0-.8697524-.3081007-1.5253496-.7889395-2.0203309,1.2657371,0,2.2647915.5283165,2.3041868,2.0203309v2.272872c0,2.0203314,1.5152473,3.0304966,2.5254126,3.0304966,0,0-1.0101652-1.0101652-1.0101652-3.0304966v-2.272872c0-.9232912-.2444601-1.5738382-.6000376-2.0203309,1.1051207,0,2.1152859.5555911,2.1152859,2.0203309v2.272872c0,2.0203314,1.5152473,3.0304966,2.5254135,3.0304966,0,0-1.0101652-1.0101652-1.0101652-3.0304966v-2.272872c.000001-3.0304959-2.5254126-3.2830372-3.5355787-3.2830372,0,0-7.0711589,0-7.0711575-.0000014ZM5.4644217,12.5355787c-.5394282,0-1.5071669,1.0101652-2.0203309,1.0101652v1.5152473c.542459,0,1.5405025-1.0101652,2.0203309-1.0101652.5091233,0,1.4809027,1.0101652,2.0203309,1.0101652.4808383,0,1.5071669-1.0101652,2.0203304-1.0101652.5091228,0,1.5374718,1.0101652,2.0203304,1.0101652.5091238,0,1.5405016-1.0101652,2.0203304-1.0101652s1.5112076,1.0101652,2.0203304,1.0101652v-1.5152473c-.4192181,0-1.4809017-1.0404692-2.0203304-1.0101652-.4828577,0-1.4798927,1.0101652-2.0203304,1.0101652-.449523,0-1.5112076-1.0101652-2.0203304-1.0101652s-1.569797,1.0101652-2.0203304,1.0101652c-.4808383,0-1.4809027-1.0101652-2.0203304-1.0101652"/>
</svg>