<?xml version="1.0" encoding="UTF-8"?>
<svg id="Layer_1" xmlns="http://www.w3.org/2000/svg" version="1.1" viewBox="0 0 24 24">
  <!-- Generator: Adobe Illustrator 30.3.0, SVG Export Plug-In . SVG Version: 2.1.3 Build 182)  -->
  <defs>
    <style>
      .st0 {
        fill: #fdfaf5;
      }

      .st1 {
        fill: #446277;
      }
    </style>
  </defs>
  <rect class="st1" x="1" y="1" width="22" height="22" rx="6" ry="6"/>
  <path class="st0" d="M4.6620455,5.2265038v1.4111452c2.2544451,0,3.3393335.4018936,3.3867483,2.2578321v2.540062c0,2.2578325,1.6933746,3.3867483,2.8222914,3.3867483,0,0-1.1289158-1.1289158-1.1289158-3.3867483v-2.540061c0-.9719968-.3443193-1.7046633-.8816833-2.2578325,1.4145317,0,2.5310307.5904236,2.575057,2.2578325v2.540061c0,2.2578325,1.6933727,3.3867483,2.8222895,3.3867483,0,0-1.1289158-1.1289158-1.1289158-3.3867483v-2.540061c0-1.0318289-.2731981-1.7588515-.6705751-2.2578325,1.235034,0,2.3639488.6209035,2.3639488,2.2578325v2.540061c0,2.2578325,1.6933746,3.3867483,2.8222904,3.3867483,0,0-1.1289158-1.1289158-1.1289158-3.3867483v-2.540061c.0000019-3.3867478-2.8222895-3.6689768-3.9512062-3.6689768,0,0-7.9024138,0-7.9024134-.0000014ZM8.0487938,15.9512062c-.6028414,0-1.6843433,1.1289158-2.2578325,1.1289158v1.6933746c.6062288,0,1.7215967-1.1289158,2.2578325-1.1289158.5689735,0,1.6549911,1.1289158,2.2578325,1.1289158.5373631,0,1.6843433-1.1289158,2.2578316-1.1289158.5689726,0,1.7182102,1.1289158,2.2578325,1.1289158.5689735,0,1.7215958-1.1289158,2.2578316-1.1289158s1.688858,1.1289158,2.2578316,1.1289158v-1.6933746c-.4684982,0-1.6549911-1.1627817-2.2578316-1.1289158-.5396214,0-1.653863,1.1289158-2.2578325,1.1289158-.502367,0-1.688858-1.1289158-2.2578325-1.1289158s-1.7543354,1.1289158-2.2578325,1.1289158c-.5373631,0-1.6549921-1.1289158-2.2578325-1.1289158"/>
</svg>