<?xml version="1.0" encoding="UTF-8"?>
<svg id="Layer_1" xmlns="http://www.w3.org/2000/svg" version="1.1" viewBox="0 0 12 12">
  <!-- Generator: Adobe Illustrator 30.3.0, SVG Export Plug-In . SVG Version: 2.1.3 Build 182)  -->
  <defs>
    <style>
      .st0 {
        fill: none;
      }

      .st1 {
        fill: #1a1a1a;
      }
    </style>
  </defs>
  <path class="st0" d="M0,0h12v12H0V0Z"/>
  <path class="st1" d="M6.2137499,1.4090625c-.1010284-.1179861-.2785746-.1317332-.3965607-.0307049-.011011.0094283-.0212764.0196939-.0307049.0307049-.7420313.8678907-3.1614844,3.8683594-3.1614844,6.0909375,0,2.0711718,1.3040625,3.375,3.375,3.375s3.375-1.3038282,3.375-3.375c0-2.2225782-2.4194534-5.223047-3.1612501-6.0909376M6.375,9.65625c-.1553299.0003405-.2815254-.1253035-.2818658-.2806327-.0000701-.0321436.0053701-.0640619.0160847-.0943673.0393376-.1136613.1471589-.1892595.267422-.1875.775049-.0016758,1.4029334-.6295602,1.4046092-1.4046092-.0017595-.1202631.0738387-.2280843.1875-.267422.1464465-.0517774.3071387.0249674.3589153.1714139.0107145.0303054.0161548.0622237.0160847.0943673-.0011623,1.0868289-.8819211,1.9675877-1.96875,1.96875"/>
</svg>