<?xml version="1.0" encoding="UTF-8"?>
<svg id="Layer_1" xmlns="http://www.w3.org/2000/svg" version="1.1" viewBox="0 0 24 24">
  <!-- Generator: Adobe Illustrator 30.3.0, SVG Export Plug-In . SVG Version: 2.1.3 Build 182)  -->
  <defs>
    <style>
      .st0 {
        fill: #fdfaf5;
      }

      .st1 {
        fill: #1a1a1a;
      }
    </style>
  </defs>
  <g>
    <rect class="st1" x="1" y="1" width="22" height="22" rx="2" ry="2"/>
    <path class="st0" d="M21,2c.5522804,0,1,.4477196,1,1v18c0,.5522799-.4477196,1-1,1H3c-.5522799,0-1-.4477201-1-1V3c0-.5522804.4477201-1,1-1h18M21,0H3C1.3457899,0,0,1.3457909,0,3v18c0,1.6542101,1.3457899,3,3,3h18c1.6542091,0,3-1.3457899,3-3V3c0-1.6542091-1.3457909-3-3-3h0Z"/>
  </g>
  <path class="st0" d="M4.6620457,5.2265038v1.4111451c2.2544453,0,3.3393338.4018938,3.3867483,2.2578322v2.5400622c0,2.2578322,1.6933742,3.3867483,2.8222913,3.3867483,0,0-1.1289161-1.1289161-1.1289161-3.3867483v-2.5400613c0-.9719968-.3443194-1.7046631-.8816837-2.2578322,1.4145321,0,2.5310303.5904238,2.5750569,2.2578322v2.5400613c0,2.2578322,1.6933732,3.3867483,2.8222893,3.3867483,0,0-1.1289161-1.1289161-1.1289161-3.3867483v-2.5400613c0-1.0318291-.2731981-1.7588515-.670575-2.2578322,1.235034,0,2.3639492.6209035,2.3639492,2.2578322v2.5400613c0,2.2578322,1.6933742,3.3867483,2.8222903,3.3867483,0,0-1.1289161-1.1289161-1.1289161-3.3867483v-2.5400613c.0000019-3.3867479-2.8222893-3.6689769-3.9512064-3.6689769,0,0-7.9024138,0-7.9024119-.0000014ZM8.0487941,15.9512059c-.6028416,0-1.6843433,1.1289161-2.2578322,1.1289161v1.6933742c.6062286,0,1.7215969-1.1289161,2.2578322-1.1289161.568974,0,1.6549916,1.1289161,2.2578322,1.1289161.5373634,0,1.6843433-1.1289161,2.2578313-1.1289161.568973,0,1.7182099,1.1289161,2.2578322,1.1289161.568974,0,1.7215959-1.1289161,2.2578322-1.1289161s1.6888582,1.1289161,2.2578322,1.1289161v-1.6933742c-.4684991,0-1.6549906-1.1627818-2.2578322-1.1289161-.5396204,0-1.6538626,1.1289161-2.2578322,1.1289161-.5023668,0-1.6888582-1.1289161-2.2578322-1.1289161s-1.7543355,1.1289161-2.2578322,1.1289161c-.5373634,0-1.6549916-1.1289161-2.2578322-1.1289161"/>
</svg>