<?xml version="1.0" encoding="UTF-8"?>
<svg id="Layer_1" xmlns="http://www.w3.org/2000/svg" version="1.1" viewBox="0 0 24 24">
  <!-- Generator: Adobe Illustrator 30.3.0, SVG Export Plug-In . SVG Version: 2.1.3 Build 182)  -->
  <defs>
    <style>
      .st0 {
        fill: #fdfaf5;
      }

      .st1 {
        fill: #1a1a1a;
      }
    </style>
  </defs>
  <rect class="st1" x="2" y="2" width="20" height="20" rx="1.3333333" ry="1.3333333"/>
  <path class="st0" d="M4.7043618,5.2655647v1.4030075c2.2414451,0,3.3200767.3995763,3.3672179,2.2448121v2.5254144c0,2.2448116,1.6836087,3.3672184,2.8060155,3.3672184,0,0-1.1224058-1.1224058-1.1224058-3.3672184v-2.5254133c0-.9663916-.3423341-1.6948329-.8765994-2.2448121,1.4063745,0,2.516435.5870183,2.5602076,2.2448121v2.5254133c0,2.2448126,1.6836082,3.3672184,2.806014,3.3672184,0,0-1.1224058-1.1224058-1.1224058-3.3672184v-2.5254133c0-1.0258791-.2716223-1.7487091-.6667084-2.2448121,1.2279118,0,2.3503176.6173235,2.3503176,2.2448121v2.5254133c0,2.2448126,1.6836082,3.3672184,2.806015,3.3672184,0,0-1.1224058-1.1224058-1.1224058-3.3672184v-2.5254133c.0000011-3.3672176-2.806014-3.6478191-3.9284208-3.6478191,0,0-7.8568432,0-7.8568416-.0000016ZM8.0715797,15.9284208c-.5993647,0-1.6746298,1.1224058-2.2448121,1.1224058v1.6836082c.6027322,0,1.7116695-1.1224058,2.2448121-1.1224058.5656926,0,1.6454474,1.1224058,2.2448121,1.1224058.5342648,0,1.6746298-1.1224058,2.2448116-1.1224058.5656921,0,1.708302,1.1224058,2.2448116,1.1224058.5656931,0,1.7116684-1.1224058,2.2448116-1.1224058s1.6791195,1.1224058,2.2448116,1.1224058v-1.6836082c-.4657978,0-1.6454464-1.1560769-2.2448116-1.1224058-.5365086,0-1.6443253,1.1224058-2.2448116,1.1224058-.49947,0-1.6791195-1.1224058-2.2448116-1.1224058s-1.7442189,1.1224058-2.2448116,1.1224058c-.5342648,0-1.6454474-1.1224058-2.2448116-1.1224058"/>
</svg>