<?xml version="1.0" encoding="UTF-8"?>
<svg id="Layer_1" xmlns="http://www.w3.org/2000/svg" version="1.1" viewBox="0 0 12 12">
  <!-- Generator: Adobe Illustrator 30.3.0, SVG Export Plug-In . SVG Version: 2.1.3 Build 182)  -->
  <defs>
    <style>
      .st0 {
        fill: none;
      }

      .st1 {
        fill: #1a1a1a;
      }
    </style>
  </defs>
  <path class="st0" d="M0,2h8v8H0V2Z"/>
  <path class="st1" d="M0,2h.8c.8720002,0,2.4000001.2399999,2.4000001,1.3999999v2.7999996c0,1.5999997,1.2000001,2.4000003,2,2.4000003l-.0319999-.0719999c-.096-.2319997-.368-1.0080001-.368-2.3279998v-2.7999999c0-.728-.5200001-1.048-.8000002-1.3999999.8720001,0,1.5999997.2399999,1.5999997,1.3999999v2.7999999c0,1.6000004,1.2000001,2.3999996,2,2.3999996l-.0320002-.0719999c-.096-.2319997-.368-1.0080001-.368-2.3279998l.0800006-2.7999999c.0320002-.728-.5999997-1.048-.8800004-1.3999999.8720004,0,1.6000004.2399999,1.6000004,1.3999999v2.7999999c0,1.6000004,1.2000001,2.3999996,2,2.3999996l-.0320002-.0719999c-.096-.2319997-.368-1.0080001-.368-2.3279998v-2.7999999C9.5999997,1.0640003,7.3279998.4320002,6.4720001.4000003H0s0,1.6000001,0,1.5999997ZM5.0400003,11.2479998l.2479998-.1999995c.4178321-.3284976,1.0061684-.3284976,1.4240004,0l.2480005.1999995c.2879995.2240003.64.3519999,1,.3519999h.0800006c.36,0,.7120005-.1279996,1-.3519999l.2480005-.1999995c.4178314-.3284976,1.0061684-.3284976,1.4239998,0l.2559992.1999995c.2800001.2240003.6239993.3519999.9919993.3519999h.0399996v-1.5999997h-.0399996c-.368,0-.7120005-.1279996-.9919993-.3519999l-.2559992-.2000001c-.4178314-.3284976-1.0061684-.3284976-1.4239998,0l-.2480005.2000001c-.2879995.2239997-.64.3519999-1,.3519999h-.0800006c-.36,0-.7120005-.1279996-1-.3519999l-.2480005-.2000001c-.4178321-.3284976-1.0061677-.3284976-1.4239998,0l-.2479998.2000001c-.2880001.2239997-.64.3519999-1,.3519999h-.0799999c-.36,0-.7119999-.1279996-1-.3519999l-.2479998-.2000001c-.4178317-.3284976-1.0061684-.3284976-1.4239999,0l-.256.2000001c-.28.2239997-.624.3519999-.992.3519999H.0000013v1.5999997h.04c.368,0,.7119999-.1279996.9920001-.3519999l.256-.1999995c.4178318-.3284976,1.0061684-.3284976,1.4239999,0l.2479998.1999995c.2880001.2240003.64.3519999,1,.3519999h.0799999c.32,0,.6240002-.0959994.8880002-.2720006,0,0,.1120001-.0799993.1119992-.0799993Z"/>
</svg>