<?xml version="1.0" encoding="UTF-8"?>
<svg id="Layer_1" xmlns="http://www.w3.org/2000/svg" xmlns:xlink="http://www.w3.org/1999/xlink" version="1.1" viewBox="0 0 30 30">
  <!-- Generator: Adobe Illustrator 30.3.0, SVG Export Plug-In . SVG Version: 2.1.3 Build 182)  -->
  <defs>
    <style>
      .st0 {
        filter: url(#drop-shadow-1);
      }

      .st1 {
        fill: #1a1a1a;
        stroke: #fdfaf5;
        stroke-linecap: round;
        stroke-linejoin: round;
        stroke-width: 1.5px;
      }

      .st2 {
        fill: #fdfaf5;
      }
    </style>
    <filter id="drop-shadow-1" x="0" y="0" width="30" height="30" filterUnits="userSpaceOnUse">
      <feOffset dx="1" dy="1"/>
      <feGaussianBlur result="blur" stdDeviation="1"/>
      <feFlood flood-color="#000" flood-opacity=".2"/>
      <feComposite in2="blur" operator="in"/>
      <feComposite in="SourceGraphic"/>
    </filter>
  </defs>
  <g class="st0">
    <rect class="st1" x="4" y="4" width="20" height="20" rx="1.3333333" ry="1.3333333"/>
  </g>
  <path class="st2" d="M6.7043619,7.2655649v1.4030075c2.2414451,0,3.3200769.3995762,3.367218,2.244812v2.5254145c0,2.244812,1.683609,3.367218,2.806016,3.367218,0,0-1.122406-1.122406-1.122406-3.367218v-2.5254135c0-.9663916-.3423338-1.6948328-.8765993-2.244812,1.4063749,0,2.5164347.5870185,2.5602074,2.244812v2.5254135c0,2.244812,1.6836081,3.367218,2.8060141,3.367218,0,0-1.122406-1.122406-1.122406-3.367218v-2.5254135c0-1.0258789-.2716227-1.7487092-.666708-2.244812,1.2279119,0,2.350318.6173234,2.350318,2.244812v2.5254135c0,2.244812,1.6836081,3.367218,2.8060141,3.367218,0,0-1.122406-1.122406-1.122406-3.367218v-2.5254135c.0000019-3.3672175-2.8060141-3.647819-3.928421-3.647819,0,0-7.856843,0-7.8568411-.0000014ZM10.0715799,17.928421c-.5993648,0-1.6746297,1.122406-2.244812,1.122406v1.683609c.6027322,0,1.7116694-1.122406,2.244812-1.122406.5656929,0,1.6454477,1.122406,2.244812,1.122406.5342646,0,1.6746302-1.122406,2.2448111-1.122406.5656919,0,1.7083015,1.122406,2.244812,1.122406.5656929,0,1.711668-1.122406,2.244812-1.122406s1.6791191,1.122406,2.244812,1.122406v-1.683609c-.4657974,0-1.6454468-1.1560764-2.244812-1.122406-.5365086,0-1.6443253,1.122406-2.244812,1.122406-.4994698,0-1.6791191-1.122406-2.244812-1.122406s-1.7442188,1.122406-2.244812,1.122406c-.5342646,0-1.6454477-1.122406-2.244812-1.122406"/>
</svg>