<?xml version="1.0" encoding="UTF-8"?>
<svg id="Layer_1" xmlns="http://www.w3.org/2000/svg" version="1.1" viewBox="0 0 18 18">
  <!-- Generator: Adobe Illustrator 30.3.0, SVG Export Plug-In . SVG Version: 2.1.3 Build 182)  -->
  <defs>
    <style>
      .st0 {
        fill: none;
      }
    </style>
  </defs>
  <path class="st0" d="M0,3h12.0000002v12.0000002H0V3Z"/>
  <path d="M0,3h1.2c1.3080002,0,3.6.3599999,3.6,2.1v4.2c0,2.4,1.8,3.6,3,3.6l-.048-.1080002c-.1439999-.348-.552-1.5120003-.552-3.4919998v-4.2c0-1.0920001-.7800001-1.5719999-1.2-2.1,1.3080002,0,2.4.3599999,2.4,2.1v4.2c0,2.4,1.8,3.6,3,3.6l-.048-.1080002c-.1439999-.348-.552-1.5120003-.552-3.4919998l.1200005-4.2c.048-1.0920001-.9-1.5719999-1.3200005-2.1,1.3080002,0,2.4.3599999,2.4,2.1v4.2c0,2.4,1.8,3.6,3,3.6l-.048-.1080002c-.1439999-.348-.552-1.5120003-.552-3.4919998v-4.2c0-3.5039999-3.4080002-4.452-4.6919998-4.5H0v2.4ZM7.5600002,16.8720005l.3719999-.3c.6267477-.492746,1.5092525-.492746,2.1360003,0l.3720005.3c.4319996.3359997.9600002.5279995,1.5.5279995h.1200005c.5399998,0,1.0680004-.1919998,1.5-.5279995l.3720005-.3c.6267471-.492746,1.5092525-.492746,2.1359997,0l.3839996.3c.4200005.3359997.9359997.5279995,1.4879997.5279995h.0599991v-2.4h-.0600002c-.552,0-1.0680004-.1919998-1.4879997-.5279995l-.3839996-.3c-.6267471-.492746-1.5092525-.492746-2.1359997,0l-.3720005.3c-.4319996.3359997-.9600002.5279995-1.5.5279995h-.1200005c-.5399998,0-1.0680004-.1919998-1.5-.5279995l-.3720005-.3c-.6267477-.492746-1.509252-.492746-2.1359997,0l-.3719999.3c-.4320002.3359997-.9600002.5279995-1.5.5279995h-.1199999c-.5399998,0-1.0679998-.1919998-1.5-.5279995l-.3719999-.3c-.6267477-.492746-1.5092525-.492746-2.136,0l-.3839999.3c-.42.3359997-.936.5279995-1.488.5279995h-.0599999v2.4h.06c.552,0,1.068-.1919998,1.488-.5279995l.3839999-.3c.6267477-.492746,1.5092525-.492746,2.136,0l.3719999.3c.4320002.3359997.9600002.5279995,1.5.5279995h.1199999c.4800001,0,.9360003-.1439999,1.3320002-.4080002l.1680004-.1199993Z"/>
</svg>