<?xml version="1.0" encoding="UTF-8"?>
<svg id="Layer_1" xmlns="http://www.w3.org/2000/svg" version="1.1" viewBox="0 0 12 12">
  <!-- Generator: Adobe Illustrator 30.3.0, SVG Export Plug-In . SVG Version: 2.1.3 Build 182)  -->
  <path d="M0,.4615412v1.1538462c1.8433846,0,2.7304614.3286154,2.7692308,1.8461537v2.0769232c0,1.8461536,1.3846156,2.7692303,2.3076924,2.7692303,0,0-.9230768-.9230768-.9230768-2.7692308v-2.076923c0-.7947693-.2815384-1.3938462-.7209233-1.8461538,1.1566154,0,2.0695386.4827692,2.1055385,1.8461538v2.076923c0,1.846154,1.3846152,2.7692308,2.307692,2.7692308,0,0-.9230768-.9230768-.9230768-2.7692308v-2.076923c0-.8436923-.2233846-1.4381541-.5483075-1.8461538,1.0098459,0,1.9329227.5076922,1.9329227,1.8461538v2.076923c0,1.846154,1.3846152,2.7692308,2.307692,2.7692308,0,0-.9230768-.9230768-.9230768-2.7692308v-2.076923c.0000009-2.7692305-2.307692-2.9999997-3.2307687-2.9999997H0ZM2.7692308,9.2307724c-.4929231,0-1.3772308.9230768-1.8461538.9230768v1.3846152c.4956923,0,1.4076924-.9230768,1.8461538-.9230768.4652307,0,1.3532309.9230768,1.846154.9230768.4393845,0,1.377231-.9230768,1.8461536-.9230768.4652307,0,1.4049234.9230768,1.8461536.9230768.4652307,0,1.407692-.9230768,1.8461536-.9230768s1.3809238.9230768,1.8461536.9230768v-1.3846152c-.3830768,0-1.3532309-.9507687-1.8461536-.9230768-.4412302,0-1.352308.9230768-1.8461536.9230768-.4107687,0-1.3809233-.9230768-1.8461536-.9230768s-1.4344615.9230768-1.8461536.9230768c-.4393845,0-1.3532309-.9230768-1.8461538-.9230768"/>
</svg>