<?xml version="1.0" encoding="UTF-8"?>
<svg id="Layer_1" xmlns="http://www.w3.org/2000/svg" version="1.1" viewBox="0 0 18 18">
  <!-- Generator: Adobe Illustrator 30.3.0, SVG Export Plug-In . SVG Version: 2.1.3 Build 182)  -->
  <defs>
    <style>
      .st0 {
        fill: none;
      }

      .st1 {
        fill: #1a1a1a;
      }
    </style>
  </defs>
  <path class="st0" d="M0,3h12v12H0V3Z"/>
  <path class="st1" d="M0,3h1.2c1.3080003,0,3.6000001.3599999,3.6000001,2.0999999v4.1999993c0,2.3999996,1.8000002,3.6000004,3,3.6000004l-.0479999-.1079998c-.1440001-.3479996-.552-1.5120001-.552-3.4919996v-4.1999998c0-1.092-.7800002-1.572-1.2000003-2.0999999,1.3080001,0,2.3999996.3599999,2.3999996,2.0999999v4.1999998c0,2.4000006,1.8000002,3.5999994,3,3.5999994l-.0480003-.1079998c-.1440001-.3479996-.552-1.5120001-.552-3.4919996l.1200008-4.1999998c.0480003-1.092-.8999996-1.572-1.3200006-2.0999999,1.3080006,0,2.4000006.3599999,2.4000006,2.0999999v4.1999998c0,2.4000006,1.8000002,3.5999994,3,3.5999994l-.0480003-.1079998c-.1440001-.3479996-.552-1.5120001-.552-3.4919996v-4.1999998c0-3.5039999-3.408-4.4520001-4.6919994-4.5H0s0,2.4000001,0,2.3999996ZM7.5600004,16.8719997l.3719997-.2999992c.6267481-.4927464,1.5092525-.4927464,2.1360006,0l.3720007.2999992c.4319992.3360004.96.5279999,1.5.5279999h.1200008c.54,0,1.0680008-.1919994,1.5-.5279999l.3720007-.2999992c.6267471-.4927464,1.5092525-.4927464,2.1359997,0l.3839989.2999992c.4200001.3360004.9359989.5279999,1.487999.5279999h.0599995v-2.3999996h-.0599995c-.552,0-1.0680008-.1919994-1.487999-.5279999l-.3839989-.3000002c-.6267471-.4927464-1.5092525-.4927464-2.1359997,0l-.3720007.3000002c-.4319992.3359995-.96.5279999-1.5.5279999h-.1200008c-.54,0-1.0680008-.1919994-1.5-.5279999l-.3720007-.3000002c-.6267481-.4927464-1.5092516-.4927464-2.1359997,0l-.3719997.3000002c-.4320002.3359995-.96.5279999-1.5.5279999h-.1199999c-.54,0-1.0679998-.1919994-1.5-.5279999l-.3719997-.3000002c-.6267476-.4927464-1.5092525-.4927464-2.1359999,0l-.3839999.3000002c-.42.3359995-.936.5279999-1.488.5279999H.0000019v2.3999996h.06c.552,0,1.068-.1919994,1.4880001-.5279999l.3839999-.2999992c.6267477-.4927464,1.5092527-.4927464,2.1359998,0l.3719997.2999992c.4320002.3360004.96.5279999,1.5.5279999h.1199999c.48,0,.9360003-.1439991,1.3320003-.4080009,0,0,.1680002-.1199989.1679988-.1199989Z"/>
</svg>