<?xml version="1.0" encoding="UTF-8"?>
<svg id="Layer_1" xmlns="http://www.w3.org/2000/svg" version="1.1" viewBox="0 0 12 12">
  <!-- Generator: Adobe Illustrator 30.3.0, SVG Export Plug-In . SVG Version: 2.1.3 Build 182)  -->
  <defs>
    <style>
      .st0 {
        stroke: #000;
        stroke-miterlimit: 10;
        stroke-width: .5px;
      }
    </style>
  </defs>
  <path class="st0" d="M1.7589454,3.1570282c-.1549848-.0032752-.2779697-.1315706-.2746944-.2865553l.000007-.0003197c.0028126-.1256249.0881251-.2334375.2090625-.2662501l3.9468749-1.059375c.2249999-.05625.4593749-.05625.6843748,0l3.9468751,1.059375c.1539869.0203874.26229.1617451.2419024.3157315-.0000086.0000687-.0000181.0001373-.0000277.000206-.0205135.1539695-.1619606.2621565-.3159304.2416432-.019496-.0025978-.0386667-.0072329-.0571957-.0138304l-3.9562497-1.0499997c-.1350002-.0374999-.2774997-.0374999-.4124999,0l-3.9468746,1.0500002c-.0206249.0075002-.0431249.01125-.0656251.0093749"/>
  <path class="st0" d="M8.1808204,9.6445291h-1.4249997c-.0309377,0-.0553122-.024375-.0553122-.0553122,0-.0196877.0103126-.0384378.0271878-.0478125,0,0,.890625-.5249996.9000001-.5249996.3187499-.1687508.5156255-.5062504.4218755-.8624992l-.7312503-2.5406246c-.1078124-.3928123-.5137506-.6243749-.9065623-.5165625-.0009375,0-.0018749.0009375-.0028124.0009375-.1134372.0337501-.2193747.0918751-.3093753.1687498-.0271878.0187502-.0524998.0412498-.0750003.0656252l-.9656248.9468746c-.0654597.0675702-.1733022.0692806-.2408719.0038209-.0043139-.00418-.0084043-.0085845-.0122528-.013196l-.8999999-1.0687499c-.1199267-.1473956-.3366337-.1696634-.4840293-.049737-.001163.0009465-.0023198.0019002-.0034709.002862-.1417563.1169543-.162292.3265009-.0459378.46875.0028124.0037503.005625.0065627.0084374.0093751l1.2281253,1.4625001c.0187502.0187497.0281248.046875.046875.0656247.0562501.0534377.129375.0862498.2062502.09375h.0562501c.0778127-.0018749.1537499-.0281253.2156248-.0750003.0206251-.0196872.0403123-.0421872.0562501-.0656247l.6843748-.6843753c.0309377-.0337501.0834374-.034688.11625-.0037503.012187.0112505.0206251.0253124.024375.0412502l.5343747,1.8656249c.0440626.1499996-.0168748.3112497-.1500001.3937502l-1.6031246.9750004-.0093751.0093746c-.0093751.0093746-.0281248.0187492-.0374999.0281258l-.0281248.0281258-.0281248.0281258-.0281248.0281258c-.0103126.010313-.0159373.0234375-.0187502.0375004-.01125.0093746-.0187502.0225-.0187502.0375004-.0093751.0093746-.0093751.0281258-.0187502.0375004s-.0093751.0281258-.0093751.0375004c.0009375.0131245-.0018749.0262499-.0093751.0375004v.1312504c0,.0187492.0093751.0281258.0093751.0375004s.0093751.0281258.0093751.0375004.0187502.0281258.0187502.046875c.0009375.0075006.0046873.0140629.0093751.0187492,0,.0056248.0037503.0093746.0093751.0093746.0065627.0140629.0168748.0271873.0281248.0375004.0093751.0093746.0187502.0187492.0187502.0281258.0103126.0112505.0234375.0215626.0374999.0281258l.0281248.0281258c.0103126.010313.0234375.0159369.0374999.0187492.0093751.0093746.0187502.0093746.0374999.0187492s.0281248.0093746.046875.0187492.0281248.0093746.0374999.0093746c.0131249-.0009375.0262499.0018749.0374999.0093746.0159373-.0018749.0328126.0018749.046875.0093746h3.1968751c.2415276-.0023127.4354486-.1999826.4331369-.4415102-.0001173-.0122261-.0007467-.0244417-.0018873-.0366144-.0363855-.2192202-.2278128-.3787422-.4500008-.375"/>
  <circle class="st0" cx="5.9026956" cy="4.0382784" r=".84375"/>
</svg>