<?xml version="1.0" encoding="UTF-8"?>
<svg id="Layer_1" xmlns="http://www.w3.org/2000/svg" version="1.1" viewBox="0 0 24 24">
  <!-- Generator: Adobe Illustrator 30.3.0, SVG Export Plug-In . SVG Version: 2.1.3 Build 182)  -->
  <defs>
    <style>
      .st0 {
        stroke-width: 2.6666667px;
      }

      .st0, .st1 {
        fill: none;
        stroke: #1a1a1a;
        stroke-linecap: round;
        stroke-linejoin: round;
      }

      .st1 {
        stroke-width: 2px;
      }

      .st2 {
        fill: #fdfaf5;
      }

      .st3 {
        fill: #1a1a1a;
      }

      .st4 {
        fill: #3b3631;
      }
    </style>
  </defs>
  <rect class="st4" x="1" y="1" width="22" height="22" rx="6" ry="6"/>
  <g>
    <polygon class="st2" points="16.1752625 1 19.2821369 17.9519558 4.7178636 17.9519558 7.9468675 1 16.1752625 1"/>
    <ellipse class="st2" cx="12" cy="17.9519558" rx="7.2821369" ry="1.340723"/>
  </g>
  <g>
    <path class="st4" d="M14.2382812,18.6083984h-.0136719l-6.3217773-.0869141c-.5522461-.0078125-.9936523-.4619141-.9863281-1.0136719.0083008-.5527344.4731445-.9833984,1.0136719-.9863281l.5693359.0078125c-.390625-.3339844-.4663086-.9179688-.1601562-1.3427734.3222656-.4472656.9472656-.5498047,1.3955078-.2275391.7685547.5527344,3.3188477,1.3232422,4.7456055,1.6787109.4921875.1230469.8144531.5957031.7490234,1.0996094-.0644531.4990234-.4892578.8710938-.9912109.8710938Z"/>
    <path class="st4" d="M8.9458008,17.3388672c-.2578125,0-.5180664-.0791016-.7475586-.2441406-.6425781-.4628906-1.3540039-1.453125-1.4248047-2.8457031-.0620117-1.2207031.378418-3.1328125,2.828125-5.3071289.5507812-.4897461,1.3945312-.4389648,1.8823242.1118164.4887695.5507812.4389648,1.3935547-.1118164,1.8823242-1.2680664,1.1254883-1.9560547,2.2358398-1.9370117,3.128418.012207.5878906.324707.8681641.3276367.8710938.5585938.4550781.6831055,1.2939453.2441406,1.8662109-.2666016.3476562-.6611328.5371094-1.0610352.5371094Z"/>
    <path class="st4" d="M13.4960938,14.1933594c-.0126953,0-.0244141,0-.0371094-.0009766-.2910156-.0107422-.5620117-.1474609-.7436523-.3740234l-2.8486328-3.5610352c-.3452148-.4311523-.2753906-1.0605469.15625-1.4052734.4291992-.3452148,1.0595703-.2758789,1.4052734.15625l2.1245117,2.6552734,1.4238281-1.5317383c.3779297-.4047852,1.0107422-.4267578,1.4130859-.0517578.4042969.3759766.4277344,1.0087891.0517578,1.4130859l-2.2128906,2.3808594c-.1894531.2041016-.4550781.3193359-.7324219.3193359Z"/>
    <circle class="st4" cx="13.1163034" cy="7.7299881" r="1.7690363"/>
  </g>
  <rect class="st3" x="28.379212" y="1" width="22" height="22" rx="6" ry="6"/>
  <g>
    <polygon class="st2" points="43.5544744 1 46.6613489 17.9519558 32.0970755 17.9519558 35.3260794 1 43.5544744 1"/>
    <ellipse class="st2" cx="39.379212" cy="17.9519558" rx="7.2821369" ry="1.340723"/>
  </g>
  <g>
    <path class="st1" d="M36.5299869,15.770443c1.2105923.8716259,5.0877733,1.8383236,5.0877733,1.8383236l-6.322207-.0869999"/>
    <path class="st0" d="M37.8660341,9.9387608c-3.6326971,3.2238617-2.2253256,5.5581703-1.5091715,6.073801"/>
    <path class="st1" d="M43.0882656,10.8126637l-2.2126245,2.3804474-2.8489599-3.5600863"/>
    <circle class="st3" cx="40.4955154" cy="7.7299881" r="1.7690363"/>
  </g>
</svg>