<?xml version="1.0" encoding="UTF-8"?>
<svg id="Layer_1" xmlns="http://www.w3.org/2000/svg" version="1.1" viewBox="0 0 12 12">
  <!-- Generator: Adobe Illustrator 30.3.0, SVG Export Plug-In . SVG Version: 2.1.3 Build 182)  -->
  <defs>
    <style>
      .st0 {
        stroke-width: .5px;
      }

      .st0, .st1 {
        stroke: #1a1a1a;
        stroke-linecap: round;
        stroke-linejoin: round;
      }

      .st0, .st1, .st2 {
        fill: #1a1a1a;
      }

      .st1 {
        stroke-width: .25px;
      }
    </style>
  </defs>
  <path class="st0" d="M1.78125,3.1499999c-.1549848-.0032752-.2779697-.1315706-.2746945-.2865552l.000007-.0003197c.0028126-.125625.0881251-.2334375.2090625-.26625l3.9468749-1.0593751c.2250001-.05625.4593748-.05625.6843749,0l3.9468749,1.0593749c.1539867.0203873.26229.1617451.2419024.3157314-.0000086.0000687-.0000179.0001373-.0000272.000206-.0205135.1539695-.1619604.2621566-.3159299.2416431-.0194964-.0025978-.0386667-.007233-.0571954-.0138305l-3.9562497-1.0499997c-.1350002-.0375-.2774999-.0375-.4125001,0l-3.9468745,1.0500001c-.0206249.0075002-.0431249.0112499-.0656251.0093749"/>
  <path class="st1" d="M8.203125,9.6375003h-1.4249997c-.0309377,0-.0553122-.0243752-.0553122-.0553122,0-.0196874.0103126-.0384378.0271876-.0478127,0,0,.890625-.5249999.8999999-.5249999.3187501-.1687503.515625-.5062501.421875-.8624997l-.7312503-2.5406249c-.1078126-.3928124-.5137503-.624375-.9065623-.5165627-.0009377,0-.0018747.0009373-.0028124.0009373-.1134374.0337501-.2193747.091875-.3093753.1687499-.0271876.0187501-.0524998.0412499-.0750003.0656251l-.9656249.9468745c-.0654598.0675702-.1733022.0692804-.240872.0038209-.0043141-.00418-.0084043-.0085845-.012253-.0131958l-.8999999-1.0687501c-.1199266-.1473956-.3366337-.1696633-.4840293-.0497371-.001163.0009466-.0023199.0019004-.0034708.0028621-.1417562.1169543-.1622919.326501-.0459377.46875.0028124.0037501.0056251.0065625.0084375.0093749l1.2281252,1.4624999c.0187501.0187497.0281249.046875.046875.0656247.0562499.0534375.1293751.0862498.2062501.09375h.0562499c.0778127-.0018747.1537499-.0281253.2156249-.0750003.0206251-.0196874.0403125-.0421872.0562499-.0656247l.6843749-.6843753c.0309377-.0337501.0834374-.0346878.1162502-.0037501.0121872.0112503.0206251.0253122.0243752.0412502l.5343747,1.8656251c.0440626.1499999-.016875.31125-.1499999.3937497l-1.6031249.9750001-.0093749.0093749c-.0093749.0093749-.0281249.0187497-.0375001.0281253l-.0281249.0281253-.0281249.0281253-.0281249.0281253c-.0103126.0103126-.0159373.0234375-.0187501.0375001-.0112499.0093749-.0187501.0224998-.0187501.0375001-.0093749.0093749-.0093749.0281253-.0187501.0375001s-.0093749.0281253-.0093749.0375001c.0009373.0131249-.001875.0262499-.0093749.0375001v.1312501c0,.0187497.0093749.0281253.0093749.0375001s.0093749.0281253.0093749.0375001.0187501.0281253.0187501.046875c.0009373.0075002.0046874.0140626.0093749.0187497,0,.0056248.0037501.0093749.0093749.0093749.0065625.0140626.016875.0271876.0281249.0375001.0093749.0093749.0187501.0187497.0187501.0281253.0103126.0112503.0234375.0215628.0375001.0281253l.0281249.0281253c.0103126.0103126.0234375.0159373.0375001.0187497.0093749.0093749.0187501.0093749.0375001.0187497s.0281249.0093749.046875.0187497.0281249.0093749.0375001.0093749c.0131249-.0009377.0262499.0018747.0375001.0093749.0159373-.0018747.0328124.0018747.046875.0093749h3.1968749c.2415276-.0023124.4354491-.1999826.4331374-.4415102-.0001173-.0122259-.0007467-.0244417-.0018876-.0366147-.0363858-.2192202-.2278125-.3787422-.4500003-.375"/>
  <circle class="st2" cx="5.925" cy="4.03125" r=".8437499"/>
</svg>