<?xml version="1.0" encoding="UTF-8"?>
<svg id="Layer_1" xmlns="http://www.w3.org/2000/svg" version="1.1" viewBox="0 0 24 24">
  <!-- Generator: Adobe Illustrator 30.3.0, SVG Export Plug-In . SVG Version: 2.1.3 Build 182)  -->
  <defs>
    <style>
      .st0 {
        stroke-width: 2.6666667px;
      }

      .st0, .st1 {
        fill: none;
        stroke: #1a1a1a;
        stroke-linecap: round;
        stroke-linejoin: round;
      }

      .st1 {
        stroke-width: 2px;
      }

      .st2 {
        fill: #fdfaf5;
      }

      .st3 {
        fill: #1a1a1a;
      }
    </style>
  </defs>
  <g>
    <rect class="st3" x="1" y="1" width="22" height="22" rx="2" ry="2"/>
    <path class="st2" d="M21,2c.5522804,0,1,.4477196,1,1v18c0,.5522804-.4477196,1-1,1H3c-.5522799,0-1-.4477196-1-1V3c0-.5522804.4477201-1,1-1h18M21,0H3C1.3457899,0,0,1.3457909,0,3v18c0,1.6542091,1.3457899,3,3,3h18c1.6542091,0,3-1.3457909,3-3V3c0-1.6542091-1.3457909-3-3-3h0Z"/>
  </g>
  <g>
    <polygon class="st2" points="16.1752621 1.300425 19.282136 17.9519552 4.7178635 17.9519552 7.9468675 1.300425 16.1752621 1.300425"/>
    <ellipse class="st2" cx="12.0000002" cy="17.9519552" rx="7.2821369" ry="1.3407238"/>
  </g>
  <g>
    <path class="st1" d="M9.1507747,15.7704433c1.2105919.8716265,5.0877734,1.8383231,5.0877734,1.8383231l-6.3222068-.0870001"/>
    <path class="st0" d="M10.4868219,9.9387611c-3.6326968,3.2238618-2.2253253,5.55817-1.5091714,6.0738004"/>
    <path class="st1" d="M15.6814768,10.837858l-2.2126247,2.3804479-2.8489598-3.5600865"/>
    <circle class="st3" cx="13.1163033" cy="7.7299882" r="1.7690361"/>
  </g>
</svg>