<?xml version="1.0" encoding="UTF-8"?>
<svg id="Layer_1" xmlns="http://www.w3.org/2000/svg" version="1.1" viewBox="0 0 12 12">
  <!-- Generator: Adobe Illustrator 30.3.0, SVG Export Plug-In . SVG Version: 2.1.3 Build 182)  -->
  <defs>
    <style>
      .st0 {
        fill: #1a1a1a;
      }
    </style>
  </defs>
  <path class="st0" d="M12,3.0000779v5.3998601c0,.4259885-.227993.815979-.5999845,1.0319729v.9179764c0,.2459933-.2039948.4499887-.449988.4499887h-.2999922c-.2459933,0-.449988-.2039948-.449988-.449988v-.7499803h-4.1998908v.7499803c0,.2459933-.2039948.449988-.449988.449988h-.2999922c-.2459936,0-.4499884-.2039948-.4499884-.449988v-.9179764c-.3659903-.2159945-.5999845-.6059844-.5999845-1.0319735V3.0000779c0-1.7999531,1.7999531-1.7999531,3.8998982-1.7999531s3.8998985,0,3.8998985,1.7999531M6.6001403,7.7999535c0-.3299917-.2699928-.5999845-.5999845-.5999845s-.5999845.2699928-.5999845.5999845.2699928.5999845.5999845.5999845.5999845-.2699928.5999845-.5999845M10.800031,7.7999535c0-.3299917-.2699935-.5999845-.5999845-.5999845s-.5999845.2699928-.5999845.5999845.2699935.5999845.5999845.5999845.5999845-.2699928.5999845-.5999845M10.800031,3.0000779h-5.3998597v2.3999376h5.3998597v-2.3999376ZM3.000234,4.5000391c-.0179996-.8279785-.7019819-1.4999609-1.5299603-1.4699615C.6420305,3.0464767-.0160993,3.7311945.0002999,4.5594381l.000012.0005995c.0161355.7007561.5136101,1.2977257,1.1999688,1.4399624v4.7998759h.5999844v-4.7998753c.7079814-.1439959,1.1999688-.7739798,1.1999688-1.4999612"/>
</svg>