<?xml version="1.0" encoding="UTF-8"?>
<svg id="Layer_1" xmlns="http://www.w3.org/2000/svg" version="1.1" viewBox="0 0 12 12">
  <!-- Generator: Adobe Illustrator 30.3.0, SVG Export Plug-In . SVG Version: 2.1.3 Build 182)  -->
  <defs>
    <style>
      .st0 {
        fill: none;
      }

      .st1 {
        fill: #1a1a1a;
      }
    </style>
  </defs>
  <path class="st0" d="M0,0h12v12H0V0Z"/>
  <path class="st1" d="M2.75,1c-.9664983,0-1.75.7835017-1.75,1.75s.7835017,1.75,1.75,1.75,1.75-.7835016,1.75-1.75-.7835016-1.75-1.75-1.75M9,6.8150001v-2.0349998c.4849997.3800001,1.1499996.7199998,2,.7199998v-1c-1.0900002,0-1.79-.855-2-1.1500001v-.5699999c.4849997.3799999,1.1499996.72,2,.72v-1c-1.3099995,0-2.0599995-1.24-2.0699997-1.25-.1339846-.2367114-.4344931-.319988-.6712046-.1860034-.0794106.0449486-.1447725.1110752-.1887951.1910034-.0050011.01-.7050009,1.245-2.0650005,1.245v1c.8600001,0,1.52-.3299999,2-.7049999v.5599999c-.1999998.29-.8699999,1.145-2,1.145v1c.8600001,0,1.52-.3299999,2-.7049999v1.2049999H3.75v.02c-.175,0-.345.0799999-.4349999.2350001l-2.25,4c-.085.1549997-.085.3450003,0,.5.085.1549997.255.25.4300001.25h8.9999998c.1800003,0,.3400002-.0950003.4300003-.25s.0900002-.3450003,0-.5l-1.9350004-3.4400001h.0100002ZM2.355,10l1.395-2.48,1.395,2.48h-2.79Z"/>
</svg>