<?xml version="1.0" encoding="UTF-8"?>
<svg id="Layer_1" xmlns="http://www.w3.org/2000/svg" version="1.1" viewBox="0 0 12 12">
  <!-- Generator: Adobe Illustrator 30.3.0, SVG Export Plug-In . SVG Version: 2.1.3 Build 182)  -->
  <defs>
    <style>
      .st0 {
        fill: none;
      }

      .st1 {
        fill: #1a1a1a;
      }
    </style>
  </defs>
  <path class="st0" d="M0,0h12.0000005v12.0000005H0V0Z"/>
  <path class="st1" d="M2.7029994,1.1999998h-.0078c-.0362154.0007656-.0719928.0080837-.1056001.0216-.0988804.0391469-.1696455.1277175-.186.2328-.0096.0563999-.3036,1.9025999-.3036,2.7456001,0,.5699999.2652,1.0782.6780001,1.4070002.15.1206001.2219999.2513998.2219999.3605999v.3c0,.0108004-.0006.0216002-.0017999.0323999-.0162.1560001-.0906.8574-.1608001,1.5786004-.0690002.7109997-.1374001,1.4699999-.1374001,1.7213998,0,.6627423.5372584,1.2,1.2,1.2s1.2-.5372578,1.2-1.2c0-.2520001-.0684002-1.0104-.1374001-1.7213998-.0512976-.526232-.1048977-1.0522374-.1607998-1.5780001l-.0018002-.0330002v-.3c0-.1097998.0719999-.2399998.2219999-.3605999.4282992-.3414173.6778416-.8592722.6780001-1.4070002,0-.8448-.2958-2.6994002-.3035998-2.7462002-.0180136-.115127-.1010645-.2094076-.2129997-.2417999-.025165-.0073653-.0511866-.0113996-.0774004-.012h-.0120003.0006002c-.1664045.0013181-.3006051.1365905-.3006.3030001v2.4000001c.0034793.1640287-.1266715.2998206-.2907003.3032999-.1640285.0034796-.2998206-.1266712-.3032999-.2907V1.4999998c0-.1656854-.1343144-.3-.3-.3s-.3.1343146-.3.3v2.4000001l.0006.0192c-.0044735.1640287-.1410713.2933736-.3051001.2889001s-.2933736-.1410713-.2889001-.3051001V1.5035998c.0000003-.1674395-.1355607-.303269-.3029998-.3036M6.5999995,3.8999999c0-1.4911689,1.2088315-2.7000001,2.7000001-2.7000001.1656853,0,.3.1343146.3.3v4.1868006l.0120003.1344c.0467651.5391009.0923653,1.0783024.1368004,1.6176001.0744003.9042.1512005,1.8966002.1512005,2.1611997,0,.6627423-.5372584,1.2-1.2,1.2s-1.2-.5372578-1.2-1.2c0-.2639998.0768002-1.2570002.1511999-2.1612002.0372002-.4565998.075-.8981999.1032-1.2251999l.0179998-.2136h-.2724009c-.4970564,0-.9-.4029436-.9-.9v-1.2ZM5.0969993,1.1999998h-.0023998.0023998Z"/>
</svg>