<?xml version="1.0" encoding="UTF-8"?>
<svg id="Layer_1" xmlns="http://www.w3.org/2000/svg" version="1.1" viewBox="0 0 12 12">
  <!-- Generator: Adobe Illustrator 30.3.0, SVG Export Plug-In . SVG Version: 2.1.3 Build 182)  -->
  <defs>
    <style>
      .st0 {
        fill: none;
      }

      .st1 {
        fill: #1a1a1a;
      }
    </style>
  </defs>
  <path class="st0" d="M0,0h11.9999997v11.9999997H0V0Z"/>
  <path class="st1" d="M11.7599997,4.0799999c0-.1319998-.1080002-.24-.24-.24h-3.1199999c-.1319998,0-.24-.108-.24-.24V.48c0-.132-.1080002-.24-.24-.24h-3.8399999c-.1319998,0-.24.108-.24.24v3.1199999c0,.132-.108.24-.24.24H.48c-.132,0-.24.1080002-.24.24v3.8399999c0,.1319998.108.24.24.24h3.1199999c.132,0,.24.1080002.24.24v3.1199999c0,.1319998.1080002.24.24.24h3.8399999c.1319998,0,.24-.1080002.24-.24v-3.1199999c0-.1319998.1080002-.24.24-.24h3.1199999c.1319998,0,.24-.1080002.24-.24v-3.8399999Z"/>
</svg>