<?xml version="1.0" encoding="UTF-8"?>
<svg id="Layer_1" xmlns="http://www.w3.org/2000/svg" version="1.1" viewBox="0 0 18 18">
  <!-- Generator: Adobe Illustrator 30.3.0, SVG Export Plug-In . SVG Version: 2.1.3 Build 182)  -->
  <defs>
    <style>
      .st0 {
        fill: #1a1a1a;
        fill-rule: evenodd;
      }
    </style>
  </defs>
  <path class="st0" d="M0,10.3000002l1.9-2.6999998h1.7999998c.2,0,.4000001,0,.5-.1999998l1.5-2.0999999c.5-.6999998.5999999-.5999999,1-.5999999h4.6999998l.6999998.9000001h-3.9000006c-.4000001,0-.5.0999999-.5999999.3000002l-1.2999997,1.7999997h.9000001c.1999998,0,.1999998-.0999999.3000002-.1999998l.9000001-1.3000002c.1999998-.3000002.5-.1999998.6999998-.1999998h3.8000002l1,1.5h-4.8000002c-.1999998,0-.3999996,0-.6000004.3000002l-1.5999999,2.3000002c-.1999998.1999998-.3000002.3000002-.5999999.3000002H0v-.1000013Z"/>
  <path class="st0" d="M18,7.6999998l-1.8999996,2.6999998h-1.8000002c-.1999998,0-.3999996,0-.5.1999998l-1.5,2.0999994c-.5.6999998-.6000004.6000004-1,.6000004h-4.6999998l-.6999998-.8999996h3.9000006c.3999996,0,.5-.1000004.6000004-.3000002l1.3000002-1.8000002h-.8999996c-.1999998,0-.1999998.1000004-.3000002.1999998l-.8999996,1.3000002c-.1999998.3000002-.5.1999998-.6999998.1999998h-3.8000002l-1-1.5h4.8000002c.1999998,0,.3999996,0,.6000004-.3000002l1.6000004-2.3000002c.1999998-.1999998.3000002-.3000002.6000004-.3000002h6.1999998l.0999966.1000013Z"/>
</svg>