<?xml version="1.0" encoding="UTF-8"?>
<svg id="Layer_1" xmlns="http://www.w3.org/2000/svg" version="1.1" viewBox="0 0 12 12">
  <!-- Generator: Adobe Illustrator 30.3.0, SVG Export Plug-In . SVG Version: 2.1.3 Build 182)  -->
  <defs>
    <style>
      .st0 {
        fill: #1a1a1a;
      }
    </style>
  </defs>
  <path class="st0" d="M6.5218458.6120849c-.2099387-.3958836-.8517494-.3958836-1.0616874,0L.0677448,10.8090853c-.0959717.1859449-.0899735.4078801.0179947.587827.1079683.1799469.30591.2879155.5158482.2879155h10.7968238c.209938,0,.4078801-.1079686.5158488-.2879155s.1139666-.4018822.0179952-.587827L6.5218458.6120849ZM5.9940011,2.1716262l1.8414579,3.4849752-.6418113.485857-.8397528-.6298148c-.2125905-.1619809-.5071977-.1619809-.7197882,0l-.8397534.6298141-.641811-.485857s1.8414582-3.4849744,1.8414589-3.4849745ZM1.5912959,10.48518l1.9914141-3.7608939.8517494.6418113c.2159363.161953.5038519.161953.7197882,0l.8397528-.6298148.8397528.6298148c.1079686.0779769.2339312.1199646.3598944.1199646s.2519258-.0419877.3598944-.1199646l.8517487-.6418113,1.9914143,3.7608939H1.5912959Z"/>
</svg>