<?xml version="1.0" encoding="UTF-8"?>
<svg id="Layer_1" xmlns="http://www.w3.org/2000/svg" version="1.1" viewBox="0 0 18 18">
  <!-- Generator: Adobe Illustrator 30.3.0, SVG Export Plug-In . SVG Version: 2.1.3 Build 182)  -->
  <defs>
    <style>
      .st0 {
        fill: #fdfaf5;
      }

      .st1 {
        fill: #fdfaf5;
      }

      .st2 {
        fill: #1a1a1a;
      }
    </style>
  </defs>
  <g>
    <rect class="st2" x=".25" y=".25" width="17.5" height="17.5" rx=".75" ry=".75"/>
    <path class="st0" d="M17,.5c.2756996,0,.5.2243004.5.5v16c0,.2757001-.2243004.5-.5.5H1c-.2757,0-.5-.2242999-.5-.5V1c0-.2756996.2243-.5.5-.5h16M17,0H1C.44772,0,0,.44771,0,1v16c0,.5522799.44772,1,1,1h16c.5522804,0,1-.4477201,1-1V1c0-.55229-.4477196-1-1-1h0Z"/>
  </g>
  <path class="st1" d="M2.4339256,2.9390082v1.2627067c2.0173003,0,2.988069.3596189,3.0304962,2.0203308v2.2728724c0,2.0203306,1.5152481,3.0304962,2.5254137,3.0304962,0,0-1.010165-1.010165-1.010165-3.0304962v-2.2728719c0-.8697524-.3081005-1.5253496-.7889395-2.0203308,1.2657371,0,2.2647909.5283164,2.3041871,2.0203308v2.2728719c0,2.0203311,1.5152476,3.0304962,2.5254131,3.0304962,0,0-1.010165-1.010165-1.010165-3.0304962v-2.2728719c0-.9232911-.2444598-1.5738381-.6000379-2.0203308,1.1051205,0,2.115286.5555909,2.115286,2.0203308v2.2728719c0,2.0203311,1.5152476,3.0304962,2.5254137,3.0304962,0,0-1.010165-1.010165-1.010165-3.0304962v-2.2728719c.000001-3.0304959-2.5254131-3.2830372-3.5355782-3.2830372,0,0-7.071159,0-7.071159-.0000008ZM5.4644218,12.5355792c-.5394282,0-1.5071667,1.010165-2.0203308,1.010165v1.5152476c.5424589,0,1.5405025-1.010165,2.0203308-1.010165.5091233,0,1.4809026,1.010165,2.0203311,1.010165.4808385,0,1.5071671-1.010165,2.0203306-1.010165.509123,0,1.5374721,1.010165,2.0203306,1.010165.5091235,0,1.5405018-1.010165,2.0203301-1.010165s1.5112076,1.010165,2.0203301,1.010165v-1.5152476c-.4192183,0-1.4809021-1.0404695-2.0203301-1.010165-.482858,0-1.4798929,1.010165-2.0203301,1.010165-.4495228,0-1.5112076-1.010165-2.0203306-1.010165s-1.569797,1.010165-2.0203306,1.010165c-.4808385,0-1.4809026-1.010165-2.0203306-1.010165"/>
</svg>